<?xml version="1.0" standalone="yes"?>
<svg xmlns="http://www.w3.org/2000/svg" width="512" height="512">
<path style="fill:#fbfbfb; stroke:none;" d="M0 0L0 512L512 512L512 394L511 394C502.654 433.797 450.753 424 421 424L141 424L141 423L210 403L210 402L141 382L209 361L185 353.14L141 340L141 339L209 320L191 312.975L141 298L141 297L209 278L190 270.72L142 256L190 241.28L209 234L141 215L141 214L191 199.025L209 192L141 173L141 172L185 158.86L209 151L141 130L210 110L210 109L141 89L141 88L421 88C450.753 88 502.654 78.2029 511 118L512 118L512 0L0 0z"/>
<path style="fill:#f8c8ca; stroke:none;" d="M141 88L142 89L141 88z"/>
<path style="fill:#fc8e94; stroke:none;" d="M142 88L143 89L142 88z"/>
<path style="fill:#ff4b55; stroke:none;" d="M143 88L143 89L211 109L143 130L167 137.86L211 151L143 172C161.714 183.433 190.071 186.192 211 193L143 214L166 221.424L211 235L211 236L143 255L143 257L211 276L211 277L166 290.576L143 298L211 319C190.071 325.808 161.714 328.567 143 340L211 361L167 374.14L143 382L211 403L143 423C149.919 425.903 160.52 424 168 424L222 424L412 424L462 424C474.955 424 487.177 424.444 497.961 415.957C518.437 399.84 512 367.953 512 345L512 165C512 142.832 517.961 112.878 498.91 96.8194C487.743 87.4057 474.698 88 461 88L401 88L143 88z"/>
<path style="fill:#f8c8ca; stroke:none;" d="M144 89L145 90L144 89z"/>
<path style="fill:#fc8e94; stroke:none;" d="M145 89L146 90L145 89z"/>
<path style="fill:#f8c8ca; stroke:none;" d="M147 90L148 91L147 90z"/>
<path style="fill:#fc8e94; stroke:none;" d="M148 90L149 91L148 90z"/>
<path style="fill:#f9b1b5; stroke:none;" d="M151 91L152 92L151 91z"/>
<path style="fill:#f8c8ca; stroke:none;" d="M154 92L155 93L154 92z"/>
<path style="fill:#fc8e94; stroke:none;" d="M155 92L156 93L155 92z"/>
<path style="fill:#f8c8ca; stroke:none;" d="M157 93L158 94L157 93z"/>
<path style="fill:#fc8e94; stroke:none;" d="M158 93L159 94L158 93z"/>
<path style="fill:#f9b1b5; stroke:none;" d="M161 94L162 95L161 94z"/>
<path style="fill:#fc8e94; stroke:none;" d="M162 94L163 95L162 94z"/>
<path style="fill:#f8c8ca; stroke:none;" d="M164 95L165 96L164 95z"/>
<path style="fill:#fc8e94; stroke:none;" d="M165 95L166 96L165 95z"/>
<path style="fill:#f9b1b5; stroke:none;" d="M168 96L169 97L168 96z"/>
<path style="fill:#f8c8ca; stroke:none;" d="M171 97L172 98L171 97z"/>
<path style="fill:#fc8e94; stroke:none;" d="M172 97L173 98L172 97z"/>
<path style="fill:#f8c8ca; stroke:none;" d="M174 98L175 99L174 98z"/>
<path style="fill:#fc8e94; stroke:none;" d="M175 98L176 99L175 98z"/>
<path style="fill:#f9b1b5; stroke:none;" d="M178 99L179 100L178 99z"/>
<path style="fill:#f8c8ca; stroke:none;" d="M181 100L182 101L181 100z"/>
<path style="fill:#fc8e94; stroke:none;" d="M182 100L183 101L182 100z"/>
<path style="fill:#f8c8ca; stroke:none;" d="M184 101L185 102L184 101z"/>
<path style="fill:#fc8e94; stroke:none;" d="M185 101L186 102L185 101z"/>
<path style="fill:#f9b1b5; stroke:none;" d="M188 102L189 103L188 102z"/>
<path style="fill:#fc8e94; stroke:none;" d="M189 102L190 103L189 102z"/>
<path style="fill:#f8c8ca; stroke:none;" d="M191 103L192 104L191 103z"/>
<path style="fill:#fc8e94; stroke:none;" d="M192 103L193 104L192 103M195 104L196 105L195 104z"/>
<path style="fill:#f9b1b5; stroke:none;" d="M198 105L199 106L198 105z"/>
<path style="fill:#fc8e94; stroke:none;" d="M199 105L200 106L199 105z"/>
<path style="fill:#f8c8ca; stroke:none;" d="M201 106L202 107L201 106z"/>
<path style="fill:#fc8e94; stroke:none;" d="M202 106L203 107L202 106z"/>
<path style="fill:#f9b1b5; stroke:none;" d="M205 107L206 108L205 107z"/>
<path style="fill:#f8c8ca; stroke:none;" d="M208 108L209 109L208 108z"/>
<path style="fill:#fc8e94; stroke:none;" d="M209 108L210 109L209 108z"/>
<path style="fill:#f9b1b5; stroke:none;" d="M210 109L211 110L210 109z"/>
<path style="fill:#f8c8ca; stroke:none;" d="M206 110L207 111L206 110z"/>
<path style="fill:#fc8e94; stroke:none;" d="M207 110L208 111L207 110z"/>
<path style="fill:#f8c8ca; stroke:none;" d="M203 111L204 112L203 111z"/>
<path style="fill:#fc8e94; stroke:none;" d="M204 111L205 112L204 111z"/>
<path style="fill:#f9b1b5; stroke:none;" d="M200 112L201 113L200 112z"/>
<path style="fill:#f8c8ca; stroke:none;" d="M196 113L197 114L196 113z"/>
<path style="fill:#fc8e94; stroke:none;" d="M197 113L198 114L197 113z"/>
<path style="fill:#f9b1b5; stroke:none;" d="M193 114L194 115L193 114z"/>
<path style="fill:#fc8e94; stroke:none;" d="M194 114L195 115L194 114z"/>
<path style="fill:#f8c8ca; stroke:none;" d="M189 115L190 116L189 115z"/>
<path style="fill:#fc8e94; stroke:none;" d="M190 115L191 116L190 115z"/>
<path style="fill:#f8c8ca; stroke:none;" d="M186 116L187 117L186 116z"/>
<path style="fill:#fc8e94; stroke:none;" d="M187 116L188 117L187 116z"/>
<path style="fill:#f9b1b5; stroke:none;" d="M183 117L184 118L183 117z"/>
<path style="fill:#f8c8ca; stroke:none;" d="M179 118L180 119L179 118z"/>
<path style="fill:#fc8e94; stroke:none;" d="M180 118L181 119L180 118z"/>
<path style="fill:#f8c8ca; stroke:none;" d="M176 119L177 120L176 119z"/>
<path style="fill:#fc8e94; stroke:none;" d="M177 119L178 120L177 119z"/>
<path style="fill:#f9b1b5; stroke:none;" d="M173 120L174 121L173 120z"/>
<path style="fill:#f8c8ca; stroke:none;" d="M169 121L170 122L169 121z"/>
<path style="fill:#fc8e94; stroke:none;" d="M170 121L171 122L170 121z"/>
<path style="fill:#f9b1b5; stroke:none;" d="M166 122L167 123L166 122z"/>
<path style="fill:#fc8e94; stroke:none;" d="M167 122L168 123L167 122M163 123L164 124L163 123z"/>
<path style="fill:#f8c8ca; stroke:none;" d="M159 124L160 125L159 124z"/>
<path style="fill:#fc8e94; stroke:none;" d="M160 124L161 125L160 124z"/>
<path style="fill:#f9b1b5; stroke:none;" d="M156 125L157 126L156 125z"/>
<path style="fill:#fc8e94; stroke:none;" d="M157 125L158 126L157 125z"/>
<path style="fill:#f8c8ca; stroke:none;" d="M152 126L153 127L152 126z"/>
<path style="fill:#fc8e94; stroke:none;" d="M153 126L154 127L153 126z"/>
<path style="fill:#f8c8ca; stroke:none;" d="M149 127L150 128L149 127z"/>
<path style="fill:#fc8e94; stroke:none;" d="M150 127L151 128L150 127z"/>
<path style="fill:#f9b1b5; stroke:none;" d="M146 128L147 129L146 128z"/>
<path style="fill:#f8c8ca; stroke:none;" d="M142 129L141 131L142 129z"/>
<path style="fill:#fc8e94; stroke:none;" d="M143 129L144 130L143 129M142 130L143 131L142 130z"/>
<path style="fill:#f8c8ca; stroke:none;" d="M144 131L145 132L144 131z"/>
<path style="fill:#fc8e94; stroke:none;" d="M145 131L146 132L145 131z"/>
<path style="fill:#f9b1b5; stroke:none;" d="M148 132L149 133L148 132z"/>
<path style="fill:#f8c8ca; stroke:none;" d="M151 133L152 134L151 133z"/>
<path style="fill:#fc8e94; stroke:none;" d="M152 133L153 134L152 133z"/>
<path style="fill:#f8c8ca; stroke:none;" d="M154 134L155 135L154 134z"/>
<path style="fill:#fc8e94; stroke:none;" d="M155 134L156 135L155 134z"/>
<path style="fill:#f9b1b5; stroke:none;" d="M158 135L159 136L158 135z"/>
<path style="fill:#f8c8ca; stroke:none;" d="M161 136L162 137L161 136z"/>
<path style="fill:#fc8e94; stroke:none;" d="M162 136L163 137L162 136z"/>
<path style="fill:#f8c8ca; stroke:none;" d="M164 137L165 138L164 137z"/>
<path style="fill:#fc8e94; stroke:none;" d="M165 137L166 138L165 137z"/>
<path style="fill:#f9b1b5; stroke:none;" d="M168 138L169 139L168 138z"/>
<path style="fill:#fc8e94; stroke:none;" d="M169 138L170 139L169 138z"/>
<path style="fill:#f8c8ca; stroke:none;" d="M171 139L172 140L171 139z"/>
<path style="fill:#fc8e94; stroke:none;" d="M172 139L173 140L172 139z"/>
<path style="fill:#f9b1b5; stroke:none;" d="M175 140L176 141L175 140M178 141L179 142L178 141z"/>
<path style="fill:#fc8e94; stroke:none;" d="M179 141L180 142L179 141z"/>
<path style="fill:#f8c8ca; stroke:none;" d="M181 142L182 143L181 142z"/>
<path style="fill:#fc8e94; stroke:none;" d="M182 142L183 143L182 142z"/>
<path style="fill:#f9b1b5; stroke:none;" d="M185 143L186 144L185 143z"/>
<path style="fill:#f8c8ca; stroke:none;" d="M188 144L189 145L188 144z"/>
<path style="fill:#fc8e94; stroke:none;" d="M189 144L190 145L189 144z"/>
<path style="fill:#f8c8ca; stroke:none;" d="M191 145L192 146L191 145z"/>
<path style="fill:#fc8e94; stroke:none;" d="M192 145L193 146L192 145z"/>
<path style="fill:#f9b1b5; stroke:none;" d="M195 146L196 147L195 146z"/>
<path style="fill:#fc8e94; stroke:none;" d="M196 146L197 147L196 146z"/>
<path style="fill:#f8c8ca; stroke:none;" d="M198 147L199 148L198 147z"/>
<path style="fill:#fc8e94; stroke:none;" d="M199 147L200 148L199 147z"/>
<path style="fill:#f8c8ca; stroke:none;" d="M201 148L202 149L201 148z"/>
<path style="fill:#fc8e94; stroke:none;" d="M202 148L203 149L202 148z"/>
<path style="fill:#f9b1b5; stroke:none;" d="M205 149L206 150L205 149z"/>
<path style="fill:#fc8e94; stroke:none;" d="M206 149L207 150L206 149z"/>
<path style="fill:#f8c8ca; stroke:none;" d="M208 150L210 152L208 150z"/>
<path style="fill:#fc8e94; stroke:none;" d="M209 150L210 151L209 150M210 151L211 152L210 151z"/>
<path style="fill:#f8c8ca; stroke:none;" d="M206 152L207 153L206 152z"/>
<path style="fill:#fc8e94; stroke:none;" d="M207 152L208 153L207 152z"/>
<path style="fill:#f9b1b5; stroke:none;" d="M203 153L204 154L203 153z"/>
<path style="fill:#f8c8ca; stroke:none;" d="M199 154L200 155L199 154z"/>
<path style="fill:#fc8e94; stroke:none;" d="M200 154L201 155L200 154z"/>
<path style="fill:#f8c8ca; stroke:none;" d="M196 155L197 156L196 155z"/>
<path style="fill:#fc8e94; stroke:none;" d="M197 155L198 156L197 155z"/>
<path style="fill:#f9b1b5; stroke:none;" d="M193 156L194 157L193 156z"/>
<path style="fill:#f8c8ca; stroke:none;" d="M189 157L190 158L189 157z"/>
<path style="fill:#fc8e94; stroke:none;" d="M190 157L191 158L190 157z"/>
<path style="fill:#f9b1b5; stroke:none;" d="M186 158L187 159L186 158z"/>
<path style="fill:#fc8e94; stroke:none;" d="M187 158L188 159L187 158z"/>
<path style="fill:#f8c8ca; stroke:none;" d="M182 159L183 160L182 159z"/>
<path style="fill:#fc8e94; stroke:none;" d="M183 159L184 160L183 159z"/>
<path style="fill:#f8c8ca; stroke:none;" d="M179 160L180 161L179 160z"/>
<path style="fill:#fc8e94; stroke:none;" d="M180 160L181 161L180 160z"/>
<path style="fill:#f9b1b5; stroke:none;" d="M176 161L177 162L176 161z"/>
<path style="fill:#f8c8ca; stroke:none;" d="M172 162L173 163L172 162z"/>
<path style="fill:#fc8e94; stroke:none;" d="M173 162L174 163L173 162z"/>
<path style="fill:#f8c8ca; stroke:none;" d="M169 163L170 164L169 163z"/>
<path style="fill:#fc8e94; stroke:none;" d="M170 163L171 164L170 163z"/>
<path style="fill:#f9b1b5; stroke:none;" d="M166 164L167 165L166 164z"/>
<path style="fill:#f8c8ca; stroke:none;" d="M162 165L163 166L162 165z"/>
<path style="fill:#fc8e94; stroke:none;" d="M163 165L164 166L163 165z"/>
<path style="fill:#f9b1b5; stroke:none;" d="M159 166L160 167L159 166z"/>
<path style="fill:#fc8e94; stroke:none;" d="M160 166L161 167L160 166M156 167L157 168L156 167z"/>
<path style="fill:#f8c8ca; stroke:none;" d="M152 168L153 169L152 168z"/>
<path style="fill:#fc8e94; stroke:none;" d="M153 168L154 169L153 168z"/>
<path style="fill:#f9b1b5; stroke:none;" d="M149 169L150 170L149 169z"/>
<path style="fill:#f8c8ca; stroke:none;" d="M145 170L146 171L145 170z"/>
<path style="fill:#fc8e94; stroke:none;" d="M146 170L147 171L146 170z"/>
<path style="fill:#f8c8ca; stroke:none;" d="M142 171L141 173L142 171z"/>
<path style="fill:#fc8e94; stroke:none;" d="M143 171L144 172L143 171M142 172L143 173L142 172M145 173L146 174L145 173z"/>
<path style="fill:#f9b1b5; stroke:none;" d="M148 174L149 175L148 174z"/>
<path style="fill:#fc8e94; stroke:none;" d="M149 174L150 175L149 174z"/>
<path style="fill:#f8c8ca; stroke:none;" d="M151 175L152 176L151 175z"/>
<path style="fill:#fc8e94; stroke:none;" d="M152 175L153 176L152 175z"/>
<path style="fill:#f9b1b5; stroke:none;" d="M155 176L156 177L155 176z"/>
<path style="fill:#f8c8ca; stroke:none;" d="M158 177L159 178L158 177z"/>
<path style="fill:#fc8e94; stroke:none;" d="M159 177L160 178L159 177z"/>
<path style="fill:#f8c8ca; stroke:none;" d="M161 178L162 179L161 178z"/>
<path style="fill:#fc8e94; stroke:none;" d="M162 178L163 179L162 178z"/>
<path style="fill:#f9b1b5; stroke:none;" d="M165 179L166 180L165 179z"/>
<path style="fill:#f8c8ca; stroke:none;" d="M168 180L169 181L168 180z"/>
<path style="fill:#fc8e94; stroke:none;" d="M169 180L170 181L169 180z"/>
<path style="fill:#f8c8ca; stroke:none;" d="M171 181L172 182L171 181z"/>
<path style="fill:#fc8e94; stroke:none;" d="M172 181L173 182L172 181z"/>
<path style="fill:#f9b1b5; stroke:none;" d="M175 182L176 183L175 182z"/>
<path style="fill:#fc8e94; stroke:none;" d="M176 182L177 183L176 182z"/>
<path style="fill:#f8c8ca; stroke:none;" d="M178 183L179 184L178 183z"/>
<path style="fill:#fc8e94; stroke:none;" d="M179 183L180 184L179 183z"/>
<path style="fill:#f9b1b5; stroke:none;" d="M182 184L183 185L182 184z"/>
<path style="fill:#f8c8ca; stroke:none;" d="M185 185L186 186L185 185z"/>
<path style="fill:#fc8e94; stroke:none;" d="M186 185L187 186L186 185z"/>
<path style="fill:#f8c8ca; stroke:none;" d="M188 186L189 187L188 186z"/>
<path style="fill:#fc8e94; stroke:none;" d="M189 186L190 187L189 186z"/>
<path style="fill:#f9b1b5; stroke:none;" d="M192 187L193 188L192 187z"/>
<path style="fill:#f8c8ca; stroke:none;" d="M195 188L196 189L195 188z"/>
<path style="fill:#fc8e94; stroke:none;" d="M196 188L197 189L196 188z"/>
<path style="fill:#f8c8ca; stroke:none;" d="M198 189L199 190L198 189z"/>
<path style="fill:#fc8e94; stroke:none;" d="M199 189L200 190L199 189z"/>
<path style="fill:#f9b1b5; stroke:none;" d="M202 190L203 191L202 190z"/>
<path style="fill:#fc8e94; stroke:none;" d="M203 190L204 191L203 190z"/>
<path style="fill:#f8c8ca; stroke:none;" d="M205 191L206 192L205 191z"/>
<path style="fill:#fc8e94; stroke:none;" d="M206 191L207 192L206 191M209 192L211 194L209 192z"/>
<path style="fill:#f8c8ca; stroke:none;" d="M209 193L210 194L209 193z"/>
<path style="fill:#f9b1b5; stroke:none;" d="M206 194L207 195L206 194z"/>
<path style="fill:#fc8e94; stroke:none;" d="M207 194L208 195L207 194z"/>
<path style="fill:#f8c8ca; stroke:none;" d="M202 195L203 196L202 195z"/>
<path style="fill:#fc8e94; stroke:none;" d="M203 195L204 196L203 195z"/>
<path style="fill:#f8c8ca; stroke:none;" d="M199 196L200 197L199 196z"/>
<path style="fill:#fc8e94; stroke:none;" d="M200 196L201 197L200 196z"/>
<path style="fill:#f9b1b5; stroke:none;" d="M196 197L197 198L196 197z"/>
<path style="fill:#f8c8ca; stroke:none;" d="M192 198L193 199L192 198z"/>
<path style="fill:#fc8e94; stroke:none;" d="M193 198L194 199L193 198z"/>
<path style="fill:#f8c8ca; stroke:none;" d="M189 199L190 200L189 199z"/>
<path style="fill:#fc8e94; stroke:none;" d="M190 199L191 200L190 199z"/>
<path style="fill:#f9b1b5; stroke:none;" d="M186 200L187 201L186 200z"/>
<path style="fill:#f8c8ca; stroke:none;" d="M182 201L183 202L182 201z"/>
<path style="fill:#fc8e94; stroke:none;" d="M183 201L184 202L183 201z"/>
<path style="fill:#f9b1b5; stroke:none;" d="M179 202L180 203L179 202z"/>
<path style="fill:#fc8e94; stroke:none;" d="M180 202L181 203L180 202z"/>
<path style="fill:#f8c8ca; stroke:none;" d="M175 203L176 204L175 203z"/>
<path style="fill:#fc8e94; stroke:none;" d="M176 203L177 204L176 203z"/>
<path style="fill:#f8c8ca; stroke:none;" d="M172 204L173 205L172 204z"/>
<path style="fill:#fc8e94; stroke:none;" d="M173 204L174 205L173 204z"/>
<path style="fill:#f9b1b5; stroke:none;" d="M169 205L170 206L169 205z"/>
<path style="fill:#f8c8ca; stroke:none;" d="M165 206L166 207L165 206z"/>
<path style="fill:#fc8e94; stroke:none;" d="M166 206L167 207L166 206z"/>
<path style="fill:#f8c8ca; stroke:none;" d="M162 207L163 208L162 207z"/>
<path style="fill:#fc8e94; stroke:none;" d="M163 207L164 208L163 207z"/>
<path style="fill:#f9b1b5; stroke:none;" d="M159 208L160 209L159 208z"/>
<path style="fill:#f8c8ca; stroke:none;" d="M155 209L156 210L155 209z"/>
<path style="fill:#fc8e94; stroke:none;" d="M156 209L157 210L156 209z"/>
<path style="fill:#f9b1b5; stroke:none;" d="M152 210L153 211L152 210z"/>
<path style="fill:#fc8e94; stroke:none;" d="M153 210L154 211L153 210M149 211L150 212L149 211z"/>
<path style="fill:#f8c8ca; stroke:none;" d="M145 212L146 213L145 212z"/>
<path style="fill:#fc8e94; stroke:none;" d="M146 212L147 213L146 212z"/>
<path style="fill:#f9b1b5; stroke:none;" d="M142 213L143 214L142 213z"/>
<path style="fill:#fc8e94; stroke:none;" d="M143 213L144 214L143 213z"/>
<path style="fill:#f8c8ca; stroke:none;" d="M141 214L142 215L141 214z"/>
<path style="fill:#fc8e94; stroke:none;" d="M142 214L143 215L142 214z"/>
<path style="fill:#f9b1b5; stroke:none;" d="M145 215L146 216L145 215z"/>
<path style="fill:#f8c8ca; stroke:none;" d="M148 216L149 217L148 216z"/>
<path style="fill:#fc8e94; stroke:none;" d="M149 216L150 217L149 216z"/>
<path style="fill:#f8c8ca; stroke:none;" d="M151 217L152 218L151 217z"/>
<path style="fill:#fc8e94; stroke:none;" d="M152 217L153 218L152 217z"/>
<path style="fill:#f9b1b5; stroke:none;" d="M155 218L156 219L155 218z"/>
<path style="fill:#fc8e94; stroke:none;" d="M156 218L157 219L156 218z"/>
<path style="fill:#f8c8ca; stroke:none;" d="M158 219L159 220L158 219z"/>
<path style="fill:#fc8e94; stroke:none;" d="M159 219L160 220L159 219z"/>
<path style="fill:#f9b1b5; stroke:none;" d="M162 220L163 221L162 220z"/>
<path style="fill:#f8c8ca; stroke:none;" d="M165 221L166 222L165 221z"/>
<path style="fill:#fc8e94; stroke:none;" d="M166 221L167 222L166 221z"/>
<path style="fill:#f8c8ca; stroke:none;" d="M168 222L169 223L168 222z"/>
<path style="fill:#fc8e94; stroke:none;" d="M169 222L170 223L169 222z"/>
<path style="fill:#f9b1b5; stroke:none;" d="M172 223L173 224L172 223z"/>
<path style="fill:#f8c8ca; stroke:none;" d="M175 224L176 225L175 224z"/>
<path style="fill:#fc8e94; stroke:none;" d="M176 224L177 225L176 224z"/>
<path style="fill:#f8c8ca; stroke:none;" d="M178 225L179 226L178 225z"/>
<path style="fill:#fc8e94; stroke:none;" d="M179 225L180 226L179 225z"/>
<path style="fill:#f9b1b5; stroke:none;" d="M182 226L183 227L182 226z"/>
<path style="fill:#fc8e94; stroke:none;" d="M183 226L184 227L183 226z"/>
<path style="fill:#f8c8ca; stroke:none;" d="M185 227L186 228L185 227z"/>
<path style="fill:#fc8e94; stroke:none;" d="M186 227L187 228L186 227M189 228L190 229L189 228z"/>
<path style="fill:#f9b1b5; stroke:none;" d="M192 229L193 230L192 229z"/>
<path style="fill:#fc8e94; stroke:none;" d="M193 229L194 230L193 229z"/>
<path style="fill:#f8c8ca; stroke:none;" d="M195 230L196 231L195 230z"/>
<path style="fill:#fc8e94; stroke:none;" d="M196 230L197 231L196 230z"/>
<path style="fill:#f9b1b5; stroke:none;" d="M199 231L200 232L199 231z"/>
<path style="fill:#f8c8ca; stroke:none;" d="M202 232L203 233L202 232z"/>
<path style="fill:#fc8e94; stroke:none;" d="M203 232L204 233L203 232z"/>
<path style="fill:#f8c8ca; stroke:none;" d="M205 233L206 234L205 233z"/>
<path style="fill:#fc8e94; stroke:none;" d="M206 233L207 234L206 233z"/>
<path style="fill:#f9b1b5; stroke:none;" d="M209 234L210 235L209 234z"/>
<path style="fill:#f8c8ca; stroke:none;" d="M209 235L210 236L209 235z"/>
<path style="fill:#fc8e94; stroke:none;" d="M210 235L211 236L210 235z"/>
<path style="fill:#f9b1b5; stroke:none;" d="M206 236L207 237L206 236z"/>
<path style="fill:#f8c8ca; stroke:none;" d="M202 237L203 238L202 237z"/>
<path style="fill:#fc8e94; stroke:none;" d="M203 237L204 238L203 237z"/>
<path style="fill:#f9b1b5; stroke:none;" d="M199 238L200 239L199 238z"/>
<path style="fill:#fc8e94; stroke:none;" d="M200 238L201 239L200 238z"/>
<path style="fill:#f8c8ca; stroke:none;" d="M195 239L196 240L195 239z"/>
<path style="fill:#fc8e94; stroke:none;" d="M196 239L197 240L196 239z"/>
<path style="fill:#f8c8ca; stroke:none;" d="M192 240L193 241L192 240z"/>
<path style="fill:#fc8e94; stroke:none;" d="M193 240L194 241L193 240z"/>
<path style="fill:#f9b1b5; stroke:none;" d="M189 241L190 242L189 241z"/>
<path style="fill:#f8c8ca; stroke:none;" d="M185 242L186 243L185 242z"/>
<path style="fill:#fc8e94; stroke:none;" d="M186 242L187 243L186 242z"/>
<path style="fill:#f8c8ca; stroke:none;" d="M182 243L183 244L182 243z"/>
<path style="fill:#fc8e94; stroke:none;" d="M183 243L184 244L183 243z"/>
<path style="fill:#f9b1b5; stroke:none;" d="M179 244L180 245L179 244z"/>
<path style="fill:#f8c8ca; stroke:none;" d="M175 245L176 246L175 245z"/>
<path style="fill:#fc8e94; stroke:none;" d="M176 245L177 246L176 245z"/>
<path style="fill:#f9b1b5; stroke:none;" d="M172 246L173 247L172 246z"/>
<path style="fill:#fc8e94; stroke:none;" d="M173 246L174 247L173 246M169 247L170 248L169 247z"/>
<path style="fill:#f8c8ca; stroke:none;" d="M165 248L166 249L165 248z"/>
<path style="fill:#fc8e94; stroke:none;" d="M166 248L167 249L166 248z"/>
<path style="fill:#f9b1b5; stroke:none;" d="M162 249L163 250L162 249z"/>
<path style="fill:#fc8e94; stroke:none;" d="M163 249L164 250L163 249z"/>
<path style="fill:#f8c8ca; stroke:none;" d="M158 250L159 251L158 250z"/>
<path style="fill:#fc8e94; stroke:none;" d="M159 250L160 251L159 250z"/>
<path style="fill:#f8c8ca; stroke:none;" d="M155 251L156 252L155 251z"/>
<path style="fill:#fc8e94; stroke:none;" d="M156 251L157 252L156 251z"/>
<path style="fill:#f9b1b5; stroke:none;" d="M152 252L153 253L152 252z"/>
<path style="fill:#f8c8ca; stroke:none;" d="M148 253L149 254L148 253z"/>
<path style="fill:#fc8e94; stroke:none;" d="M149 253L150 254L149 253z"/>
<path style="fill:#f8c8ca; stroke:none;" d="M145 254L146 255L145 254z"/>
<path style="fill:#fc8e94; stroke:none;" d="M146 254L147 255L146 254z"/>
<path style="fill:#f9b1b5; stroke:none;" d="M142.333 255.667L142.667 256.333L142.333 255.667z"/>
<path style="fill:#f8c8ca; stroke:none;" d="M145 257L146 258L145 257z"/>
<path style="fill:#fc8e94; stroke:none;" d="M146 257L147 258L146 257z"/>
<path style="fill:#f8c8ca; stroke:none;" d="M148 258L149 259L148 258z"/>
<path style="fill:#fc8e94; stroke:none;" d="M149 258L150 259L149 258z"/>
<path style="fill:#f9b1b5; stroke:none;" d="M152 259L153 260L152 259z"/>
<path style="fill:#f8c8ca; stroke:none;" d="M155 260L156 261L155 260z"/>
<path style="fill:#fc8e94; stroke:none;" d="M156 260L157 261L156 260z"/>
<path style="fill:#f8c8ca; stroke:none;" d="M158 261L159 262L158 261z"/>
<path style="fill:#fc8e94; stroke:none;" d="M159 261L160 262L159 261z"/>
<path style="fill:#f9b1b5; stroke:none;" d="M162 262L163 263L162 262z"/>
<path style="fill:#fc8e94; stroke:none;" d="M163 262L164 263L163 262z"/>
<path style="fill:#f8c8ca; stroke:none;" d="M165 263L166 264L165 263z"/>
<path style="fill:#fc8e94; stroke:none;" d="M166 263L167 264L166 263M169 264L170 265L169 264z"/>
<path style="fill:#f9b1b5; stroke:none;" d="M172 265L173 266L172 265z"/>
<path style="fill:#fc8e94; stroke:none;" d="M173 265L174 266L173 265z"/>
<path style="fill:#f8c8ca; stroke:none;" d="M175 266L176 267L175 266z"/>
<path style="fill:#fc8e94; stroke:none;" d="M176 266L177 267L176 266z"/>
<path style="fill:#f9b1b5; stroke:none;" d="M179 267L180 268L179 267z"/>
<path style="fill:#f8c8ca; stroke:none;" d="M182 268L183 269L182 268z"/>
<path style="fill:#fc8e94; stroke:none;" d="M183 268L184 269L183 268z"/>
<path style="fill:#f8c8ca; stroke:none;" d="M185 269L186 270L185 269z"/>
<path style="fill:#fc8e94; stroke:none;" d="M186 269L187 270L186 269z"/>
<path style="fill:#f9b1b5; stroke:none;" d="M189 270L190 271L189 270z"/>
<path style="fill:#f8c8ca; stroke:none;" d="M192 271L193 272L192 271z"/>
<path style="fill:#fc8e94; stroke:none;" d="M193 271L194 272L193 271z"/>
<path style="fill:#f8c8ca; stroke:none;" d="M195 272L196 273L195 272z"/>
<path style="fill:#fc8e94; stroke:none;" d="M196 272L197 273L196 272z"/>
<path style="fill:#f9b1b5; stroke:none;" d="M199 273L200 274L199 273z"/>
<path style="fill:#fc8e94; stroke:none;" d="M200 273L201 274L200 273z"/>
<path style="fill:#f8c8ca; stroke:none;" d="M202 274L203 275L202 274z"/>
<path style="fill:#fc8e94; stroke:none;" d="M203 274L204 275L203 274z"/>
<path style="fill:#f9b1b5; stroke:none;" d="M206 275L207 276L206 275z"/>
<path style="fill:#f8c8ca; stroke:none;" d="M209 276L210 277L209 276z"/>
<path style="fill:#fc8e94; stroke:none;" d="M210 276L211 277L210 276z"/>
<path style="fill:#f9b1b5; stroke:none;" d="M209 277L210 278L209 277z"/>
<path style="fill:#f8c8ca; stroke:none;" d="M205 278L206 279L205 278z"/>
<path style="fill:#fc8e94; stroke:none;" d="M206 278L207 279L206 278z"/>
<path style="fill:#f8c8ca; stroke:none;" d="M202 279L203 280L202 279z"/>
<path style="fill:#fc8e94; stroke:none;" d="M203 279L204 280L203 279z"/>
<path style="fill:#f9b1b5; stroke:none;" d="M199 280L200 281L199 280z"/>
<path style="fill:#f8c8ca; stroke:none;" d="M195 281L196 282L195 281z"/>
<path style="fill:#fc8e94; stroke:none;" d="M196 281L197 282L196 281z"/>
<path style="fill:#f9b1b5; stroke:none;" d="M192 282L193 283L192 282z"/>
<path style="fill:#fc8e94; stroke:none;" d="M193 282L194 283L193 282M189 283L190 284L189 283z"/>
<path style="fill:#f8c8ca; stroke:none;" d="M185 284L186 285L185 284z"/>
<path style="fill:#fc8e94; stroke:none;" d="M186 284L187 285L186 284z"/>
<path style="fill:#f9b1b5; stroke:none;" d="M182 285L183 286L182 285z"/>
<path style="fill:#fc8e94; stroke:none;" d="M183 285L184 286L183 285z"/>
<path style="fill:#f8c8ca; stroke:none;" d="M178 286L179 287L178 286z"/>
<path style="fill:#fc8e94; stroke:none;" d="M179 286L180 287L179 286z"/>
<path style="fill:#f8c8ca; stroke:none;" d="M175 287L176 288L175 287z"/>
<path style="fill:#fc8e94; stroke:none;" d="M176 287L177 288L176 287z"/>
<path style="fill:#f9b1b5; stroke:none;" d="M172 288L173 289L172 288z"/>
<path style="fill:#f8c8ca; stroke:none;" d="M168 289L169 290L168 289z"/>
<path style="fill:#fc8e94; stroke:none;" d="M169 289L170 290L169 289z"/>
<path style="fill:#f8c8ca; stroke:none;" d="M165 290L166 291L165 290z"/>
<path style="fill:#fc8e94; stroke:none;" d="M166 290L167 291L166 290z"/>
<path style="fill:#f9b1b5; stroke:none;" d="M162 291L163 292L162 291z"/>
<path style="fill:#f8c8ca; stroke:none;" d="M158 292L159 293L158 292z"/>
<path style="fill:#fc8e94; stroke:none;" d="M159 292L160 293L159 292z"/>
<path style="fill:#f9b1b5; stroke:none;" d="M155 293L156 294L155 293z"/>
<path style="fill:#fc8e94; stroke:none;" d="M156 293L157 294L156 293z"/>
<path style="fill:#f8c8ca; stroke:none;" d="M151 294L152 295L151 294z"/>
<path style="fill:#fc8e94; stroke:none;" d="M152 294L153 295L152 294z"/>
<path style="fill:#f8c8ca; stroke:none;" d="M148 295L149 296L148 295z"/>
<path style="fill:#fc8e94; stroke:none;" d="M149 295L150 296L149 295z"/>
<path style="fill:#f9b1b5; stroke:none;" d="M145 296L146 297L145 296z"/>
<path style="fill:#f8c8ca; stroke:none;" d="M141 297L142 298L141 297z"/>
<path style="fill:#fc8e94; stroke:none;" d="M142 297L144 299L142 297z"/>
<path style="fill:#f9b1b5; stroke:none;" d="M142 298L143 299L142 298z"/>
<path style="fill:#f8c8ca; stroke:none;" d="M145 299L146 300L145 299z"/>
<path style="fill:#fc8e94; stroke:none;" d="M146 299L147 300L146 299M149 300L150 301L149 300z"/>
<path style="fill:#f9b1b5; stroke:none;" d="M152 301L153 302L152 301z"/>
<path style="fill:#fc8e94; stroke:none;" d="M153 301L154 302L153 301z"/>
<path style="fill:#f8c8ca; stroke:none;" d="M155 302L156 303L155 302z"/>
<path style="fill:#fc8e94; stroke:none;" d="M156 302L157 303L156 302z"/>
<path style="fill:#f9b1b5; stroke:none;" d="M159 303L160 304L159 303z"/>
<path style="fill:#f8c8ca; stroke:none;" d="M162 304L163 305L162 304z"/>
<path style="fill:#fc8e94; stroke:none;" d="M163 304L164 305L163 304z"/>
<path style="fill:#f8c8ca; stroke:none;" d="M165 305L166 306L165 305z"/>
<path style="fill:#fc8e94; stroke:none;" d="M166 305L167 306L166 305z"/>
<path style="fill:#f9b1b5; stroke:none;" d="M169 306L170 307L169 306z"/>
<path style="fill:#f8c8ca; stroke:none;" d="M172 307L173 308L172 307z"/>
<path style="fill:#fc8e94; stroke:none;" d="M173 307L174 308L173 307z"/>
<path style="fill:#f8c8ca; stroke:none;" d="M175 308L176 309L175 308z"/>
<path style="fill:#fc8e94; stroke:none;" d="M176 308L177 309L176 308z"/>
<path style="fill:#f9b1b5; stroke:none;" d="M179 309L180 310L179 309z"/>
<path style="fill:#fc8e94; stroke:none;" d="M180 309L181 310L180 309z"/>
<path style="fill:#f8c8ca; stroke:none;" d="M182 310L183 311L182 310z"/>
<path style="fill:#fc8e94; stroke:none;" d="M183 310L184 311L183 310z"/>
<path style="fill:#f9b1b5; stroke:none;" d="M186 311L187 312L186 311z"/>
<path style="fill:#f8c8ca; stroke:none;" d="M189 312L190 313L189 312z"/>
<path style="fill:#fc8e94; stroke:none;" d="M190 312L191 313L190 312z"/>
<path style="fill:#f8c8ca; stroke:none;" d="M192 313L193 314L192 313z"/>
<path style="fill:#fc8e94; stroke:none;" d="M193 313L194 314L193 313z"/>
<path style="fill:#f9b1b5; stroke:none;" d="M196 314L197 315L196 314z"/>
<path style="fill:#f8c8ca; stroke:none;" d="M199 315L200 316L199 315z"/>
<path style="fill:#fc8e94; stroke:none;" d="M200 315L201 316L200 315z"/>
<path style="fill:#f8c8ca; stroke:none;" d="M202 316L203 317L202 316z"/>
<path style="fill:#fc8e94; stroke:none;" d="M203 316L204 317L203 316z"/>
<path style="fill:#f9b1b5; stroke:none;" d="M206 317L207 318L206 317z"/>
<path style="fill:#fc8e94; stroke:none;" d="M207 317L208 318L207 317z"/>
<path style="fill:#f8c8ca; stroke:none;" d="M209 318L210 319L209 318z"/>
<path style="fill:#fc8e94; stroke:none;" d="M210 318L211 319L210 318M209 319L210 320L209 319z"/>
<path style="fill:#f8c8ca; stroke:none;" d="M205 320L206 321L205 320z"/>
<path style="fill:#fc8e94; stroke:none;" d="M206 320L207 321L206 320z"/>
<path style="fill:#f9b1b5; stroke:none;" d="M202 321L203 322L202 321z"/>
<path style="fill:#fc8e94; stroke:none;" d="M203 321L204 322L203 321z"/>
<path style="fill:#f8c8ca; stroke:none;" d="M198 322L199 323L198 322z"/>
<path style="fill:#fc8e94; stroke:none;" d="M199 322L200 323L199 322z"/>
<path style="fill:#f8c8ca; stroke:none;" d="M195 323L196 324L195 323z"/>
<path style="fill:#fc8e94; stroke:none;" d="M196 323L197 324L196 323z"/>
<path style="fill:#f9b1b5; stroke:none;" d="M192 324L193 325L192 324z"/>
<path style="fill:#f8c8ca; stroke:none;" d="M188 325L189 326L188 325z"/>
<path style="fill:#fc8e94; stroke:none;" d="M189 325L190 326L189 325z"/>
<path style="fill:#f8c8ca; stroke:none;" d="M185 326L186 327L185 326z"/>
<path style="fill:#fc8e94; stroke:none;" d="M186 326L187 327L186 326z"/>
<path style="fill:#f9b1b5; stroke:none;" d="M182 327L183 328L182 327z"/>
<path style="fill:#f8c8ca; stroke:none;" d="M178 328L179 329L178 328z"/>
<path style="fill:#fc8e94; stroke:none;" d="M179 328L180 329L179 328z"/>
<path style="fill:#f9b1b5; stroke:none;" d="M175 329L176 330L175 329z"/>
<path style="fill:#fc8e94; stroke:none;" d="M176 329L177 330L176 329z"/>
<path style="fill:#f8c8ca; stroke:none;" d="M171 330L172 331L171 330z"/>
<path style="fill:#fc8e94; stroke:none;" d="M172 330L173 331L172 330z"/>
<path style="fill:#f8c8ca; stroke:none;" d="M168 331L169 332L168 331z"/>
<path style="fill:#fc8e94; stroke:none;" d="M169 331L170 332L169 331z"/>
<path style="fill:#f9b1b5; stroke:none;" d="M165 332L166 333L165 332z"/>
<path style="fill:#f8c8ca; stroke:none;" d="M161 333L162 334L161 333z"/>
<path style="fill:#fc8e94; stroke:none;" d="M162 333L163 334L162 333z"/>
<path style="fill:#f8c8ca; stroke:none;" d="M158 334L159 335L158 334z"/>
<path style="fill:#fc8e94; stroke:none;" d="M159 334L160 335L159 334z"/>
<path style="fill:#f9b1b5; stroke:none;" d="M155 335L156 336L155 335z"/>
<path style="fill:#f8c8ca; stroke:none;" d="M151 336L152 337L151 336z"/>
<path style="fill:#fc8e94; stroke:none;" d="M152 336L153 337L152 336z"/>
<path style="fill:#f9b1b5; stroke:none;" d="M148 337L149 338L148 337z"/>
<path style="fill:#fc8e94; stroke:none;" d="M149 337L150 338L149 337M145 338L146 339L145 338z"/>
<path style="fill:#f8c8ca; stroke:none;" d="M141 339L143 341L141 339z"/>
<path style="fill:#fc8e94; stroke:none;" d="M142 339L143 340L142 339M143 340L144 341L143 340z"/>
<path style="fill:#f8c8ca; stroke:none;" d="M145 341L146 342L145 341z"/>
<path style="fill:#fc8e94; stroke:none;" d="M146 341L147 342L146 341z"/>
<path style="fill:#f9b1b5; stroke:none;" d="M149 342L150 343L149 342z"/>
<path style="fill:#f8c8ca; stroke:none;" d="M152 343L153 344L152 343z"/>
<path style="fill:#fc8e94; stroke:none;" d="M153 343L154 344L153 343z"/>
<path style="fill:#f8c8ca; stroke:none;" d="M155 344L156 345L155 344z"/>
<path style="fill:#fc8e94; stroke:none;" d="M156 344L157 345L156 344z"/>
<path style="fill:#f9b1b5; stroke:none;" d="M159 345L160 346L159 345z"/>
<path style="fill:#fc8e94; stroke:none;" d="M160 345L161 346L160 345z"/>
<path style="fill:#f8c8ca; stroke:none;" d="M162 346L163 347L162 346z"/>
<path style="fill:#fc8e94; stroke:none;" d="M163 346L164 347L163 346z"/>
<path style="fill:#f9b1b5; stroke:none;" d="M166 347L167 348L166 347z"/>
<path style="fill:#f8c8ca; stroke:none;" d="M169 348L170 349L169 348z"/>
<path style="fill:#fc8e94; stroke:none;" d="M170 348L171 349L170 348z"/>
<path style="fill:#f8c8ca; stroke:none;" d="M172 349L173 350L172 349z"/>
<path style="fill:#fc8e94; stroke:none;" d="M173 349L174 350L173 349z"/>
<path style="fill:#f9b1b5; stroke:none;" d="M176 350L177 351L176 350z"/>
<path style="fill:#f8c8ca; stroke:none;" d="M179 351L180 352L179 351z"/>
<path style="fill:#fc8e94; stroke:none;" d="M180 351L181 352L180 351z"/>
<path style="fill:#f8c8ca; stroke:none;" d="M182 352L183 353L182 352z"/>
<path style="fill:#fc8e94; stroke:none;" d="M183 352L184 353L183 352z"/>
<path style="fill:#f9b1b5; stroke:none;" d="M186 353L187 354L186 353z"/>
<path style="fill:#fc8e94; stroke:none;" d="M187 353L188 354L187 353z"/>
<path style="fill:#f8c8ca; stroke:none;" d="M189 354L190 355L189 354z"/>
<path style="fill:#fc8e94; stroke:none;" d="M190 354L191 355L190 354z"/>
<path style="fill:#f9b1b5; stroke:none;" d="M193 355L194 356L193 355M196 356L197 357L196 356z"/>
<path style="fill:#fc8e94; stroke:none;" d="M197 356L198 357L197 356z"/>
<path style="fill:#f8c8ca; stroke:none;" d="M199 357L200 358L199 357z"/>
<path style="fill:#fc8e94; stroke:none;" d="M200 357L201 358L200 357z"/>
<path style="fill:#f9b1b5; stroke:none;" d="M203 358L204 359L203 358z"/>
<path style="fill:#f8c8ca; stroke:none;" d="M206 359L207 360L206 359z"/>
<path style="fill:#fc8e94; stroke:none;" d="M207 359L208 360L207 359z"/>
<path style="fill:#f8c8ca; stroke:none;" d="M209 360L208 362L209 360z"/>
<path style="fill:#fc8e94; stroke:none;" d="M210 360L211 361L210 360M209 361L210 362L209 361z"/>
<path style="fill:#f9b1b5; stroke:none;" d="M205 362L206 363L205 362z"/>
<path style="fill:#fc8e94; stroke:none;" d="M206 362L207 363L206 362M202 363L203 364L202 363z"/>
<path style="fill:#f8c8ca; stroke:none;" d="M198 364L199 365L198 364z"/>
<path style="fill:#fc8e94; stroke:none;" d="M199 364L200 365L199 364z"/>
<path style="fill:#f9b1b5; stroke:none;" d="M195 365L196 366L195 365z"/>
<path style="fill:#fc8e94; stroke:none;" d="M196 365L197 366L196 365z"/>
<path style="fill:#f8c8ca; stroke:none;" d="M191 366L192 367L191 366z"/>
<path style="fill:#fc8e94; stroke:none;" d="M192 366L193 367L192 366z"/>
<path style="fill:#f8c8ca; stroke:none;" d="M188 367L189 368L188 367z"/>
<path style="fill:#fc8e94; stroke:none;" d="M189 367L190 368L189 367z"/>
<path style="fill:#f9b1b5; stroke:none;" d="M185 368L186 369L185 368z"/>
<path style="fill:#f8c8ca; stroke:none;" d="M181 369L182 370L181 369z"/>
<path style="fill:#fc8e94; stroke:none;" d="M182 369L183 370L182 369z"/>
<path style="fill:#f8c8ca; stroke:none;" d="M178 370L179 371L178 370z"/>
<path style="fill:#fc8e94; stroke:none;" d="M179 370L180 371L179 370z"/>
<path style="fill:#f9b1b5; stroke:none;" d="M175 371L176 372L175 371z"/>
<path style="fill:#f8c8ca; stroke:none;" d="M171 372L172 373L171 372z"/>
<path style="fill:#fc8e94; stroke:none;" d="M172 372L173 373L172 372z"/>
<path style="fill:#f9b1b5; stroke:none;" d="M168 373L169 374L168 373z"/>
<path style="fill:#fc8e94; stroke:none;" d="M169 373L170 374L169 373z"/>
<path style="fill:#f8c8ca; stroke:none;" d="M164 374L165 375L164 374z"/>
<path style="fill:#fc8e94; stroke:none;" d="M165 374L166 375L165 374z"/>
<path style="fill:#f8c8ca; stroke:none;" d="M161 375L162 376L161 375z"/>
<path style="fill:#fc8e94; stroke:none;" d="M162 375L163 376L162 375z"/>
<path style="fill:#f9b1b5; stroke:none;" d="M158 376L159 377L158 376z"/>
<path style="fill:#f8c8ca; stroke:none;" d="M154 377L155 378L154 377z"/>
<path style="fill:#fc8e94; stroke:none;" d="M155 377L156 378L155 377z"/>
<path style="fill:#f8c8ca; stroke:none;" d="M151 378L152 379L151 378z"/>
<path style="fill:#fc8e94; stroke:none;" d="M152 378L153 379L152 378z"/>
<path style="fill:#f9b1b5; stroke:none;" d="M148 379L149 380L148 379z"/>
<path style="fill:#f8c8ca; stroke:none;" d="M144 380L145 381L144 380z"/>
<path style="fill:#fc8e94; stroke:none;" d="M145 380L146 381L145 380z"/>
<path style="fill:#f8c8ca; stroke:none;" d="M141 381L143 383L141 381z"/>
<path style="fill:#fc8e94; stroke:none;" d="M142 381L143 382L142 381M143 382L144 383L143 382z"/>
<path style="fill:#f9b1b5; stroke:none;" d="M146 383L147 384L146 383z"/>
<path style="fill:#f8c8ca; stroke:none;" d="M149 384L150 385L149 384z"/>
<path style="fill:#fc8e94; stroke:none;" d="M150 384L151 385L150 384z"/>
<path style="fill:#f8c8ca; stroke:none;" d="M152 385L153 386L152 385z"/>
<path style="fill:#fc8e94; stroke:none;" d="M153 385L154 386L153 385z"/>
<path style="fill:#f9b1b5; stroke:none;" d="M156 386L157 387L156 386z"/>
<path style="fill:#fc8e94; stroke:none;" d="M157 386L158 387L157 386z"/>
<path style="fill:#f8c8ca; stroke:none;" d="M159 387L160 388L159 387z"/>
<path style="fill:#fc8e94; stroke:none;" d="M160 387L161 388L160 387M163 388L164 389L163 388z"/>
<path style="fill:#f9b1b5; stroke:none;" d="M166 389L167 390L166 389z"/>
<path style="fill:#fc8e94; stroke:none;" d="M167 389L168 390L167 389z"/>
<path style="fill:#f8c8ca; stroke:none;" d="M169 390L170 391L169 390z"/>
<path style="fill:#fc8e94; stroke:none;" d="M170 390L171 391L170 390z"/>
<path style="fill:#f9b1b5; stroke:none;" d="M173 391L174 392L173 391z"/>
<path style="fill:#f8c8ca; stroke:none;" d="M176 392L177 393L176 392z"/>
<path style="fill:#fc8e94; stroke:none;" d="M177 392L178 393L177 392z"/>
<path style="fill:#f8c8ca; stroke:none;" d="M179 393L180 394L179 393z"/>
<path style="fill:#fc8e94; stroke:none;" d="M180 393L181 394L180 393z"/>
<path style="fill:#f9b1b5; stroke:none;" d="M183 394L184 395L183 394z"/>
<path style="fill:#f8c8ca; stroke:none;" d="M186 395L187 396L186 395z"/>
<path style="fill:#fc8e94; stroke:none;" d="M187 395L188 396L187 395z"/>
<path style="fill:#f8c8ca; stroke:none;" d="M189 396L190 397L189 396z"/>
<path style="fill:#fc8e94; stroke:none;" d="M190 396L191 397L190 396z"/>
<path style="fill:#f9b1b5; stroke:none;" d="M193 397L194 398L193 397z"/>
<path style="fill:#fc8e94; stroke:none;" d="M194 397L195 398L194 397z"/>
<path style="fill:#f8c8ca; stroke:none;" d="M196 398L197 399L196 398z"/>
<path style="fill:#fc8e94; stroke:none;" d="M197 398L198 399L197 398z"/>
<path style="fill:#f9b1b5; stroke:none;" d="M200 399L201 400L200 399z"/>
<path style="fill:#f8c8ca; stroke:none;" d="M203 400L204 401L203 400z"/>
<path style="fill:#fc8e94; stroke:none;" d="M204 400L205 401L204 400z"/>
<path style="fill:#f8c8ca; stroke:none;" d="M206 401L207 402L206 401z"/>
<path style="fill:#fc8e94; stroke:none;" d="M207 401L208 402L207 401z"/>
<path style="fill:#f9b1b5; stroke:none;" d="M210 402L211 403L210 402z"/>
<path style="fill:#f8c8ca; stroke:none;" d="M208 403L209 404L208 403z"/>
<path style="fill:#fc8e94; stroke:none;" d="M209 403L210 404L209 403z"/>
<path style="fill:#f9b1b5; stroke:none;" d="M205 404L206 405L205 404z"/>
<path style="fill:#f8c8ca; stroke:none;" d="M201 405L202 406L201 405z"/>
<path style="fill:#fc8e94; stroke:none;" d="M202 405L203 406L202 405z"/>
<path style="fill:#f9b1b5; stroke:none;" d="M198 406L199 407L198 406z"/>
<path style="fill:#fc8e94; stroke:none;" d="M199 406L200 407L199 406M195 407L196 408L195 407z"/>
<path style="fill:#f8c8ca; stroke:none;" d="M191 408L192 409L191 408z"/>
<path style="fill:#fc8e94; stroke:none;" d="M192 408L193 409L192 408z"/>
<path style="fill:#f9b1b5; stroke:none;" d="M188 409L189 410L188 409z"/>
<path style="fill:#fc8e94; stroke:none;" d="M189 409L190 410L189 409z"/>
<path style="fill:#f8c8ca; stroke:none;" d="M184 410L185 411L184 410z"/>
<path style="fill:#fc8e94; stroke:none;" d="M185 410L186 411L185 410z"/>
<path style="fill:#f8c8ca; stroke:none;" d="M181 411L182 412L181 411z"/>
<path style="fill:#fc8e94; stroke:none;" d="M182 411L183 412L182 411z"/>
<path style="fill:#f9b1b5; stroke:none;" d="M178 412L179 413L178 412z"/>
<path style="fill:#f8c8ca; stroke:none;" d="M174 413L175 414L174 413z"/>
<path style="fill:#fc8e94; stroke:none;" d="M175 413L176 414L175 413z"/>
<path style="fill:#f8c8ca; stroke:none;" d="M171 414L172 415L171 414z"/>
<path style="fill:#fc8e94; stroke:none;" d="M172 414L173 415L172 414z"/>
<path style="fill:#f9b1b5; stroke:none;" d="M168 415L169 416L168 415z"/>
<path style="fill:#f8c8ca; stroke:none;" d="M164 416L165 417L164 416z"/>
<path style="fill:#fc8e94; stroke:none;" d="M165 416L166 417L165 416z"/>
<path style="fill:#f9b1b5; stroke:none;" d="M161 417L162 418L161 417z"/>
<path style="fill:#fc8e94; stroke:none;" d="M162 417L163 418L162 417z"/>
<path style="fill:#f8c8ca; stroke:none;" d="M157 418L158 419L157 418z"/>
<path style="fill:#fc8e94; stroke:none;" d="M158 418L159 419L158 418z"/>
<path style="fill:#f8c8ca; stroke:none;" d="M154 419L155 420L154 419z"/>
<path style="fill:#fc8e94; stroke:none;" d="M155 419L156 420L155 419z"/>
<path style="fill:#f9b1b5; stroke:none;" d="M151 420L152 421L151 420z"/>
<path style="fill:#f8c8ca; stroke:none;" d="M147 421L148 422L147 421z"/>
<path style="fill:#fc8e94; stroke:none;" d="M148 421L149 422L148 421z"/>
<path style="fill:#f8c8ca; stroke:none;" d="M144 422L145 423L144 422z"/>
<path style="fill:#fc8e94; stroke:none;" d="M145 422L146 423L145 422z"/>
<path style="fill:#f8c8ca; stroke:none;" d="M141 423L142 424L141 423z"/>
<path style="fill:#fc8e94; stroke:none;" d="M142 423L143 424L142 423z"/>
</svg>
