<?xml version="1.0" standalone="yes"?>
<svg xmlns="http://www.w3.org/2000/svg" width="512" height="512">
<path style="fill:#fbfbfa; stroke:none;" d="M0 0L0 118L1 118C3.94396 103.962 15.2304 92.8838 29 89.1589C37.8345 86.7691 47.9178 88 57 88L109 88L414 88C444.728 88 502.335 76.6818 511 118L512 118L512 0L0 0z"/>
<path style="fill:#74b003; stroke:none;" d="M0 180C10.6221 177.471 26.3779 177.471 37 180L37 182C26.3779 184.529 10.6221 184.529 0 182L0 186C6.13106 184.54 12.9261 183.851 15 191L23 190L23 189L17 188L17 186C23.8926 184.439 25.9218 187.382 26 194C20.2763 194 13.0107 195.623 11 189L3 189L0 197C7.44045 197 20.5014 194.385 26 200L28 200C33.0376 194.856 49.8215 195.111 55 200L57 200C61.3447 195.563 79.3658 194.394 83 200L86 200L86 197C93.4405 197 106.501 194.385 112 200L114 200C118.345 195.563 136.366 194.394 140 200L143 200L143 197C150.44 197 163.501 194.385 169 200L171 200C176.038 194.856 192.821 195.111 198 200L200 200C204.345 195.563 222.366 194.394 226 200L229 200L229 197C236.44 197 249.501 194.385 255 200L257 200C261.345 195.563 279.366 194.394 283 200L286 200L286 197C293.44 197 306.501 194.385 312 200L314 200C319.305 194.992 335.696 194.992 341 200L343 200C347.345 195.563 365.366 194.394 369 200L372 200L372 197C379.44 197 392.501 194.385 398 200L400 200C404.345 195.563 422.366 194.394 426 200L429 200L429 197C436.44 197 449.501 194.385 455 200L457 200C461.92 194.976 479.08 194.976 484 200L486 200C491.499 194.385 504.56 197 512 197L512 194L498 194C497.128 188.775 493.655 189.016 489 189L489 190L495 194L486 194C486.134 182.692 496.588 188.464 498 180L501 180L501 191L503 191L503 180L506 180C506 184.192 505.175 188.52 509 191C509 187.524 507.602 180.644 512 180C512 154.058 520.856 111.507 495.996 94.598C484.188 86.5663 470.552 88 457 88L385 88L122 88L55 88C41.8428 88 28.6609 86.6081 17.0008 93.9514C-9.05952 110.363 0 153.771 0 180z"/>
<path style="fill:#c1d891; stroke:none;" d="M0 180L0 181L36 180C27.7984 176.558 8.49478 177.489 0 180M40 180L40 181L43 181L40 180M57 180L57 182L94 183L94 182L58 182L58 180L93 180C84.7984 176.558 65.4948 177.489 57 180M98 179L97 184L98 184L98 179M103 180L103 181C106.441 181 105 187.121 105 190L106 190L105 179L103 180M116 179L116 180L150 180L116 179M161 179L160 190L161 190L161 179M167 179L168 194L169 194L167 179M173 179L173 180L208 180L208 182L172 182L172 183L209 182L209 180L173 179M223 180L223 181L226 181L223 180M230 179L230 180L266 181C258.584 175.382 239.214 179 230 179M270 179L271 190L272 190L270 179M281 179L280 190L281 190L281 179M286 180L286 181L322 180C313.798 176.558 294.495 177.489 286 180M326 180L326 181L329 181L326 180M343 180L343 182L380 183L380 182L344 182L344 180L379 180C370.798 176.558 351.495 177.489 343 180M384 179L383 184L384 184L384 179M390 179L391 190L392 190L390 179M402 179L402 180L437 180L437 182C427.786 182 408.416 185.618 401 180L400 180C404.132 186.374 431.022 184.063 438 182L438 180L402 179M447 179L446 190L447 190L447 179M453 179L454 194L455 194L453 179M459 179L459 180L494 180L494 182L458 182L458 183L495 182L495 180L459 179M509 180L509 181L512 181L509 180z"/>
<path style="fill:#fbfbfa; stroke:none;" d="M0 181L0 182L37 182L37 180L0 181M41 180C38.2859 185.837 35.0469 185.995 29 186L29 194L37 194L37 192L31 191L31 189L40 188C40.606 195.778 47.8924 194 54 194L54 180L52 180L52 191C47.5484 188.545 48.0036 184.661 48 180L46 180L45 192L44 192L41 180z"/>
<path style="fill:#c1d891; stroke:none;" d="M48 180L48 190L49 190L48 180M51 180L51 191L52 191L51 180z"/>
<path style="fill:#fbfbfa; stroke:none;" d="M58 180L58 182L94 182L94 180L58 180M98 180C96.6203 186.616 91.7678 185.999 86 186L86 194L94 194L94 192L88 189C93.3028 187.755 96.787 188.183 98 194L111 194L111 180L109 180L108 192L105 180L104 180L102 192L101 192L100 180L98 180z"/>
<path style="fill:#c1d891; stroke:none;" d="M111 180L111 193L112 193L111 180M114 180C117.575 185.514 148.425 185.514 152 180L151 180C144.691 184.78 120.852 183.811 114 180z"/>
<path style="fill:#fbfbfa; stroke:none;" d="M115 180L115 182L151 182L151 180L115 180z"/>
<path style="fill:#c1d891; stroke:none;" d="M154 180L154 185L144 185L144 186C148.467 186 156.564 186.748 154 180z"/>
<path style="fill:#fbfbfa; stroke:none;" d="M155 180C153.931 186.702 148.663 185.999 143 186C143.075 192.301 144.699 193.925 151 194L151 192L146 188C151.007 188.059 154.138 188.594 155 194L168 194L168 180L166 180L165 192L164 192L163 180L161 180L158 192L157 180L155 180M172 180L172 182L208 182L208 180L172 180M212 180C210.994 186.306 206.468 185.996 201 186L201 194L208 194L208 192L203 191L203 189C208.007 187.866 211.129 188.54 212 194C222.875 194 228.691 192.487 225 180L224 180L222 192L221 192L220 180L218 180C217.996 184.661 218.452 188.545 214 191L214 180L212 180z"/>
<path style="fill:#c1d891; stroke:none;" d="M214 180L214 191L215 191L214 180M217 180L217 190L218 190L217 180z"/>
<path style="fill:#fbfbfa; stroke:none;" d="M229 180L229 182L266 182C258.436 176.27 238.408 180 229 180M269 180C267.994 186.306 263.468 185.996 258 186L258 194L266 193L266 192L260 191L260 189C266.621 187.501 282.704 202.326 282.995 187.001C283.04 184.669 283 182.332 283 180L281 180C280.996 184.661 281.452 188.545 277 191L277 180L275 180L275 191C270.548 188.545 271.004 184.661 271 180L269 180M286 181L286 182L323 182L323 180L286 181M327 180C324.286 185.837 321.047 185.995 315 186L315 194L323 194L323 192L317 191L317 189L326 188C326.606 195.778 333.892 194 340 194L340 180L338 180L338 191C333.548 188.545 334.004 184.661 334 180L332 180L331 192L330 192L327 180z"/>
<path style="fill:#c1d891; stroke:none;" d="M334 180L334 190L335 190L334 180M337 180L337 191L338 191L337 180z"/>
<path style="fill:#fbfbfa; stroke:none;" d="M344 180L344 182L380 182L380 180L344 180M384 180C382.62 186.616 377.768 185.999 372 186C372.075 192.301 373.699 193.925 380 194L380 192L375 188C380.046 188.06 382.893 188.694 384 194L397 194L397 180L395 180L394 192L391 180L389 180L388 192L387 192L386 180L384 180z"/>
<path style="fill:#c1d891; stroke:none;" d="M397 180L397 193L398 193L397 180z"/>
<path style="fill:#fbfbfa; stroke:none;" d="M401 180L401 182L437 182L437 180L401 180z"/>
<path style="fill:#c1d891; stroke:none;" d="M440 180L440 185L430 185L430 186C434.467 186 442.564 186.748 440 180z"/>
<path style="fill:#fbfbfa; stroke:none;" d="M441 180C439.931 186.702 434.663 185.999 429 186C429.075 192.301 430.699 193.925 437 194L437 192L432 188C437.007 188.059 440.138 188.594 441 194L454 194L454 180L452 180L451 192L450 192L449 180L447 180L444 192L443 180L441 180M458 180L458 182L494 182L494 180L458 180M498 180C496.994 186.306 492.468 185.996 487 186L487 194L494 194L494 192L489 191L489 189C494.007 187.866 497.129 188.54 498 194C508.875 194 514.691 192.487 511 180L510 180L508 192L507 192L506 180L504 180L504 191L500 191L500 180L498 180z"/>
<path style="fill:#c1d891; stroke:none;" d="M500 180L500 191L501 191L500 180M503 180L503 191L504 191L503 180M54 181L54 193L55 193L54 181M157 181L157 191L158 191L157 181M211 181L211 185L212 185L211 181M274 181L274 191L275 191L274 181M277 181L277 191L278 191L277 181M340 181L340 193L341 193L340 181M443 181L443 191L444 191L443 181M1 182L1 183L36 183L1 182M230 182L230 183L265 183L230 182M287 182L287 183L322 183L287 182M268 184L269 185L268 184M497 184L498 185L497 184M1 185L1 186L13 186L1 185M17 186L17 188L22 189L22 188L18 188L18 186L25 186L25 194C27.8541 187.182 23.3817 184.135 17 186M29 185L29 186L39 186L29 185M57 194L58 194L58 186L71 186L71 191C73.52 184.367 62.5825 182.88 58.6034 186.028C56.4349 187.743 57.0086 191.576 57 194M74 188L75 188L83 187C79.772 184.558 76.2975 184.457 74 188M87 185L87 186L97 186L87 185M114 193L115 193L115 186L128 186L128 190C129.96 184.018 118.999 183.352 115.603 186.028C113.627 187.585 114.026 190.788 114 193M132 185L132 186L139 186L132 185M172 185L172 186L186 187L172 185M190 185L190 186L197 186L190 185M201 185L201 186L211 186L201 185M230 185L230 186L242 186L230 185M247 185L247 186L254 186L254 193C256.549 186.859 252.488 185.065 247 185M258 185L258 186L268 186L258 185M287 185L287 186L299 186L287 185M303 186L303 188L308 189L308 188L304 188L304 186L311 186L311 194C313.854 187.182 309.382 184.135 303 186M315 185L315 186L325 186L315 185M343 194L344 194L344 186L357 186L357 191C359.52 184.367 348.582 182.88 344.603 186.028C342.435 187.743 343.009 191.576 343 194M360 188L361 188L369 187C365.772 184.558 362.298 184.457 360 188M373 185L373 186L383 186L373 185M400 193L401 193L401 186L414 186L414 190C415.96 184.018 404.999 183.352 401.603 186.028C399.627 187.585 400.026 190.788 400 193M418 185L418 186L425 186L418 185M458 185L458 186L472 187L458 185M476 185L476 186L483 186L476 185M487 185L487 186L497 186L487 185z"/>
<path style="fill:#fbfbfa; stroke:none;" d="M0 186L1 194L2 194L3 188C8.00652 188.059 11.1379 188.594 12 194L25 194L25 186L18 186L18 188L23 189L23 191C17.9928 192.134 14.8707 191.46 14 186L0 186M58 186L58 194L59 194C61.7161 188.159 67.74 186.099 69 194C72.4149 194 77.5514 194.939 80.6821 193.397C87.7857 189.896 78.3681 186.04 75 186L75 188L80 188C77.032 193.364 71.9246 191.664 71 186L58 186M115 186L115 194L117 194C119.279 179.71 139.759 206.304 140 186L132 186L132 188L138 189C133.367 192.278 129.678 191.782 128 186L115 186M172 186L172 194L174 194C174.862 188.594 177.993 188.059 183 188C183.606 195.778 190.892 194 197 194L197 186L189 186L189 188L195 189L195 191L183.701 186.603L172 186z"/>
<path style="fill:#c1d891; stroke:none;" d="M200 186L200 194L201 194L200 186z"/>
<path style="fill:#fbfbfa; stroke:none;" d="M229 186L229 194L231 194C232.179 186.605 239.523 186.917 241 194L254 194L254 186L246 186L246 188L252 189L252 191C246.993 192.134 243.871 191.46 243 186L229 186z"/>
<path style="fill:#c1d891; stroke:none;" d="M257 186L257 193L258 193L257 186z"/>
<path style="fill:#fbfbfa; stroke:none;" d="M286 186L287 194L288 194L289 188C294.007 188.059 297.138 188.594 298 194L311 194L311 186L304 186L304 188L309 189L309 191C303.993 192.134 300.871 191.46 300 186L286 186M344 186L344 194L345 194C347.716 188.159 353.74 186.099 355 194C358.415 194 363.551 194.939 366.682 193.397C373.786 189.896 364.368 186.04 361 186L361 188L366 188C363.032 193.364 357.925 191.664 357 186L344 186M401 186L401 194L403 194C404.114 187.017 410.886 187.017 412 194C419.741 194 425.888 195.412 426 186L418 186L418 188L424 189C419.367 192.278 415.678 191.782 414 186L401 186M458 186L458 194L460 194C460.862 188.594 463.993 188.059 469 188C469.606 195.778 476.893 194 483 194L483 186L475 186L475 188L481 189L481 191L469.701 186.603L458 186z"/>
<path style="fill:#c1d891; stroke:none;" d="M486 186L486 194L487 194L486 186M14 187L14 191L15 191L14 187M28 187L28 193L29 193L28 187M171 187L171 193L172 193L171 187M197 187L197 193L198 193L197 187M300 187L300 191L301 191L300 187M314 187L314 193L315 193L314 187M457 187L457 193L458 193L457 187M483 187L483 193L484 193L483 187M3 188L3 189L11 189L3 188M32 188L32 189L40 189L32 188M61 188L61 189L68 189L61 188M76 188L76 189L80 189L76 188M89 188L89 189L97 189L89 188M118 188L118 189L125 189L118 188M133 188L133 189L137 189L133 188M146 188L146 189L154 189L146 188M175 188L175 189L183 189L175 188M190 188L190 189L194 189L190 188M204 188L204 189L211 189L204 188M232 188L232 189L240 189L232 188M247 188L247 189L251 189L247 188M261 188L261 189L268 189L261 188M289 188L289 189L297 189L289 188M318 188L318 189L326 189L318 188M347 188L347 189L354 189L347 188M362 188L362 189L366 189L362 188M375 188L375 189L383 189L375 188M404 188L404 189L411 189L404 188M419 188L419 189L423 189L419 188M432 188L432 189L440 189L432 188M461 188L461 189L469 189L461 188M476 188L476 189L480 189L476 188M490 188L490 189L497 189L490 188M11 189L11 193L12 193L11 189M31.3333 189.667L31.6667 190.333L31.3333 189.667M68 189L68 193L69 193L68 189M88 189L89 190L88 189M117 189L118 190L117 189M137 189L138 190L137 189M154 189L154 193L155 193L154 189M174 189L174 193L175 193L174 189M194.333 189.667L194.667 190.333L194.333 189.667M211 189L211 193L212 193L211 189M231 189L231 194L232 194L231 189M251.333 189.667L251.667 190.333L251.333 189.667M260.333 189.667L260.667 190.333L260.333 189.667M297 189L297 193L298 193L297 189M317.333 189.667L317.667 190.333L317.333 189.667M354 189L354 193L355 193L354 189M403 189L404 190L403 189M411 189L412 190L411 189M423 189L424 190L423 189M440 189L440 193L441 193L440 189M460 189L460 193L461 193L460 189M480.333 189.667L480.667 190.333L480.333 189.667M497 189L498 190L497 189M22 190L23 191L22 190M45 190L46 191L45 190M97 190L97 194L98 194L97 190M100 190L101 191L100 190M108 190L109 191L108 190M163 190L164 191L163 190M165 190L166 191L165 190M203 190L204 191L203 190M220 190L221 191L220 190M240 190L240 194L241 194L240 190M243 190L244 191L243 190M308 190L309 191L308 190M331 190L332 191L331 190M383 190L383 194L384 194L383 190M386 190L387 191L386 190M394 190L395 191L394 190M451 190L452 191L451 190M489 190L490 191L489 190M506 190L507 191L506 190M6 191L6 192L9 193L6 191M15 191L15 192L22 192L15 191M33 191L33 192L37 192L33 191M44 191L45 192L44 191M64 191L65 194L66 194L64 191M73 191L73 192L79 192L73 191M90 191L90 192L94 192L90 191M101 191L102 192L101 191M107 191L108 192L107 191M121 191L120 194L121 194L121 191M130 191L130 192L136 192L130 191M147 191L147 192L151 192L147 191M158 191L159 192L158 191M164 191L165 192L164 191M177 194L178 194L180 192L177 194M187 191L187 192L193 192L187 191M204 191L204 192L208 192L204 191M221 191L222 192L221 191M234 193L237 192L234 193M244 191L244 192L251 192L244 191M261 191L261 192L265 192L261 191M292 191L292 192L295 193L292 191M301 191L301 192L308 192L301 191M319 191L319 192L323 192L319 191M330 191L331 192L330 191M349 191L349 192L351 194L352 194L349 191M359 191L359 192L365 192L359 191M376 191L376 192L380 192L376 191M387 191L388 192L387 191M393 191L394 192L393 191M407 191L406 194L407 194L407 191M416 191L416 192L422 192L416 191M433 191L433 192L437 192L433 191M444 191L445 192L444 191M450 191L451 192L450 191M463 194L464 194L466 192L463 194M473 191L473 192L479 192L473 191M490 191L490 192L494 192L490 191M507 191L508 192L507 191z"/>
<path style="fill:#fbfbfa; stroke:none;" d="M6 192L6 194L8 194L8 192L6 192M63 192L65 194L65 192L63 192M121 192L121 194L123 192L121 192z"/>
<path style="fill:#c1d891; stroke:none;" d="M151.333 192.667L151.667 193.333L151.333 192.667z"/>
<path style="fill:#fbfbfa; stroke:none;" d="M178 192L178 194L180 194L180 192L178 192z"/>
<path style="fill:#c1d891; stroke:none;" d="M208.333 192.667L208.667 193.333L208.333 192.667z"/>
<path style="fill:#fbfbfa; stroke:none;" d="M235 192L235 194L237 194L237 192L235 192M292 192L292 194L294 194L294 192L292 192M349 192L351 194L351 192L349 192M407 192L407 194L409 192L407 192z"/>
<path style="fill:#c1d891; stroke:none;" d="M437.333 192.667L437.667 193.333L437.333 192.667z"/>
<path style="fill:#fbfbfa; stroke:none;" d="M464 192L464 194L466 194L466 192L464 192z"/>
<path style="fill:#c1d891; stroke:none;" d="M494.333 192.667L494.667 193.333L494.333 192.667M0 193L1 194L0 193M2 193L3 194L2 193M40 193L41 194L40 193M59 193L60 194L59 193M63 193L64 194L63 193M82 193L83 194L82 193M122 193L123 194L122 193M126 193L127 194L126 193M139 193L140 194L139 193M143 193L144 194L143 193M183 193L184 194L183 193M225 193L226 194L225 193M265 193L266 194L265 193M269 193L270 194L269 193M282 193L283 194L282 193M286 193L287 194L286 193M288 193L289 194L288 193M326 193L327 194L326 193M345 193L346 194L345 193M349 193L350 194L349 193M368 193L369 194L368 193M372 193L373 194L372 193M408 193L409 194L408 193M425 193L426 194L425 193M429 193L430 194L429 193M469 193L470 194L469 193M511 193L512 194L511 193M0 197L0 198C7.05114 198 19.2438 195.639 25 200C25.81 195.086 4.09716 197 0 197M28 200L29 200C34.7562 195.639 46.9489 198 54 198C48.6178 195.742 31.3669 194.807 28 200M57 200L58 200C63.7562 195.639 75.9489 198 83 198C77.6178 195.742 60.3669 194.807 57 200M86 197L86 198C93.0511 198 105.244 195.639 111 200C111.81 195.086 90.0972 197 86 197M114 200L115 200C120.756 195.639 132.949 198 140 198C134.618 195.742 117.367 194.807 114 200M143 197L143 198C150.051 198 162.244 195.639 168 200C168.81 195.086 147.097 197 143 197M171 200L172 200C177.756 195.639 189.949 198 197 198C191.618 195.742 174.367 194.807 171 200M200 200L201 200C206.756 195.639 218.949 198 226 198C220.618 195.742 203.367 194.807 200 200M229 197L229 198C236.051 198 248.244 195.639 254 200C254.81 195.086 233.097 197 229 197M257 200L258 200C263.756 195.639 275.949 198 283 198C277.618 195.742 260.367 194.807 257 200M286 197L286 198C293.051 198 305.244 195.639 311 200C311.81 195.086 290.097 197 286 197M315 197L315 198L340 198L315 197M343 200L344 200C349.756 195.639 361.949 198 369 198C363.618 195.742 346.367 194.807 343 200M372 197L372 198C379.051 198 391.244 195.639 397 200C397.81 195.086 376.097 197 372 197M400 200L401 200C406.756 195.639 418.949 198 426 198C420.618 195.742 403.367 194.807 400 200M429 197L429 198C436.051 198 448.244 195.639 454 200C454.81 195.086 433.097 197 429 197M457 200L458 200C462.833 196.339 478.167 196.339 483 200C483.762 195.377 459.56 195.349 457 200M486 200L487 200C492.756 195.639 504.949 198 512 198C506.618 195.742 489.367 194.807 486 200z"/>
<path style="fill:#fbfbfa; stroke:none;" d="M0 198L0 283C0 289.689 -3.22986 307.995 1.02778 313.258C5.37823 318.635 20.7805 314.09 26.196 313.178C29.1671 312.678 32.7991 314.936 36.0008 314.995C42.7907 315.12 49.647 313.09 56 313.09C66.9712 313.09 74.9539 316.488 86 312C88.6172 316.037 93.6064 315 98 315C103.114 315 108.256 313.09 113 313.09C119.983 313.09 135.039 319.653 140 312C150.512 316.271 161.428 316.133 172 312C174.958 316.563 182.097 315.002 187 315C191.165 314.998 195.151 313.09 199 313.09C209.971 313.09 217.954 316.488 229 312C233.961 319.653 249.018 313.09 256 313.09C260.744 313.09 265.886 315 271 315C275.394 315 280.383 316.037 283 312C293.512 316.271 304.428 316.133 315 312C317.958 316.563 325.097 315.002 330 315C334.165 314.998 338.151 313.09 342 313.09C352.971 313.09 360.954 316.488 372 312C374.617 316.037 379.606 315 384 315C389.114 315 394.256 313.09 399 313.09C405.982 313.09 421.039 319.653 426 312C437.046 316.488 445.029 313.09 456 313.09C462.353 313.09 469.209 315.12 475.999 314.995C479.201 314.936 482.833 312.678 485.804 313.178C491.22 314.09 506.622 318.635 510.972 313.258C515.23 307.995 512 289.689 512 283L512 198L0 198z"/>
<path style="fill:#c1d891; stroke:none;" d="M54 199L55 200L54 199M197 199L198 200L197 199M314 199L315 200L314 199M340 199L341 200L340 199z"/>
<path style="fill:#fb9aa0; stroke:none;" d="M243 205L246 208L243 205M268 205L266 208L268 205z"/>
<path style="fill:#ff4c55; stroke:none;" d="M243 206C245.869 216.893 266.648 217.551 269 206C261.235 209.902 250.765 209.902 243 206z"/>
<path style="fill:#c1d891; stroke:none;" d="M255.667 207.333L256.333 207.667L255.667 207.333z"/>
<path style="fill:#fb9aa0; stroke:none;" d="M243.333 208.667L243.667 209.333L243.333 208.667M247 208L248 209L247 208M253 208L254 209L253 208M258 208L259 209L258 208M264 208L265 209L264 208M268 209L269 210L268 209M244 211L245 212L244 211M267 211L268 212L267 211M245 212L246 213L245 212M255.667 212.333L256.333 212.667L255.667 212.333M266 212L267 213L266 212z"/>
<path style="fill:#c1d891; stroke:none;" d="M246 213L247 214L246 213z"/>
<path style="fill:#fb9aa0; stroke:none;" d="M247 213L248 214L247 213M254 213L255 214L254 213z"/>
<path style="fill:#c1d891; stroke:none;" d="M257 213L258 214L257 213z"/>
<path style="fill:#fb9aa0; stroke:none;" d="M264 213L265 214L264 213M249 214L249 215L252 215L249 214z"/>
<path style="fill:#c1d891; stroke:none;" d="M252 214L253 215L252 214z"/>
<path style="fill:#fb9aa0; stroke:none;" d="M260 214L260 215L263 215L260 214M229 216L229 217L232 217L229 216M280 216L280 217L283 217L280 216M227 217L228 218L227 217z"/>
<path style="fill:#ff4c55; stroke:none;" d="M223 288C213.684 270.496 208.83 252.818 218.373 234C221.648 227.542 226.901 222.825 231 217C200.831 222.445 193.535 276.553 223 288z"/>
<path style="fill:#c1d891; stroke:none;" d="M231 217L232 218L231 217z"/>
<path style="fill:#fb9aa0; stroke:none;" d="M255.667 217.333L256.333 217.667L255.667 217.333z"/>
<path style="fill:#ff4c55; stroke:none;" d="M281 217C284.876 222.508 289.837 227.003 293.1 233C303.448 252.02 298.497 270.156 289 288C318.487 276.575 311.213 222.453 281 217z"/>
<path style="fill:#fb9aa0; stroke:none;" d="M284 217L285 218L284 217M225 218L226 219L225 218z"/>
<path style="fill:#c1d891; stroke:none;" d="M230 218L231 219L230 218z"/>
<path style="fill:#fb9aa0; stroke:none;" d="M253 218L252 220L253 218z"/>
<path style="fill:#ff4c55; stroke:none;" d="M251 288C225.762 270.22 229.759 245.146 237 220C210.023 240.821 223.471 279.945 247 296L228 299L228 300C235.752 300.981 251.061 298.981 255 306L257 306C260.939 298.981 276.248 300.981 284 300L284 299L265 296L265 295C292.917 284.203 298.332 238.007 275 220C282.253 245.187 286.288 270.185 261 288C261 270.28 262 252.72 262 235C262 229.948 263.924 218.557 256 218.557C248.076 218.557 250 229.948 250 235C250 252.714 251 270.276 251 288z"/>
<path style="fill:#fb9aa0; stroke:none;" d="M258 218L259 219L258 218M286 218L287 219L286 218M223 219L224 220L223 219z"/>
<path style="fill:#c1d891; stroke:none;" d="M236 219L237 220L236 219z"/>
<path style="fill:#fb9aa0; stroke:none;" d="M237.333 219.667L237.667 220.333L237.333 219.667M259 219L260 220L259 219M274.333 219.667L274.667 220.333L274.333 219.667z"/>
<path style="fill:#c1d891; stroke:none;" d="M275 219L276 220L275 219z"/>
<path style="fill:#fb9aa0; stroke:none;" d="M288 219L289 220L288 219M222 220L223 221L222 220M289 220L290 221L289 220z"/>
<path style="fill:#c1d891; stroke:none;" d="M220 221L221 222L220 221M291 221L292 222L291 221z"/>
<path style="fill:#fb9aa0; stroke:none;" d="M219 222L220 223L219 222M236 222L237 223L236 222z"/>
<path style="fill:#c1d891; stroke:none;" d="M262 222L263 223L262 222z"/>
<path style="fill:#fb9aa0; stroke:none;" d="M275 222L276 223L275 222M292 222L293 223L292 222M218 223L219 224L218 223M249.333 223.667L249.667 224.333L249.333 223.667M262 223L262 229L263 229L262 223z"/>
<path style="fill:#c1d891; stroke:none;" d="M286 223L287 224L286 223z"/>
<path style="fill:#fb9aa0; stroke:none;" d="M217 224L218 225L217 224z"/>
<path style="fill:#c1d891; stroke:none;" d="M224 224L225 225L224 224z"/>
<path style="fill:#fb9aa0; stroke:none;" d="M232 224L233 225L232 224M235 224L236 225L235 224M276 224L277 225L276 224M279 224L280 225L279 224M287 224L288 225L287 224M216 225L217 226L216 225M223 225L224 226L223 225M231 225L232 226L231 225z"/>
<path style="fill:#c1d891; stroke:none;" d="M249 225L249 230L250 230L249 225z"/>
<path style="fill:#fb9aa0; stroke:none;" d="M280 225L281 226L280 225M288 225L289 226L288 225M295 225L296 226L295 225M215 226L216 227L215 226M234 226L235 227L234 226M277 226L278 227L277 226M296 226L297 227L296 226M214 227L215 228L214 227z"/>
<path style="fill:#c1d891; stroke:none;" d="M222 227L223 228L222 227z"/>
<path style="fill:#fb9aa0; stroke:none;" d="M230 227L231 228L230 227M281 227L282 228L281 227z"/>
<path style="fill:#c1d891; stroke:none;" d="M289 227L290 228L289 227z"/>
<path style="fill:#fb9aa0; stroke:none;" d="M297 227L298 228L297 227M213 228L214 229L213 228M221 228L222 229L221 228M229 228L230 229L229 228M233 228L234 229L233 228M278 228L279 229L278 228M282 228L283 229L282 228M290 228L291 229L290 228M298 228L299 229L298 228M212 229L213 230L212 229z"/>
<path style="fill:#c1d891; stroke:none;" d="M233 229L234 230L233 229M262 229L262 233L263 233L262 229M278 229L279 230L278 229z"/>
<path style="fill:#fb9aa0; stroke:none;" d="M299 229L300 230L299 229z"/>
<path style="fill:#c1d891; stroke:none;" d="M220 230L221 231L220 230z"/>
<path style="fill:#fb9aa0; stroke:none;" d="M228 230L229 231L228 230M283 230L284 231L283 230z"/>
<path style="fill:#c1d891; stroke:none;" d="M291 230L292 231L291 230z"/>
<path style="fill:#fb9aa0; stroke:none;" d="M211 231L212 232L211 231M219 231L220 232L219 231z"/>
<path style="fill:#c1d891; stroke:none;" d="M227 231L228 232L227 231z"/>
<path style="fill:#fb9aa0; stroke:none;" d="M232.333 231.667L232.667 232.333L232.333 231.667M279.333 231.667L279.667 232.333L279.333 231.667z"/>
<path style="fill:#c1d891; stroke:none;" d="M284 231L285 232L284 231z"/>
<path style="fill:#fb9aa0; stroke:none;" d="M292 231L293 232L292 231M210 232L211 233L210 232M227 232L228 233L227 232M284 232L285 233L284 232M301 232L302 233L301 232M218 233L219 234L218 233M293 233L294 234L293 233M209 234L210 235L209 234M226 234L227 235L226 234M285 234L286 235L285 234M302 234L303 235L302 234M208.333 235.667L208.667 236.333L208.333 235.667M217 235L218 236L217 235M231.333 235.667L231.667 236.333L231.333 235.667M280.333 235.667L280.667 236.333L280.333 235.667M294 235L295 236L294 235M303.333 235.667L303.667 236.333L303.333 235.667z"/>
<path style="fill:#c1d891; stroke:none;" d="M217 236L218 237L217 236z"/>
<path style="fill:#fb9aa0; stroke:none;" d="M225 236L226 237L225 236M286 236L287 237L286 236z"/>
<path style="fill:#c1d891; stroke:none;" d="M294 236L295 237L294 236z"/>
<path style="fill:#fb9aa0; stroke:none;" d="M207 238L208 239L207 238M216 238L217 239L216 238z"/>
<path style="fill:#c1d891; stroke:none;" d="M224 238L225 239L224 238M287 238L288 239L287 238z"/>
<path style="fill:#fb9aa0; stroke:none;" d="M295 238L296 239L295 238M304 238L305 239L304 238M224 239L225 240L224 239M230 239L230 245L231 245L230 239M281 239L281 245L282 245L281 239M287 239L288 240L287 239M206 240L207 241L206 240M215 240L216 241L215 240M296 240L297 241L296 240M305 240L306 241L305 240z"/>
<path style="fill:#c1d891; stroke:none;" d="M215 241L216 242L215 241M296 241L297 242L296 241M205 242L206 243L205 242z"/>
<path style="fill:#fb9aa0; stroke:none;" d="M223.333 242.667L223.667 243.333L223.333 242.667M288.333 242.667L288.667 243.333L288.333 242.667z"/>
<path style="fill:#c1d891; stroke:none;" d="M306 242L307 243L306 242z"/>
<path style="fill:#fb9aa0; stroke:none;" d="M205.333 243.667L205.667 244.333L205.333 243.667M306.333 243.667L306.667 244.333L306.333 243.667M214.333 244.667L214.667 245.333L214.333 244.667M297.333 244.667L297.667 245.333L297.333 244.667z"/>
<path style="fill:#c1d891; stroke:none;" d="M230 245L231 246L230 245M281 245L282 246L281 245z"/>
<path style="fill:#fb9aa0; stroke:none;" d="M204 247L204 250L205 250L204 247M222 247L222 251L223 251L222 247M289 247L289 251L290 251L289 247M307 247L307 250L308 250L307 247M213.333 248.667L213.667 249.333L213.333 248.667M298.333 248.667L298.667 249.333L298.333 248.667M230 249L230 254L231 254L230 249M281 249L281 255L282 255L281 249z"/>
<path style="fill:#c1d891; stroke:none;" d="M213.333 250.667L213.667 251.333L213.333 250.667M298 250L299 251L298 250M231 257L232 258L231 257z"/>
<path style="fill:#fb9aa0; stroke:none;" d="M222 258L222 261L223 261L222 258M231 258L232 259L231 258M280 258L281 259L280 258M289 258L289 261L290 261L289 258M204 259L204 262L205 262L204 259M250 259L249 288C253.354 284.195 252.193 264.226 250 259M307 259L307 262L308 262L307 259z"/>
<path style="fill:#c1d891; stroke:none;" d="M222 261L223 262L222 261z"/>
<path style="fill:#fb9aa0; stroke:none;" d="M232.333 261.667L232.667 262.333L232.333 261.667M261 261C261 267.32 258.126 283.741 263 288L261 261M279.333 261.667L279.667 262.333L279.333 261.667M213 262L213 265L214 265L213 262M298 262L298 266L299 266L298 262M205 264L205 267L206 267L205 264M223.333 264.667L223.667 265.333L223.333 264.667z"/>
<path style="fill:#c1d891; stroke:none;" d="M233 264L234 265L233 264z"/>
<path style="fill:#fb9aa0; stroke:none;" d="M288.333 264.667L288.667 265.333L288.333 264.667M306 264L306 267L307 267L306 264M233 265L234 266L233 265M278 265L279 266L278 265M234 267L235 268L234 267M277 267L278 268L277 267M206 268L207 269L206 268z"/>
<path style="fill:#c1d891; stroke:none;" d="M214 268L215 269L214 268z"/>
<path style="fill:#fb9aa0; stroke:none;" d="M224 268L225 269L224 268M287 268L288 269L287 268z"/>
<path style="fill:#c1d891; stroke:none;" d="M297 268L298 269L297 268z"/>
<path style="fill:#fb9aa0; stroke:none;" d="M305 268L306 269L305 268M214 269L215 270L214 269z"/>
<path style="fill:#c1d891; stroke:none;" d="M224 269L225 270L224 269z"/>
<path style="fill:#fb9aa0; stroke:none;" d="M235 269L236 270L235 269M276 269L277 270L276 269z"/>
<path style="fill:#c1d891; stroke:none;" d="M287 269L288 270L287 269z"/>
<path style="fill:#fb9aa0; stroke:none;" d="M297.333 269.667L297.667 270.333L297.333 269.667M207 270L208 271L207 270M304.333 270.667L304.667 271.333L304.333 270.667z"/>
<path style="fill:#c1d891; stroke:none;" d="M207 271L208 272L207 271z"/>
<path style="fill:#fb9aa0; stroke:none;" d="M225 271L226 272L225 271M236 271L237 272L236 271M275 271L276 272L275 271M286 271L287 272L286 271M215 272L216 273L215 272M296 272L297 273L296 272M208 273L209 274L208 273M226 273L227 274L226 273M237 273L238 274L237 273M274 273L275 274L274 273M285 273L286 274L285 273M303 273L304 274L303 273M216 275L217 276L216 275M227 275L228 276L227 275M238 275L239 276L238 275M273 275L274 276L273 275M284 275L285 276L284 275M295 275L296 276L295 275M210 276L211 277L210 276M239 276L240 277L239 276M272 276L273 277L272 276M301 276L302 277L301 276z"/>
<path style="fill:#c1d891; stroke:none;" d="M217 277L218 278L217 277z"/>
<path style="fill:#fb9aa0; stroke:none;" d="M228 277L229 278L228 277z"/>
<path style="fill:#c1d891; stroke:none;" d="M240 277L241 278L240 277M271 277L272 278L271 277z"/>
<path style="fill:#fb9aa0; stroke:none;" d="M283 277L284 278L283 277z"/>
<path style="fill:#c1d891; stroke:none;" d="M294 277L295 278L294 277M211 278L212 279L211 278z"/>
<path style="fill:#fb9aa0; stroke:none;" d="M217 278L218 279L217 278M294 278L295 279L294 278z"/>
<path style="fill:#c1d891; stroke:none;" d="M300 278L301 279L300 278z"/>
<path style="fill:#fb9aa0; stroke:none;" d="M212 279L213 280L212 279M229 279L230 280L229 279M241 279L242 280L241 279M270 279L271 280L270 279M282 279L283 280L282 279M299 279L300 280L299 279M213 280L214 281L213 280M218 280L219 281L218 280M230 280L231 281L230 280M242 280L243 281L242 280M269 280L270 281L269 280M281 280L282 281L281 280M293 280L294 281L293 280M214 281L215 282L214 281M219 281L220 282L219 281z"/>
<path style="fill:#c1d891; stroke:none;" d="M243 281L244 282L243 281M268 281L269 282L268 281z"/>
<path style="fill:#fb9aa0; stroke:none;" d="M292 281L293 282L292 281z"/>
<path style="fill:#c1d891; stroke:none;" d="M231 282L232 283L231 282M244 282L245 283L244 282M267 282L268 283L267 282M280 282L281 283L280 282z"/>
<path style="fill:#fb9aa0; stroke:none;" d="M220 283L221 284L220 283M232 283L233 284L232 283M245 283L246 284L245 283M266 283L267 284L266 283M279 283L280 284L279 283M291 283L292 284L291 283M233 284L234 285L233 284M246 284L247 285L246 284M265 284L266 285L265 284M278 284L279 285L278 284M221 285L222 286L221 285M247 285L248 286L247 285M264 285L265 286L264 285M290 285L291 286L290 285M219 286L220 287L219 286M222 286L223 287L222 286M248 286L249 287L248 286M263 286L264 287L263 286z"/>
<path style="fill:#c1d891; stroke:none;" d="M289 286L290 287L289 286z"/>
<path style="fill:#fb9aa0; stroke:none;" d="M292 286L293 287L292 286z"/>
<path style="fill:#c1d891; stroke:none;" d="M220 287L221 288L220 287M291 287L292 288L291 287z"/>
<path style="fill:#fb9aa0; stroke:none;" d="M222 288L222 289L225 290L222 288M287 290L290 288L287 290z"/>
<path style="fill:#c1d891; stroke:none;" d="M223 289L224 290L223 289z"/>
<path style="fill:#fb9aa0; stroke:none;" d="M238 289L239 290L238 289M273 289L274 290L273 289M239 290L240 291L239 290M272 290L273 291L272 290M240 291L241 292L240 291M271 291L272 292L271 291z"/>
<path style="fill:#c1d891; stroke:none;" d="M241 292L242 293L241 292M270 292L271 293L270 292z"/>
<path style="fill:#fb9aa0; stroke:none;" d="M243 293L244 294L243 293M268 293L269 294L268 293M246 295L247 296L246 295M265 295L266 296L265 295z"/>
<path style="fill:#c1d891; stroke:none;" d="M243 296L244 297L243 296z"/>
<path style="fill:#fb9aa0; stroke:none;" d="M244.667 296.333L245.333 296.667L244.667 296.333M267 296L268 297L267 296z"/>
<path style="fill:#c1d891; stroke:none;" d="M268 296L269 297L268 296M239 297L240 298L239 297z"/>
<path style="fill:#fb9aa0; stroke:none;" d="M240.667 297.333L241.333 297.667L240.667 297.333M270.667 297.333L271.333 297.667L270.667 297.333z"/>
<path style="fill:#c1d891; stroke:none;" d="M272 297L273 298L272 297M229 298L230 299L229 298z"/>
<path style="fill:#fb9aa0; stroke:none;" d="M230 298L230 299L237 299L230 298M275 298L275 299L282 299L275 298z"/>
<path style="fill:#c1d891; stroke:none;" d="M282 298L283 299L282 298M229 300L230 301L229 300z"/>
<path style="fill:#fb9aa0; stroke:none;" d="M230.667 300.333L231.333 300.667L230.667 300.333M280.667 300.333L281.333 300.667L280.667 300.333z"/>
<path style="fill:#c1d891; stroke:none;" d="M282 300L283 301L282 300z"/>
<path style="fill:#fb9aa0; stroke:none;" d="M234 301L234 302L239 302L234 301M246 301L246 302L249 302L246 301z"/>
<path style="fill:#c1d891; stroke:none;" d="M249 301L250 302L249 301M259 301L260 302L259 301M262 301L263 302L262 301z"/>
<path style="fill:#fb9aa0; stroke:none;" d="M263 301L263 302L266 302L263 301M273 301L273 302L278 302L273 301M253 302L254 303L253 302M258 302L259 303L258 302M254 304L255 305L254 304M257 304L258 305L257 304M255.667 306.333L256.333 306.667L255.667 306.333z"/>
<path style="fill:#c1d891; stroke:none;" d="M25 312L26 313L25 312z"/>
<path style="fill:#ff4c55; stroke:none;" d="M26 312C20.5014 317.615 7.44044 315 0 315L0 318C5.72368 318 12.9893 316.377 15 323L23 323L23 322L17 318L26 318C25.9043 326.095 22.4501 326.994 15 327L12 333L11 321L9 321L8 333L7 333L3 321C3 324.476 4.39762 331.356 0 332C0 357.942 -8.8561 400.493 16.0039 417.402C27.8124 425.434 41.4484 424 55 424L127 424L390 424L457 424C470.157 424 483.339 425.392 494.999 418.049C521.06 401.637 512 358.229 512 332C501.378 334.529 485.622 334.529 475 332L475 330C485.622 327.471 501.378 327.471 512 330L512 326C505.829 327.469 498.574 328.547 497 321L490 321L490 323L495 324L495 326C488.107 327.561 486.078 324.618 486 318C491.724 318 498.989 316.377 501 323L509 323L512 315C504.56 315 491.499 317.615 486 312L484 312C479.08 317.024 461.92 317.024 457 312L455 312C450.655 316.437 432.634 317.606 429 312L426 312L426 315C418.56 315 405.499 317.615 400 312L398 312C393.655 316.437 375.634 317.606 372 312L369 312L369 315C361.56 315 348.499 317.615 343 312L341 312C334.811 318.32 319.148 315.432 312 312C308.708 317.078 289.292 317.078 286 312L283 312L283 315C275.56 315 262.499 317.615 257 312L255 312C250.655 316.437 232.634 317.606 229 312L226 312L226 315C218.56 315 205.499 317.615 200 312L198 312C191.811 318.32 176.148 315.432 169 312C165.708 317.078 146.292 317.078 143 312L140 312L140 315C132.56 315 119.499 317.615 114 312L112 312C107.655 316.437 89.6342 317.606 86 312L83 312L83 315C75.5596 315 62.4986 317.615 57 312L55 312C50.0799 317.024 32.9201 317.024 28 312L26 312z"/>
<path style="fill:#fb9aa0; stroke:none;" d="M28.3333 312.667L28.6667 313.333L28.3333 312.667M54.3333 312.667L54.6667 313.333L54.3333 312.667z"/>
<path style="fill:#c1d891; stroke:none;" d="M57 312L58 313L57 312z"/>
<path style="fill:#fb9aa0; stroke:none;" d="M111.333 312.667L111.667 313.333L111.333 312.667M114.333 312.667L114.667 313.333L114.333 312.667M171.333 312.667L171.667 313.333L171.333 312.667M197.333 312.667L197.667 313.333L197.333 312.667z"/>
<path style="fill:#c1d891; stroke:none;" d="M200 312L201 313L200 312z"/>
<path style="fill:#fb9aa0; stroke:none;" d="M254.333 312.667L254.667 313.333L254.333 312.667M257.333 312.667L257.667 313.333L257.333 312.667M314.333 312.667L314.667 313.333L314.333 312.667M340.333 312.667L340.667 313.333L340.333 312.667z"/>
<path style="fill:#c1d891; stroke:none;" d="M343 312L344 313L343 312z"/>
<path style="fill:#fb9aa0; stroke:none;" d="M397.333 312.667L397.667 313.333L397.333 312.667M400.333 312.667L400.667 313.333L400.333 312.667z"/>
<path style="fill:#c1d891; stroke:none;" d="M454 312L455 313L454 312z"/>
<path style="fill:#fb9aa0; stroke:none;" d="M457.333 312.667L457.667 313.333L457.333 312.667M483.333 312.667L483.667 313.333L483.333 312.667z"/>
<path style="fill:#c1d891; stroke:none;" d="M486 312L487 313L486 312z"/>
<path style="fill:#fb9aa0; stroke:none;" d="M25 313L26 314L25 313M57 313L58 314L57 313z"/>
<path style="fill:#c1d891; stroke:none;" d="M168 313L167 315L168 313z"/>
<path style="fill:#fb9aa0; stroke:none;" d="M200 313L201 314L200 313z"/>
<path style="fill:#c1d891; stroke:none;" d="M311 313L310 315L311 313z"/>
<path style="fill:#fb9aa0; stroke:none;" d="M343 313L344 314L343 313M454 313L455 314L454 313M486 313L487 314L486 313M0 314L1 315L0 314z"/>
<path style="fill:#c1d891; stroke:none;" d="M1 314L2 315L1 314M24 314L25 315L24 314z"/>
<path style="fill:#fb9aa0; stroke:none;" d="M29 314L30 315L29 314M53 314L54 315L53 314z"/>
<path style="fill:#c1d891; stroke:none;" d="M58 314L59 315L58 314M81 314L82 315L81 314z"/>
<path style="fill:#fb9aa0; stroke:none;" d="M82 314L83 315L82 314M86 314L87 315L86 314M110 314L111 315L110 314M115 314L116 315L115 314M139 314L140 315L139 314M143 314L144 315L143 314z"/>
<path style="fill:#c1d891; stroke:none;" d="M144 314L145 315L144 314z"/>
<path style="fill:#fb9aa0; stroke:none;" d="M168 314L169 315L168 314M172 314L173 315L172 314M196 314L197 315L196 314z"/>
<path style="fill:#c1d891; stroke:none;" d="M201 314L202 315L201 314M224 314L225 315L224 314z"/>
<path style="fill:#fb9aa0; stroke:none;" d="M225 314L226 315L225 314M229 314L230 315L229 314M253 314L254 315L253 314M258 314L259 315L258 314M282 314L283 315L282 314M286 314L287 315L286 314z"/>
<path style="fill:#c1d891; stroke:none;" d="M287 314L288 315L287 314z"/>
<path style="fill:#fb9aa0; stroke:none;" d="M311 314L312 315L311 314M315 314L316 315L315 314M339 314L340 315L339 314z"/>
<path style="fill:#c1d891; stroke:none;" d="M344 314L345 315L344 314M367 314L368 315L367 314z"/>
<path style="fill:#fb9aa0; stroke:none;" d="M368 314L369 315L368 314M372 314L373 315L372 314M396 314L397 315L396 314M401 314L402 315L401 314M425 314L426 315L425 314M429 314L430 315L429 314z"/>
<path style="fill:#c1d891; stroke:none;" d="M430 314L431 315L430 314M453 314L454 315L453 314z"/>
<path style="fill:#fb9aa0; stroke:none;" d="M458 314L459 315L458 314M482 314L483 315L482 314z"/>
<path style="fill:#c1d891; stroke:none;" d="M487 314L488 315L487 314M510 314L511 315L510 314z"/>
<path style="fill:#fb9aa0; stroke:none;" d="M511 314L512 315L511 314M0 318L1 319L0 318z"/>
<path style="fill:#fbfbfa; stroke:none;" d="M0 332L4 320L5 320L6 332L8 332C8.0036 327.339 7.54836 323.455 12 321L12 332L14 332C15.0056 325.694 19.5321 326.004 25 326L25 318L18 318L18 320L23 321L23 323C17.9928 324.134 14.8707 323.46 14 318C1.49315 318 0 319.493 0 332z"/>
<path style="fill:#fb9aa0; stroke:none;" d="M17.3333 318.667L17.6667 319.333L17.3333 318.667M25 318L26 319L25 318z"/>
<path style="fill:#fbfbfa; stroke:none;" d="M29 318L29 326L37 326L37 324L31 323L31 321L42.2986 325.397L54 326L54 318L52 318C51.1379 323.406 48.0065 323.941 43 324C42.394 316.222 35.1075 318 29 318z"/>
<path style="fill:#fb9aa0; stroke:none;" d="M42 318L43 319L42 318z"/>
<path style="fill:#fbfbfa; stroke:none;" d="M46 318L46 320L48 320L48 318L46 318z"/>
<path style="fill:#fb9aa0; stroke:none;" d="M48.3333 318.667L48.6667 319.333L48.3333 318.667M57 318L58 319L57 318z"/>
<path style="fill:#fbfbfa; stroke:none;" d="M58 318L58 332L60 332L61 320L62 320L63 332C66.8247 329.52 65.9995 325.192 66 321L69 321L69 332L71 332C72.0688 325.298 77.3372 326.001 83 326C82.9253 319.699 81.301 318.075 75 318L75 320L80 324C74.9935 323.941 71.8621 323.406 71 318L58 318z"/>
<path style="fill:#fb9aa0; stroke:none;" d="M71 318L71 323L72 323L71 318M74.3333 318.667L74.6667 319.333L74.3333 318.667M82 318L83 319L82 318z"/>
<path style="fill:#c1d891; stroke:none;" d="M86 318L87 319L86 318z"/>
<path style="fill:#fbfbfa; stroke:none;" d="M86 326L94 326L94 324L89 324C91.9822 318.614 96.4966 320.818 98 326L111 326L111 318L109 318C107.886 324.983 101.114 324.983 100 318C92.2589 318 86.1115 316.588 86 326z"/>
<path style="fill:#fb9aa0; stroke:none;" d="M103 318L104 319L103 318z"/>
<path style="fill:#fbfbfa; stroke:none;" d="M104 318L103 320L105 320L104 318z"/>
<path style="fill:#fb9aa0; stroke:none;" d="M105 318L106 319L105 318M111 318L111 326L112 326L111 318z"/>
<path style="fill:#fbfbfa; stroke:none;" d="M115 318L115 332L117 332L118 320L119 320L123 332L124 320L125 320L126 332L128 332C129.779 325.866 134.386 326.004 140 326L140 318L132 318L132 320L137 324C131.954 323.94 129.106 323.306 128 318L115 318z"/>
<path style="fill:#fb9aa0; stroke:none;" d="M128 318L129 319L128 318M143 318L144 319L143 318z"/>
<path style="fill:#fbfbfa; stroke:none;" d="M151 326L151 324L146 324C148.968 318.636 154.075 320.336 155 326C161.753 326 170.705 327.497 168 318L167 318C164.284 323.841 158.26 325.901 157 318C153.585 318 148.449 317.061 145.318 318.603C138.214 322.104 147.632 325.96 151 326z"/>
<path style="fill:#fb9aa0; stroke:none;" d="M160 318L163 321L163 320L160 318z"/>
<path style="fill:#fbfbfa; stroke:none;" d="M161 318L161 320L163 320L161 318z"/>
<path style="fill:#c1d891; stroke:none;" d="M162 318L163 319L162 318M166 318L167 319L166 318z"/>
<path style="fill:#fb9aa0; stroke:none;" d="M168 318L169 319L168 318z"/>
<path style="fill:#fbfbfa; stroke:none;" d="M172 318L172 332L174 332L174 321C178.452 323.455 177.996 327.339 178 332L180 332L181 320L182 320L184 332L185 332C187.714 326.163 190.953 326.005 197 326L197 318L189 318L189 320L195 321L195 323L186 324C185.394 316.222 178.108 318 172 318z"/>
<path style="fill:#fb9aa0; stroke:none;" d="M185 318L186 319L185 318M200 318L201 319L200 318z"/>
<path style="fill:#fbfbfa; stroke:none;" d="M201 318L201 326L208 326L208 324L203 323L203 321C207.896 319.952 211.132 320.68 212 326L226 326L225 318L224 318L223 324C217.993 323.941 214.862 323.406 214 318L201 318z"/>
<path style="fill:#fb9aa0; stroke:none;" d="M214 318L214 323L215 323L214 318M217 318L220 321L220 320L217 318z"/>
<path style="fill:#fbfbfa; stroke:none;" d="M218 318L218 320L220 320L220 318L218 318z"/>
<path style="fill:#fb9aa0; stroke:none;" d="M223 318L224 319L223 318M225 318L226 319L225 318z"/>
<path style="fill:#fbfbfa; stroke:none;" d="M229 318L229 332L231 332C231.004 327.339 230.548 323.455 235 321L235 332L237 332L237 321C241.452 323.455 240.996 327.339 241 332L243 332C244.006 325.694 248.532 326.004 254 326L254 318L246 319L246 320L252 321L252 323C245.342 324.508 245.767 320.915 240.701 318.603C237.456 317.121 232.499 318 229 318z"/>
<path style="fill:#c1d891; stroke:none;" d="M242 318L243 319L242 318z"/>
<path style="fill:#fb9aa0; stroke:none;" d="M246 318L247 319L246 318M254 318L254 326L255 326L254 318M257 318C257.023 324.636 258.068 326.918 265 327L265 326L258 326L257 318z"/>
<path style="fill:#fbfbfa; stroke:none;" d="M258 318L258 326L266 326L266 324L260 323L260 321C265.007 319.866 268.129 320.54 269 326L283 326L283 318L281 318C279.821 325.395 272.477 325.083 271 318L258 318z"/>
<path style="fill:#fb9aa0; stroke:none;" d="M271 318L272 319L271 318z"/>
<path style="fill:#fbfbfa; stroke:none;" d="M275 318L275 320L277 320L277 318L275 318z"/>
<path style="fill:#fb9aa0; stroke:none;" d="M280 318L280 322L281 322L280 318M286 318L287 319L286 318z"/>
<path style="fill:#fbfbfa; stroke:none;" d="M287 332L288 332L290 320L291 320L292 332L294 332C294.004 327.339 293.548 323.455 298 321L298 332L300 332C301.196 324.498 306.011 328.472 310.396 324.972C316.109 320.413 307.085 318.037 304 318L304 320L309 321L309 323C303.993 324.134 300.871 323.46 300 318C289.125 318 283.309 319.513 287 332z"/>
<path style="fill:#fb9aa0; stroke:none;" d="M303.333 318.667L303.667 319.333L303.333 318.667M311 318L312 319L311 318z"/>
<path style="fill:#fbfbfa; stroke:none;" d="M315 318L315 326L323 326L323 324L317 323L317 321L328.299 325.397L340 326L340 318L338 318C337.138 323.406 334.007 323.941 329 324C328.394 316.222 321.108 318 315 318z"/>
<path style="fill:#fb9aa0; stroke:none;" d="M328 318L329 319L328 318z"/>
<path style="fill:#fbfbfa; stroke:none;" d="M332 318L332 320L334 320L334 318L332 318z"/>
<path style="fill:#fb9aa0; stroke:none;" d="M334.333 318.667L334.667 319.333L334.333 318.667M343 318L344 319L343 318z"/>
<path style="fill:#fbfbfa; stroke:none;" d="M344 318L344 332L346 332L347 320L348 320L349 332C352.825 329.52 352 325.192 352 321L355 321L355 332L357 332C358.069 325.298 363.337 326.001 369 326C368.925 319.699 367.301 318.075 361 318L361 320L366 324C360.993 323.941 357.862 323.406 357 318L344 318z"/>
<path style="fill:#fb9aa0; stroke:none;" d="M357 318L357 323L358 323L357 318M360.333 318.667L360.667 319.333L360.333 318.667M368 318L369 319L368 318z"/>
<path style="fill:#fbfbfa; stroke:none;" d="M372 318L372 326L380 326L380 324L375 324C377.982 318.614 382.497 320.818 384 326L397 326L397 318L395 318C393.886 324.983 387.114 324.983 386 318L372 318z"/>
<path style="fill:#fb9aa0; stroke:none;" d="M389 318L390 319L389 318z"/>
<path style="fill:#fbfbfa; stroke:none;" d="M390 318L389 320L391 320L390 318z"/>
<path style="fill:#fb9aa0; stroke:none;" d="M391 318L392 319L391 318M397 318L397 326L398 326L397 318M400 318L401 333L402 333L400 318z"/>
<path style="fill:#fbfbfa; stroke:none;" d="M401 318L401 332L403 332L403 321L406 321C406 325.192 405.175 329.52 409 332L410 320L411 320L412 332L414 332C415.779 325.866 420.386 326.004 426 326L426 318L418 318L418 320L423 324C417.954 323.94 415.107 323.306 414 318L401 318z"/>
<path style="fill:#fb9aa0; stroke:none;" d="M414 318L415 319L414 318M429 318L430 319L429 318z"/>
<path style="fill:#fbfbfa; stroke:none;" d="M437 326L437 324L432 324C434.968 318.636 440.075 320.336 441 326L454 326L454 318L453 318C450.284 323.841 444.26 325.901 443 318C439.585 318 434.449 317.061 431.318 318.603C424.214 322.104 433.632 325.96 437 326z"/>
<path style="fill:#fb9aa0; stroke:none;" d="M446 318L449 321L449 320L446 318z"/>
<path style="fill:#fbfbfa; stroke:none;" d="M447 318L447 320L449 320L447 318z"/>
<path style="fill:#c1d891; stroke:none;" d="M448 318L449 319L448 318M452 318L453 319L452 318z"/>
<path style="fill:#fb9aa0; stroke:none;" d="M454 318L455 319L454 318z"/>
<path style="fill:#fbfbfa; stroke:none;" d="M458 318L458 332L460 332L460 321C464.452 323.455 463.996 327.339 464 332L466 332L467 320L468 320L470 332L471 332C473.714 326.163 476.953 326.005 483 326L483 318L475 318L475 320L481 321L481 323L472 324C471.394 316.222 464.108 318 458 318z"/>
<path style="fill:#fb9aa0; stroke:none;" d="M471 318L472 319L471 318M486 318L487 319L486 318z"/>
<path style="fill:#fbfbfa; stroke:none;" d="M487 318L487 326L494 326L494 324L489 323L489 321C494.007 319.866 497.129 320.54 498 326L512 326L511 318L510 318L509 324C503.993 323.941 500.862 323.406 500 318L487 318z"/>
<path style="fill:#fb9aa0; stroke:none;" d="M503 318L506 321L506 320L503 318z"/>
<path style="fill:#fbfbfa; stroke:none;" d="M504 318L504 320L506 320L506 318L504 318z"/>
<path style="fill:#fb9aa0; stroke:none;" d="M509 318L510 319L509 318M511 318L512 319L511 318M14 319L14 323L15 323L14 319z"/>
<path style="fill:#c1d891; stroke:none;" d="M25 319L25 325L26 325L25 319z"/>
<path style="fill:#fb9aa0; stroke:none;" d="M28 319L28 325L29 325L28 319M51 319L51 323L52 323L51 319M54 319L54 325L55 325L54 319z"/>
<path style="fill:#c1d891; stroke:none;" d="M57 319L57 331L58 331L57 319M105 319L106 320L105 319z"/>
<path style="fill:#fb9aa0; stroke:none;" d="M108 319L108 323L109 323L108 319M114 319L114 332L115 332L114 319z"/>
<path style="fill:#c1d891; stroke:none;" d="M128 319L128 322L129 322L128 319z"/>
<path style="fill:#fb9aa0; stroke:none;" d="M131 319L132 320L131 319M157 319L157 323L158 323L157 319M171 319L171 331L172 331L171 319M197 319L197 325L198 325L197 319z"/>
<path style="fill:#c1d891; stroke:none;" d="M200 319L200 325L201 325L200 319M271 319L271 322L272 322L271 319z"/>
<path style="fill:#fb9aa0; stroke:none;" d="M274 319L275 320L274 319M277 319L278 320L277 319M300 319L300 323L301 323L300 319M314 319L314 325L315 325L314 319M337 319L337 323L338 323L337 319M340 319L340 325L341 325L340 319z"/>
<path style="fill:#c1d891; stroke:none;" d="M343 319L343 331L344 331L343 319M391 319L392 320L391 319z"/>
<path style="fill:#fb9aa0; stroke:none;" d="M394 319L394 323L395 323L394 319z"/>
<path style="fill:#c1d891; stroke:none;" d="M414 319L414 322L415 322L414 319z"/>
<path style="fill:#fb9aa0; stroke:none;" d="M417 319L418 320L417 319M443 319L443 323L444 323L443 319z"/>
<path style="fill:#c1d891; stroke:none;" d="M454 319L454 325L455 325L454 319z"/>
<path style="fill:#fb9aa0; stroke:none;" d="M457 319L457 331L458 331L457 319M483 319L483 325L484 325L483 319z"/>
<path style="fill:#c1d891; stroke:none;" d="M486 319L486 325L487 325L486 319z"/>
<path style="fill:#fb9aa0; stroke:none;" d="M500 319L500 323L501 323L500 319z"/>
<path style="fill:#c1d891; stroke:none;" d="M4 320L5 321L4 320z"/>
<path style="fill:#fb9aa0; stroke:none;" d="M18 320L18 321L21 321L18 320z"/>
<path style="fill:#c1d891; stroke:none;" d="M21 320L22 321L21 320z"/>
<path style="fill:#fb9aa0; stroke:none;" d="M33 320L33 321L39 321L33 320M46.6667 320.333L47.3333 320.667L46.6667 320.333z"/>
<path style="fill:#c1d891; stroke:none;" d="M61 320L62 321L61 320z"/>
<path style="fill:#fb9aa0; stroke:none;" d="M75 320L75 321L79 321L75 320M90 320L90 321L96 321L90 320M103.667 320.333L104.333 320.667L103.667 320.333z"/>
<path style="fill:#c1d891; stroke:none;" d="M118 320L119 321L118 320M124 320L125 321L124 320z"/>
<path style="fill:#fb9aa0; stroke:none;" d="M132 320L132 321L136 321L132 320M147 320L147 321L153 321L147 320z"/>
<path style="fill:#c1d891; stroke:none;" d="M181 320L182 321L181 320z"/>
<path style="fill:#fb9aa0; stroke:none;" d="M189 320L189 321L193 321L189 320z"/>
<path style="fill:#c1d891; stroke:none;" d="M204 320L205 321L204 320z"/>
<path style="fill:#fb9aa0; stroke:none;" d="M205 320L205 321L210 321L205 320M246 320L246 321L250 321L246 320z"/>
<path style="fill:#c1d891; stroke:none;" d="M250 320L251 321L250 320M261 320L262 321L261 320z"/>
<path style="fill:#fb9aa0; stroke:none;" d="M262 320L262 321L267 321L262 320z"/>
<path style="fill:#c1d891; stroke:none;" d="M267 320L268 321L267 320z"/>
<path style="fill:#fb9aa0; stroke:none;" d="M275.667 320.333L276.333 320.667L275.667 320.333z"/>
<path style="fill:#c1d891; stroke:none;" d="M290 320L291 321L290 320z"/>
<path style="fill:#fb9aa0; stroke:none;" d="M304 320L304 321L307 321L304 320z"/>
<path style="fill:#c1d891; stroke:none;" d="M307 320L308 321L307 320z"/>
<path style="fill:#fb9aa0; stroke:none;" d="M319 320L319 321L325 321L319 320M332.667 320.333L333.333 320.667L332.667 320.333z"/>
<path style="fill:#c1d891; stroke:none;" d="M347 320L348 321L347 320z"/>
<path style="fill:#fb9aa0; stroke:none;" d="M361 320L361 321L365 321L361 320M376 320L376 321L382 321L376 320M389.667 320.333L390.333 320.667L389.667 320.333z"/>
<path style="fill:#c1d891; stroke:none;" d="M410 320L411 321L410 320z"/>
<path style="fill:#fb9aa0; stroke:none;" d="M418 320L418 321L422 321L418 320M433 320L433 321L439 321L433 320z"/>
<path style="fill:#c1d891; stroke:none;" d="M467 320L468 321L467 320z"/>
<path style="fill:#fb9aa0; stroke:none;" d="M475 320L475 321L479 321L475 320z"/>
<path style="fill:#c1d891; stroke:none;" d="M490 320L491 321L490 320z"/>
<path style="fill:#fb9aa0; stroke:none;" d="M491 320L491 321L496 321L491 320z"/>
<path style="fill:#c1d891; stroke:none;" d="M496 320L497 321L496 320z"/>
<path style="fill:#fb9aa0; stroke:none;" d="M5 321L6 322L5 321z"/>
<path style="fill:#c1d891; stroke:none;" d="M11 321L12 322L11 321z"/>
<path style="fill:#fb9aa0; stroke:none;" d="M22 321L23 322L22 321M31.3333 321.667L31.6667 322.333L31.3333 321.667M60 321L61 322L60 321M62 321L63 322L62 321M68 321L68 331L69 331L68 321M117 321L117 331L118 331L117 321M123 321L124 322L123 321M125 321L126 322L125 321M154 321L154 326L155 326L154 321z"/>
<path style="fill:#c1d891; stroke:none;" d="M174 321L175 322L174 321z"/>
<path style="fill:#fb9aa0; stroke:none;" d="M180 321L181 322L180 321M194.333 321.667L194.667 322.333L194.333 321.667M203.333 321.667L203.667 322.333L203.333 321.667M211 321L211 325L212 325L211 321M234 321L234 332L235 332L234 321M237 321L237 331L238 331L237 321M251.333 321.667L251.667 322.333L251.333 321.667M260.333 321.667L260.667 322.333L260.333 321.667M268 321L269 322L268 321M291 321L291 331L292 331L291 321z"/>
<path style="fill:#c1d891; stroke:none;" d="M297 321L298 322L297 321z"/>
<path style="fill:#fb9aa0; stroke:none;" d="M308 321L309 322L308 321z"/>
<path style="fill:#c1d891; stroke:none;" d="M317 321L318 322L317 321z"/>
<path style="fill:#fb9aa0; stroke:none;" d="M346 321L347 322L346 321M348 321L349 322L348 321M354 321L354 331L355 331L354 321M403 321L403 331L404 331L403 321M409 321L410 322L409 321M411 321L412 322L411 321z"/>
<path style="fill:#c1d891; stroke:none;" d="M440 321L441 322L440 321M460 321L461 322L460 321z"/>
<path style="fill:#fb9aa0; stroke:none;" d="M466 321L467 322L466 321z"/>
<path style="fill:#c1d891; stroke:none;" d="M480 321L481 322L480 321z"/>
<path style="fill:#fb9aa0; stroke:none;" d="M489.333 321.667L489.667 322.333L489.333 321.667M497 321L497 325L498 325L497 321M8 322L8 332L9 332L8 322M11 322L11 332L12 332L11 322z"/>
<path style="fill:#c1d891; stroke:none;" d="M97 322L97 325L98 325L97 322z"/>
<path style="fill:#fb9aa0; stroke:none;" d="M100 322L101 323L100 322M174 322L174 332L175 332L174 322M177 322L177 332L178 332L177 322z"/>
<path style="fill:#c1d891; stroke:none;" d="M231 322L231 331L232 331L231 322M240 322L240 331L241 331L240 322z"/>
<path style="fill:#fb9aa0; stroke:none;" d="M243 322L244 323L243 322z"/>
<path style="fill:#c1d891; stroke:none;" d="M280 322L281 323L280 322z"/>
<path style="fill:#fb9aa0; stroke:none;" d="M294 322L294 332L295 332L294 322M297 322L297 332L298 332L297 322M317 322L318 323L317 322z"/>
<path style="fill:#c1d891; stroke:none;" d="M383 322L383 325L384 325L383 322z"/>
<path style="fill:#fb9aa0; stroke:none;" d="M386 322L387 323L386 322M440 322L440 326L441 326L440 322M451 322L452 323L451 322M460 322L460 332L461 332L460 322M463 322L463 332L464 332L463 322M480 322L481 323L480 322M15 323L15 324L22 324L15 323M32 323L32 324L36 324L32 323z"/>
<path style="fill:#c1d891; stroke:none;" d="M43 323L44 324L43 323z"/>
<path style="fill:#fb9aa0; stroke:none;" d="M44 323L44 324L51 324L44 323M72 323L72 324L79 324L72 323z"/>
<path style="fill:#c1d891; stroke:none;" d="M79 323L80 324L79 323z"/>
<path style="fill:#fb9aa0; stroke:none;" d="M89 323L89 324L93 324L89 323M101 323L101 324L108 324L101 323M129 323L129 324L137 324L129 323z"/>
<path style="fill:#c1d891; stroke:none;" d="M146 323L147 324L146 323z"/>
<path style="fill:#fb9aa0; stroke:none;" d="M147 323L147 324L151 324L147 323M158 323L158 324L165 324L158 323z"/>
<path style="fill:#c1d891; stroke:none;" d="M186 323L187 324L186 323z"/>
<path style="fill:#fb9aa0; stroke:none;" d="M187 323L187 324L194 324L187 323M204 323L204 324L208 324L204 323M215 323L215 324L222 324L215 323z"/>
<path style="fill:#c1d891; stroke:none;" d="M222 323L223 324L222 323z"/>
<path style="fill:#fb9aa0; stroke:none;" d="M244 323L244 324L251 324L244 323M261 323L261 324L265 324L261 323M272 323L272 324L280 324L272 323M301 323L301 324L308 324L301 323M318 323L318 324L322 324L318 323z"/>
<path style="fill:#c1d891; stroke:none;" d="M329 323L330 324L329 323z"/>
<path style="fill:#fb9aa0; stroke:none;" d="M330 323L330 324L337 324L330 323M358 323L358 324L365 324L358 323z"/>
<path style="fill:#c1d891; stroke:none;" d="M365 323L366 324L365 323z"/>
<path style="fill:#fb9aa0; stroke:none;" d="M375 323L375 324L379 324L375 323M387 323L387 324L394 324L387 323M415 323L415 324L423 324L415 323z"/>
<path style="fill:#c1d891; stroke:none;" d="M432 323L433 324L432 323z"/>
<path style="fill:#fb9aa0; stroke:none;" d="M433 323L433 324L437 324L433 323M444 323L444 324L451 324L444 323z"/>
<path style="fill:#c1d891; stroke:none;" d="M472 323L473 324L472 323z"/>
<path style="fill:#fb9aa0; stroke:none;" d="M473 323L473 324L480 324L473 323M490 323L490 324L494 324L490 323M501 323L501 324L509 324L501 323M151.333 324.667L151.667 325.333L151.333 324.667M208.333 324.667L208.667 325.333L208.333 324.667M437.333 324.667L437.667 325.333L437.333 324.667M494.333 324.667L494.667 325.333L494.333 324.667M25 325L26 326L25 325z"/>
<path style="fill:#c1d891; stroke:none;" d="M40 325L41 326L40 325z"/>
<path style="fill:#fb9aa0; stroke:none;" d="M94 325L95 326L94 325M97 325L98 326L97 325z"/>
<path style="fill:#c1d891; stroke:none;" d="M143 325L144 326L143 325z"/>
<path style="fill:#fb9aa0; stroke:none;" d="M168 325L169 326L168 325M200 325L201 326L200 325M311 325L312 326L311 325z"/>
<path style="fill:#c1d891; stroke:none;" d="M326 325L327 326L326 325z"/>
<path style="fill:#fb9aa0; stroke:none;" d="M380 325L381 326L380 325M383 325L384 326L383 325z"/>
<path style="fill:#c1d891; stroke:none;" d="M429 325L430 326L429 325z"/>
<path style="fill:#fb9aa0; stroke:none;" d="M454 325L455 326L454 325M486 325L487 326L486 325M15 326L15 327L25 327L15 326M29 326L29 327L36 327L29 326M41 326L41 327L54 327L41 326M72 326L72 327L82 327L72 326M87 326L87 327L94 327L87 326M98 326L98 327L111 327L98 326M130 326L130 327L139 327L130 326M144 326L144 327L151 327L144 326M155 326L155 327L168 327L155 326M187 326L187 327L197 327L187 326M201 326L201 327L208 327L201 326M212 326L212 327L225 327L212 326M244 326L244 327L254 327L244 326M270 326L270 327L282 327L270 326M301 326L301 327L311 327L301 326M315 326L315 327L323 327L315 326M327 326L327 327L340 327L327 326M358 326L358 327L368 327L358 326M373 326L373 327L380 327L373 326M384 326L384 327L397 327L384 326M416 326L416 327L426 327L416 326M430 326L430 327L437 327L430 326M441 326L441 327L454 327L441 326M473 326L473 327L483 327L473 326M487 326L487 327L494 327L487 326M498 326L498 327L511 327L498 326M14 327L14 331L15 331L14 327z"/>
<path style="fill:#c1d891; stroke:none;" d="M71 327L72 328L71 327z"/>
<path style="fill:#fb9aa0; stroke:none;" d="M243 327L244 328L243 327M300 327L300 331L301 331L300 327z"/>
<path style="fill:#c1d891; stroke:none;" d="M357 327L358 328L357 327z"/>
<path style="fill:#fb9aa0; stroke:none;" d="M71 328L71 332L72 332L71 328z"/>
<path style="fill:#c1d891; stroke:none;" d="M128 328L128 331L129 331L128 328z"/>
<path style="fill:#fb9aa0; stroke:none;" d="M357 328L357 332L358 332L357 328z"/>
<path style="fill:#c1d891; stroke:none;" d="M414 328L414 331L415 331L414 328z"/>
<path style="fill:#fb9aa0; stroke:none;" d="M17 330L17 332L53 333L53 332L18 332L18 330L54 330C45.6259 326.486 25.6762 327.435 17 330M74 330L74 332C83.8036 334.898 102.196 334.898 112 332L112 330C102.196 327.102 83.8036 327.102 74 330M131 330L131 331L168 330L168 332L133 332L133 333L169 332L169 330C159.196 327.102 140.804 327.102 131 330M189 329L189 330L225 330C215.44 325.989 199.387 329 189 329M247 329L247 330L282 330L247 329M303 330L303 332L339 333L339 332L304 332L304 330L340 330C331.626 326.486 311.676 327.435 303 330M360 330L360 332C369.804 334.898 388.196 334.898 398 332L398 330C388.196 327.102 369.804 327.102 360 330M417 330L417 331L454 330L454 332L419 332L419 333L455 332L455 330C445.196 327.102 426.804 327.102 417 330M476 329L476 330L511 330L476 329z"/>
<path style="fill:#fbfbfa; stroke:none;" d="M18 330L18 332L54 332L54 330L18 330M75 330L75 332L111 332L111 330L75 330M132 330L132 332L168 332L168 330L132 330M189 330L189 332L226 332L226 330L189 330M246 330L246 332L283 332L283 330L246 330M304 330L304 332L340 332L340 330L304 330M361 330L361 332L397 332L397 330L361 330M418 330L418 332L454 332L454 330L418 330M475 330L475 332L512 332L512 330L475 330z"/>
<path style="fill:#c1d891; stroke:none;" d="M2 331L3 332L2 331z"/>
<path style="fill:#fb9aa0; stroke:none;" d="M57 331L58 332L57 331M65 331L66 332L65 331M120 331L121 332L120 331M128 331L129 332L128 331M183 331L184 332L183 331z"/>
<path style="fill:#c1d891; stroke:none;" d="M185 331L186 332L185 331z"/>
<path style="fill:#fb9aa0; stroke:none;" d="M231 331L232 332L231 331M240 331L241 332L240 331z"/>
<path style="fill:#c1d891; stroke:none;" d="M286 331L287 332L286 331z"/>
<path style="fill:#fb9aa0; stroke:none;" d="M288 331L289 332L288 331M343 331L344 332L343 331M351 331L352 332L351 331M406 331L407 332L406 331M414 331L415 332L414 331M469 331L470 332L469 331z"/>
<path style="fill:#c1d891; stroke:none;" d="M471 331L472 332L471 331z"/>
<path style="fill:#fb9aa0; stroke:none;" d="M1 332L2 333L1 332M7 332L8 333L7 332M12 332L13 333L12 332M58 332L59 333L58 332M64 332L65 333L64 332M70 332L71 333L70 332M115 332L116 333L115 332M121 332L122 333L121 332M127 332L128 333L127 332M173 332L174 333L173 332M178 332L179 333L178 332M184 332L185 333L184 332M190 332L190 333L225 333L190 332M230 332L231 333L230 332M241 332L242 333L241 332M247 332L247 333L282 333L247 332M287 332L288 333L287 332M293 332L294 333L293 332M298 332L299 333L298 332M344 332L345 333L344 332M350 332L351 333L350 332M356 332L357 333L356 332M407 332L408 333L407 332M413 332L414 333L413 332M459 332L460 333L459 332M464 332L465 333L464 332M470 332L471 333L470 332M476 332L476 333L511 333L476 332z"/>
<path style="fill:#fbfbfa; stroke:none;" d="M0 394L0 512L512 512L512 394L511 394C508.056 408.038 496.77 419.116 483 422.841C473.292 425.467 461.988 424 452 424L395 424L110 424L53 424C40.2743 424 28.0785 424.883 17.0008 417.402C7.80876 411.194 5.3817 402.795 0 394z"/>
</svg>
