<?xml version="1.0" standalone="yes"?>
<svg xmlns="http://www.w3.org/2000/svg" width="512" height="512">
<path style="fill:#fbfbfb; stroke:none;" d="M0 0L0 118L1 118C3.94396 103.962 15.2304 92.8838 29 89.1589C37.8345 86.7691 47.9178 88 57 88L109 88L414 88C444.728 88 502.335 76.6818 511 118L512 118L512 0L0 0z"/>
<path style="fill:#ff4b55; stroke:none;" d="M0 200L512 200L512 139C512 122.973 512.346 108.145 498.91 96.8194C487.227 86.9705 473.285 88 459 88L389 88L119 88L53 88C39.5946 88 26.4562 86.9109 15.0147 95.3009C-0.068121 106.361 0 122.141 0 139L0 200z"/>
<path style="fill:#fbfbfb; stroke:none;" d="M0 200L0 312L512 312L512 200L0 200z"/>
<path style="fill:#aece6e; stroke:none;" d="M315.667 214.333L316.333 214.667L315.667 214.333z"/>
<path style="fill:#75b005; stroke:none;" d="M315 215L317 224L318 224L318 215L315 215z"/>
<path style="fill:#aece6e; stroke:none;" d="M318 216L318 220L319 220L318 216M315.333 219.667L315.667 220.333L315.333 219.667M318 221L318 224L319 224L318 221M316.333 222.667L316.667 223.333L316.333 222.667M349 223L350 224L349 223M259 224L260 225L259 224M317 224L318 225L317 224z"/>
<path style="fill:#75b005; stroke:none;" d="M348 224L348 282C352.191 282 362.035 283.823 365.357 280.972C372.661 274.704 359.739 268.642 355 269L355 240L355.307 228.329L348 224z"/>
<path style="fill:#aece6e; stroke:none;" d="M351 224L352 225L351 224M221 225L222 226L221 225z"/>
<path style="fill:#75b005; stroke:none;" d="M239 257L241 257C241.833 260.55 242.604 264.75 238.852 266.972C234.822 269.359 227.523 268 223 268C210.596 268 196.156 271.028 184.005 268.772C178.577 267.764 179.107 260.577 174.911 259.921C170.431 259.222 172.079 267.485 167.887 268.682C161.115 270.616 154.553 262.669 149.319 264.662C144.178 266.619 150.956 278.041 150.254 282C149.603 285.67 146.52 288.661 145 292L146 293C153.263 291.163 156.135 282.667 163.005 282.059C182.671 280.317 203.25 282 223 282C229.357 282 241.267 284.279 246.852 280.972C254.939 276.184 250.8 252.774 242 250.302C234.086 248.08 231.9 257.585 225.945 259.427C217.51 262.037 205.799 260 197 260L210 247C212.621 244.38 215.221 241.741 218 239.285C219.622 237.852 231.949 223.437 221.945 225.89C212.288 228.259 200.731 244.067 194.015 251C191.541 253.555 187.826 256.909 188.542 260.895C189.69 267.278 199.399 266 204 266C216.53 266 235.573 271.175 239 257z"/>
<path style="fill:#aece6e; stroke:none;" d="M257 225L258 226L257 225z"/>
<path style="fill:#75b005; stroke:none;" d="M264 269L264 251L264 240C264.005 236.593 265.475 231.406 264.307 228.228C263.075 224.877 258.38 224.594 257.318 228.149C254.018 239.199 257 255.451 257 267C257 270.605 255.363 279.451 259.318 281.397C273.67 288.459 281.438 267.684 264 269z"/>
<path style="fill:#aece6e; stroke:none;" d="M262 225L263 226L262 225M325 226L325 227L327 229L328 229L327 225L325 226M347 225L347 281L348 281L348 243L347 225M353 225L354 226L353 225M219 226L220 227L219 226z"/>
<path style="fill:#75b005; stroke:none;" d="M326 226C322.24 229.935 312.496 230.868 307 231C310.574 236.058 329.261 234.687 326 226z"/>
<path style="fill:#aece6e; stroke:none;" d="M354 226L355 227L354 226M218 227L219 228L218 227M226.333 227.667L226.667 228.333L226.333 227.667M256 227L256 280L257 280L257 244L256 227M336 228L336 229L340 228L336 228M217 228L218 229L217 228M265.333 228.667L265.667 229.333L265.333 228.667M316 228L317 229L316 228M319 228L320 229L319 228M324 228L325 229L324 228z"/>
<path style="fill:#75b005; stroke:none;" d="M327 238C316.622 243.002 323.248 255.103 320.566 263.937C317.891 272.748 315.013 259.848 314.999 257C314.986 254.154 314.804 251.72 314 249C308.297 251.699 308.167 255.36 307 261C297.755 258.697 288.43 273.223 295.603 280.397C299.23 284.023 310.238 282 315 282C320.467 282 333.991 284.462 338.397 280.972C341.478 278.532 340 270.476 340 267L340 228C325.648 230.968 336.865 255.131 332.401 264.793C329.027 272.097 328 251.841 328 250C328 245.882 328.171 241.963 327 238z"/>
<path style="fill:#aece6e; stroke:none;" d="M216 229L217 230L216 229M315 229L316 230L315 229M322 229L323 230L322 229M340 229L340 280L341 280C341 265.689 345.508 242.127 340 229M215 230L216 231L215 230M226 230L227 231L226 230M306 232L314 231L306 232M214 231L215 232L214 231M264 231L264 269L265 269C265 258.089 268.211 241.036 264 231M326 231L327 232L326 231M333 231L334 232L333 231M355 231L355 269L356 269C356 258.089 359.211 241.036 355 231M213 232L214 233L213 232M225 232L226 233L225 232M317.667 232.333L318.333 232.667L317.667 232.333M325 232L326 233L325 232M212 233L213 234L212 233M224 233L225 234L224 233M308 233L309 234L308 233M315 233L316 234L315 233M321 233L321 234L324 234L321 233M310 234L310 235L314 235L310 234M326 237L327 238L326 237M218 238L219 239L218 238M324 238L325 239L324 238M327 238L328 239L327 238M205 239L206 240L205 239M217 239L218 240L217 239M323 239L324 240L323 239M204 240L205 241L204 240M216 240L217 241L216 240M322 240L323 241L322 240M203 241L204 242L203 241M215 241L216 242L215 241M321 241L322 242L321 241M202 242L203 243L202 242M214 242L215 243L214 242M320 242L320 266L321 266L320 242M201 243L202 244L201 243M213 243L214 244L213 243M200 244L201 245L200 244M199 245L200 246L199 245M198 246L199 247L198 246M197 247L198 248L197 247M196 248L197 249L196 248M313 248L314 249L313 248M195 249L196 250L195 249M239 249L240 250L239 249M241 249L242 250L241 249M311 249L312 250L311 249M314 249L315 250L314 249M194 250L195 251L194 250M237 250L238 251L237 250M310 250L311 251L310 250M193 251L194 252L193 251M234.667 251.333L235.333 251.667L234.667 251.333M244 251L245 252L244 251M309 251L310 252L309 251M192 252L193 253L192 252M308 252L309 253L308 252M231 253L232 254L231 253M247 253L248 254L247 253M307 253L308 254L307 253M248 254L249 255L248 254M306 254L307 255L306 254M230 255L231 256L230 255M249 255L250 256L249 255M307 255L307 260L308 260L307 255M188 257L189 258L188 257M229.333 257.667L229.667 258.333L229.333 257.667M239.667 257.333L240.333 257.667L239.667 257.333M238 258L238 262L239 262L238 258M241 258L242 259L241 258M172 259L173 260L172 259M176 259L177 260L176 259M197 259L198 260L197 259M203 259L203 260L227 260L203 259M171 260L172 261L171 260M177 260L178 261L177 260M300.667 260.333L301.333 260.667L300.667 260.333M306 260L307 261L306 260M298 261L299 262L298 261M188 262L189 263L188 262M297 262L298 263L297 262M149 263L149 264L152 264L149 263M296 263L297 264L296 263M153 264L154 265L153 264M171 264L171 267L172 267L171 264M190 264L191 265L190 264M154 265L155 266L154 265M191.667 265.333L192.333 265.667L191.667 265.333M237 265L238 266L237 265M241 265L242 266L241 265M295 265L296 266L295 265M303 266L303 268L306 269L306 268L307 266L303 266M146 266L146 269L147 269L146 266M178 266L179 267L178 266z"/>
<path style="fill:#fbfbfb; stroke:none;" d="M304 266L304 268L307 268L307 266L304 266z"/>
<path style="fill:#aece6e; stroke:none;" d="M315 266L316 267L315 266M328 266L329 267L328 266M332 266L333 267L332 266M156 267L157 268L156 267M179 267L180 268L179 267M239 267L240 268L239 267M294 267L294 270L295 270L294 267M316 267L317 268L316 267M318.667 267.333L319.333 267.667L318.667 267.333M329 267L330 268L329 267M331 267L332 268L331 267M158.667 268.333L159.333 268.667L158.667 268.333M169.667 268.333L170.333 268.667L169.667 268.333M181 268L181 269L201 269L181 268M268 268L269 269L268 268M272 268L273 269L272 268M359 268L360 269L359 268M363 268L364 269L363 268M147 270L148 271L147 270M273.333 270.667L273.667 271.333L273.333 270.667M364.333 270.667L364.667 271.333L364.333 270.667M148 272L149 273L148 272M274.333 273.667L274.667 274.333L274.333 273.667M365.333 273.667L365.667 274.333L365.333 273.667M149 275L150 276L149 275M275 276L275 279L276 279L275 276M366 277L367 278L366 277M150 279L150 283L151 283L150 279M249 279L250 280L249 279M248 280L249 281L248 280M274 280L275 281L274 280M294 280L295 281L294 280M247 281L248 282L247 281M257 281L258 282L257 281M273 281L274 282L273 281M295 281L296 282L295 281M339 281L340 282L339 281M158 282L158 283L245 283L218 282L158 282M259 282L259 283L272 283L259 282M297 282L297 283L337 283C326.488 278.589 308.434 282 297 282M349 282L349 283L365 283L349 282M157 283L158 284L157 283M149 285L150 286L149 285M156 286L157 287L156 286M168.667 286.333L169.333 286.667L168.667 286.333M155 287L156 288L155 287z"/>
<path style="fill:#75b005; stroke:none;" d="M167 287C167.705 291.025 169.906 291.645 172 288L167 287z"/>
<path style="fill:#aece6e; stroke:none;" d="M171 287L172 288L171 287M146 288L147 289L146 288M166.333 288.667L166.667 289.333L166.333 288.667M145 289L146 290L145 289M152 290L153 291L152 290M171 290L172 291L171 290M151 291L152 292L151 291M168 291L169 292L168 291M170 291L171 292L170 291M145 292L146 293L145 292M148.667 292.333L149.333 292.667L148.667 292.333z"/>
<path style="fill:#474755; stroke:none;" d="M0 312L0 373C0 389.027 -0.345953 403.855 13.0895 415.181C24.7733 425.03 38.7154 424 53 424L123 424L393 424L459 424C472.405 424 485.544 425.089 496.985 416.699C512.068 405.639 512 389.859 512 373L512 312L0 312z"/>
<path style="fill:#fbfbfb; stroke:none;" d="M0 394L0 512L512 512L512 394L511 394C508.056 408.038 496.77 419.116 483 422.841C473.292 425.467 461.988 424 452 424L395 424L110 424L53 424C40.2743 424 28.0785 424.883 17.0008 417.402C7.80876 411.194 5.3817 402.795 0 394z"/>
</svg>
