<?xml version="1.0" standalone="yes"?>
<svg xmlns="http://www.w3.org/2000/svg" width="512" height="512">
<path style="fill:#fdfdfd; stroke:none;" d="M0 0L0 118L1 118C10.6173 76.5477 67.6123 88 99 88L403 88L455 88C464.082 88 474.166 86.7691 483 89.1589C496.77 92.8838 508.056 103.962 511 118L512 118L512 0L0 0z"/>
<path style="fill:#474755; stroke:none;" d="M15 95L15 97C58.5885 119.934 101.7 143.835 145 167.309C163.65 177.419 184.615 193.57 205 199.363C214.251 201.991 226.416 200 236 200L301 200L512 200L512 139C512 122.552 512.214 107.261 497.961 96.0432C486.135 86.7357 472.126 88 458 88L385 88L124 88L59 88C43.2276 88 29.1033 86.77 15 95z"/>
<path style="fill:#ff4b55; stroke:none;" d="M14.0008 97.446C8.84383 98.7736 4.63456 106.47 2.76003 111C-2.97844 124.869 0 143.23 0 158L0 349C0 365.118 -3.49186 385.891 2.76003 401C4.65585 405.582 9.96985 415.52 16 414.608C21.998 413.701 28.6542 408.025 34 405.258C49.4891 397.244 64.6609 388.605 80 380.309C132.349 351.994 184.439 323.139 237 295.22C254.058 286.159 271.174 277.061 288 267.576C292.094 265.268 303.364 261.721 303.364 256C303.364 250.395 292.968 247.252 289 245C273.177 236.018 256.821 227.981 241 219C185.019 187.223 128.005 156.644 71 126.745C57.2663 119.541 43.5092 112.19 30 104.576C26.2081 102.438 18.5091 96.2854 14.0008 97.446z"/>
<path style="fill:#fb9ca1; stroke:none;" d="M206 200L207 201L206 200z"/>
<path style="fill:#fdfdfd; stroke:none;" d="M207 200L207 201C232.457 211.97 256.506 227.769 281 240.78C285.746 243.301 303.515 249.779 303.515 256C303.515 262.221 285.746 268.699 281 271.22C256.506 284.231 232.457 300.03 207 311L207 312L512 312L512 200L207 200z"/>
<path style="fill:#fb9ca1; stroke:none;" d="M208 201L209 202L208 201M210 202L211 203L210 202M212 203L213 204L212 203M217 206L218 207L217 206M219 207L220 208L219 207M221 208L222 209L221 208M223 209L224 210L223 209M225 210L226 211L225 210M230 213L231 214L230 213M232 214L233 215L232 214M234 215L235 216L234 215M236 216L237 217L236 216M241 219L242 220L241 219M243 220L244 221L243 220M245 221L246 222L245 221M247 222L248 223L247 222M249 223L250 224L249 223M254 226L255 227L254 226M256 227L257 228L256 227M258 228L259 229L258 228M260 229L261 230L260 229M265 232L266 233L265 232M93 233L94 234L93 233z"/>
<path style="fill:#fdfdfd; stroke:none;" d="M94 233L89 245L76 242L81 255L71 263C82.1067 265.873 84 267.234 84 279L94 271L95 271L105 279C105 267.234 106.893 265.873 118 263L118 261L108 255L114 242L101.557 243.508L94 233z"/>
<path style="fill:#fb9ca1; stroke:none;" d="M95 233L96 234L95 233M267 233L268 234L267 233M269 234L270 235L269 234M92 235L93 236L92 235M96 235L97 236L96 235M271 235L272 236L271 235M273 236L274 237L273 236M91.3333 237.667L91.6667 238.333L91.3333 237.667M97 237L98 238L97 237M98 239L99 240L98 239M278 239L279 240L278 239M90 240L91 241L90 240M280 240L281 241L280 240M76 241L77 242L76 241M99.3333 241.667L99.6667 242.333L99.3333 241.667M112 241L113 242L112 241M282 241L283 242L282 241M75.3333 242.667L75.6667 243.333L75.3333 242.667M79.6667 242.333L80.3333 242.667L79.6667 242.333M89 242L90 243L89 242M108.667 242.333L109.333 242.667L108.667 242.333M284 242L285 243L284 242M83.6667 243.333L84.3333 243.667L83.6667 243.333M104.667 243.333L105.333 243.667L104.667 243.333M113 243L114 244L113 243M87.6667 244.333L88.3333 244.667L87.6667 244.333M101 244L102 245L101 244M76 245L77 246L76 245M112 245L113 246L112 245M289 245L290 246L289 245M291 246L292 247L291 246M77 247L78 248L77 247M111 247L112 248L111 247M293 247L294 248L293 247M295 248L296 249L295 248M78 249L79 250L78 249M110 249L111 250L110 249M297 249L298 250L297 249M79 251L80 252L79 251M109 251L110 252L109 251M302 252L303 253L302 252M80.3333 253.667L80.6667 254.333L80.3333 253.667M108.333 253.667L108.667 254.333L108.333 253.667M303 253L304 254L303 253M304.333 255.667L304.667 256.333L304.333 255.667M77 256L78 257L77 256M111 256L112 257L111 256M76 257L77 258L76 257M112 257L113 258L112 257M303 258L304 259L303 258M73 259L74 260L73 259M115 259L116 260L115 259M302 259L303 260L302 259M72 260L73 261L72 260M116 260L117 261L116 260M71 261L72 262L71 261M118 262L119 263L118 262M297 262L298 263L297 262M71.6667 263.333L72.3333 263.667L71.6667 263.333M116.667 263.333L117.333 263.667L116.667 263.333M295 263L296 264L295 263M76.6667 264.333L77.3333 264.667L76.6667 264.333M111.667 264.333L112.333 264.667L111.667 264.333M293 264L294 265L293 264M80 265L80 266L83 266L80 265M106 265L106 266L109 266L106 265M291 265L292 266L291 265M83 266L83 279L84 279L83 266M105 266L105 279L106 279L105 266M289 266L290 267L289 266M284 269L285 270L284 269M282 270L283 271L282 270M94 271L95 272L94 271M280 271L281 272L280 271M278 272L279 273L278 272M91 273L92 274L91 273M97 273L98 274L97 273M90 274L91 275L90 274M98 274L99 275L98 274M89 275L90 276L89 275M99 275L100 276L99 275M273 275L274 276L273 275M271 276L272 277L271 276M102 277L103 278L102 277M269 277L270 278L269 277M85 278L86 279L85 278M103 278L104 279L103 278M267 278L268 279L267 278M265 279L266 280L265 279M260 282L261 283L260 282M258 283L259 284L258 283M256 284L257 285L256 284M254 285L255 286L254 285M249 288L250 289L249 288M247 289L248 290L247 289M245 290L246 291L245 290M243 291L244 292L243 291M241 292L242 293L241 292M236 295L237 296L236 295M234 296L235 297L234 296M232 297L233 298L232 297M230 298L231 299L230 298M225 301L226 302L225 301M223 302L224 303L223 302M221 303L222 304L221 303M219 304L220 305L219 304M217 305L218 306L217 305M212 308L213 309L212 308M210 309L211 310L210 309M208 310L209 311L208 310M206 311L207 312L206 311z"/>
<path style="fill:#73af01; stroke:none;" d="M15 415L15 417C29.1033 425.23 43.2276 424 59 424L124 424L385 424L458 424C472.126 424 486.135 425.264 497.961 415.957C512.213 404.739 512 389.448 512 373L512 312L301 312L236 312C226.435 312 214.225 309.987 205 312.638C185.251 318.313 165.09 333.907 147 343.691C103.021 367.479 59.2491 391.718 15 415z"/>
<path style="fill:#fb9ca1; stroke:none;" d="M197 316L198 317L197 316M173 329L174 330L173 329M149 342L150 343L149 342M125 355L126 356L125 355M101 368L102 369L101 368M77 381L78 382L77 381z"/>
<path style="fill:#fdfdfd; stroke:none;" d="M0 394L0 512L512 512L512 394L511 394C508.056 408.038 496.77 419.116 483 422.841C473.292 425.467 461.988 424 452 424L395 424L111 424L53 424C40.8076 424 28.7244 425.018 18 418.034C8.4288 411.801 5.64271 402.965 0 394z"/>
<path style="fill:#fb9ca1; stroke:none;" d="M53 394L54 395L53 394M29 407L30 408L29 407z"/>
</svg>
