<svg width="56" height="56" viewBox="0 0 56 56" fill="none" xmlns="http://www.w3.org/2000/svg">
<path d="M23.3332 7.46646C19.6831 8.31262 16.326 10.1199 13.6099 12.7009C10.8938 15.2819 8.9177 18.5426 7.88657 22.1447C6.85544 25.7469 6.80683 29.5593 7.74578 33.1865C8.68473 36.8138 10.577 40.1238 13.2264 42.7732C15.8758 45.4226 19.1858 47.3149 22.8131 48.2539C26.4404 49.1928 30.2528 49.1442 33.8549 48.1131C37.4571 47.0819 40.7177 45.1058 43.2987 42.3897C45.8797 39.6737 47.687 36.3165 48.5332 32.6665C48.5332 32.0476 48.2873 31.4541 47.8497 31.0165C47.4122 30.579 46.8187 30.3331 46.1998 30.3331H30.3332C29.0955 30.3331 27.9085 29.8415 27.0333 28.9663C26.1582 28.0911 25.6665 26.9041 25.6665 25.6665V9.33313C25.6375 9.05669 25.5539 8.78875 25.4206 8.54486C25.2873 8.30096 25.1069 8.08596 24.8898 7.91232C24.6728 7.73868 24.4234 7.60986 24.1562 7.53333C23.889 7.45679 23.6092 7.43406 23.3332 7.46646Z" stroke="#04252E" stroke-width="3.5" stroke-linecap="round" stroke-linejoin="round"/>
<path d="M35 8.1665C37.9627 9.2097 40.6536 10.9042 42.8746 13.1252C45.0956 15.3462 46.7901 18.0372 47.8333 20.9998H37.3333C36.7145 20.9998 36.121 20.754 35.6834 20.3164C35.2458 19.8788 35 19.2853 35 18.6665V8.1665Z" stroke="#04252E" stroke-width="3.5" stroke-linecap="round" stroke-linejoin="round"/>
</svg>
