<?xml version="1.0" standalone="yes"?>
<svg xmlns="http://www.w3.org/2000/svg" width="512" height="512">
<path style="fill:#f4f9f9; stroke:none;" d="M0 0L0 120L1 120C8.21954 71.8344 72.8131 82 107 82L415 82C447.7 82 504.208 74.6871 511 120L512 120L512 0L0 0z"/>
<path style="fill:#298f39; stroke:none;" d="M91 198L429 198C420.556 192.841 408.482 191.125 399 188.28C377.662 181.878 356.274 175.584 335 168.975C258.84 145.312 182.129 123.42 106 99.6589C81.6165 92.0485 49.571 74.996 25 87.7855C18.3449 91.2496 8.09626 98.1721 6.15741 106C4.37487 113.197 21.3634 125.363 26 130L72 176C78.2122 182.212 88.57 189.342 91 198z"/>
<path style="fill:#177321; stroke:none;" d="M51 82L51 83C70.2195 91.2713 91.9571 95.6821 112 101.72C151.68 113.673 191.306 125.811 231 137.72C277.025 151.529 322.883 165.92 369 179.424C388.938 185.263 409.497 194.325 430 197.675C455.941 201.914 485.692 198 512 198L512 146C512 127.597 512.268 110.004 497.91 96.1736C483.702 82.4884 464.52 82 446 82L376 82L51 82z"/>
<path style="fill:#298f39; stroke:none;" d="M463 82L463 83L467 83L463 82M473.667 83.3333L474.333 83.6667L473.667 83.3333M476.667 84.3333L477.333 84.6667L476.667 84.3333M480.667 85.3333L481.333 85.6667L480.667 85.3333M483 86L484 87L483 86M485 87L486 88L485 87M487 88L488 89L487 88M489 89L490 90L489 89M490 90L491 91L490 90M492 91L493 92L492 91M493 92L494 93L493 92M494 93L495 94L494 93M496 94L497 95L496 94M497 95L498 96L497 95M498 96L499 97L498 96M499 97L500 98L499 97M501 100L502 101L501 100M502 101L503 102L502 101M503 102L504 103L503 102M504.333 103.667L504.667 104.333L504.333 103.667M505 105L506 106L505 105M506 107L507 108L506 107z"/>
<path style="fill:#177321; stroke:none;" d="M4 109L2 116L3 116L5 110L61 166L91 195C75.6966 173.275 51.805 154.805 33 136C24.434 127.434 15.0323 114.145 4 109z"/>
<path style="fill:#298f39; stroke:none;" d="M507 109L508 110L507 109z"/>
<path style="fill:#1d1d1d; stroke:none;" d="M5 110C-5.96103 130.885 0 164.039 0 187L0 331C0 354.256 -4.21528 381.96 4 404C12.0851 400.198 18.681 390.319 25 384L69 340C75.3494 333.651 87.247 325.542 90.3966 317C92.6757 310.818 91 301.538 91 295L91 246C91 231.767 95.3111 209.329 90.3966 196C87.0013 186.791 73.8585 177.859 67 171C47.2431 151.243 27.823 126.077 5 110z"/>
<path style="fill:#298f39; stroke:none;" d="M508 111L509 112L508 111M509.333 113.667L509.667 114.333L509.333 113.667M1 116L2 117L1 116M510.333 116.667L510.667 117.333L510.333 116.667z"/>
<path style="fill:#177321; stroke:none;" d="M1 117L1 120L2 120L1 117z"/>
<path style="fill:#298f39; stroke:none;" d="M0 120L1 121L0 120M511 120L511 123L512 123L511 120z"/>
<path style="fill:#177321; stroke:none;" d="M0 121L0 127L1 127L0 121z"/>
<path style="fill:#f4f9f9; stroke:none;" d="M91 198L91 314L512 314L512 198L91 198z"/>
<path style="fill:#c61818; stroke:none;" d="M91 314C88.57 322.658 78.2122 329.788 72 336L26 382C21.3443 386.656 4.06162 399.522 6.60417 407C11.8051 422.296 32.9536 428.493 47 429.83C89.1835 433.847 133.607 430 176 430L411 430C440.191 430 480.28 437.488 501.815 412.999C512.224 401.162 512 386.774 512 372L512 314L91 314z"/>
<path style="fill:#f4f9f9; stroke:none;" d="M0 392L0 512L512 512L512 392L511 392C504.409 436.627 450.555 430 418 430L394 430L113 430C83.4861 430 40.1506 438.206 16.0394 417.535C7.45117 410.173 5.01064 401.353 0 392z"/>
</svg>
