<?xml version="1.0" standalone="yes"?>
<svg xmlns="http://www.w3.org/2000/svg" width="512" height="512">
<path style="fill:#fafafa; stroke:none;" d="M0 0L0 118L1 118C3.94396 103.962 15.2304 92.8838 29 89.1589C37.8345 86.7691 47.9178 88 57 88L109 88L414 88C444.728 88 502.335 76.6818 511 118L512 118L512 0L0 0z"/>
<path style="fill:#ff4b55; stroke:none;" d="M0 159L512 159C512 134.4 517.298 103.662 490 91.3133C477.879 85.8301 462.982 88 450 88L373 88L129 88L60 88C47.9696 88 34.3249 86.0916 23 90.8758C-5.26162 102.815 0 133.991 0 159z"/>
<path style="fill:#fafafa; stroke:none;" d="M0 159L0 353L191 353C198.641 353 209.792 355.054 217 352.397C228.429 348.183 240.365 330.628 236.682 318.147C235.111 312.825 221.665 312.533 217 311.6L166 301.4C160.117 300.223 150.766 299.501 149.542 291.999C147.865 281.718 164.622 281.483 171 280.414C189.276 277.349 207.65 274.45 226 271.87C230.619 271.22 242.441 271.362 244.914 266.726C248.945 259.166 233.899 261.9 231 262.282C218.664 263.904 206.353 265.672 194 267.155C189.877 267.65 184.055 269.73 180.019 268.357C166.656 263.811 186.361 251.283 192 250.015C196.972 248.896 202.003 247.999 207 247C214.567 245.487 222.306 243.612 230 243L230 242C220.661 242.401 211.36 243.897 202 244.011C199.304 244.044 194.471 244.832 193.037 241.732C191.105 237.554 197.951 233.572 201 232.483C211.99 228.559 226.385 225.924 238 225L238 224C233.166 224 212.273 226.448 210.346 220.683C209.291 217.529 213.724 214.691 216.001 213.569C222.779 210.227 231.619 208.528 239 207L239 206C234.634 206 222.74 208.074 219.712 204.397C213.88 197.314 235.201 191.879 239 191L239 190C217.656 188.831 246.858 168.781 256 168.781C265.142 168.781 294.344 188.831 273 190L273 191C276.799 191.879 298.12 197.314 292.288 204.397C289.26 208.074 277.366 206 273 206L273 207C280.381 208.528 289.221 210.227 295.999 213.569C298.276 214.691 302.709 217.529 301.654 220.683C299.727 226.448 278.834 224 274 224L274 225C285.615 225.924 300.01 228.559 311 232.483C314.049 233.572 320.895 237.554 318.963 241.732C317.529 244.832 312.696 244.044 310 244.011C300.64 243.897 291.339 242.401 282 242L282 243C289.694 243.612 297.433 245.487 305 247C309.997 247.999 315.028 248.896 320 250.015C325.639 251.283 345.344 263.811 331.981 268.357C327.945 269.73 322.123 267.65 318 267.155C305.647 265.672 293.336 263.904 281 262.282C278.101 261.9 263.055 259.166 267.086 266.726C269.559 271.362 281.381 271.22 286 271.87C304.35 274.45 322.724 277.349 341 280.414C347.378 281.483 364.135 281.718 362.458 291.999C361.234 299.501 351.883 300.223 346 301.4L295 311.6C290.335 312.533 276.889 312.825 275.318 318.147C271.635 330.628 283.571 348.183 295 352.397C302.208 355.054 313.359 353 321 353L512 353L512 159L0 159z"/>
<path style="fill:#a5ca5f; stroke:none;" d="M254 168L255 169L254 168z"/>
<path style="fill:#73af02; stroke:none;" d="M243 189L243 190C238.268 191.095 215.912 195.819 219.256 203.682C221.262 208.4 237.653 206 242 206L242 207C233.603 207.732 223.858 210.731 216.004 213.814C213.425 214.826 208.034 217.956 210.851 221.4C214.809 226.239 234.712 222.833 241 224L241 225C228.261 225.548 214.353 229.502 202 232.666C198.59 233.539 190.512 236.653 193.137 241.683C195.159 245.559 201.725 243.481 205 243.17C215.516 242.169 226.445 241.218 237 241L237 242C228.588 242.669 220.297 245.079 212 246.576C206.321 247.6 200.66 248.668 195 249.8C188.363 251.128 182.77 252.538 178.232 258.015C175.379 261.459 174.816 266.308 180.044 267.681C185.122 269.016 191.886 266.948 197 266.282C208.332 264.805 219.681 263.443 231 261.87C234.218 261.422 247.49 258.597 245.539 265.96C243.904 272.134 227.18 272.286 222 273C200.944 275.9 176.207 276.871 156.005 283.394C149.759 285.411 147.505 293.033 153.144 297.272C156.603 299.872 161.882 300.177 166 301L179 303.6L203 308.4C214.268 310.654 225.605 313.529 237 315L235.08 334L219 353L293 353L276.92 334L275 315C286.395 313.528 297.732 310.654 309 308.4L333 303.6L346 301C350.118 300.177 355.397 299.872 358.856 297.272C364.495 293.033 362.241 285.411 355.995 283.394C335.793 276.871 311.056 275.9 290 273C284.849 272.291 268.054 272.125 266.461 265.958C264.589 258.706 277.739 261.455 281 261.845C292.346 263.203 303.669 264.805 315 266.282C320.114 266.948 326.878 269.016 331.956 267.681C337.184 266.308 336.621 261.459 333.768 258.015C329.23 252.538 323.637 251.128 317 249.8C311.34 248.668 305.679 247.6 300 246.576C291.703 245.079 283.412 242.669 275 242L275 241C285.555 241.218 296.484 242.169 307 243.17C310.275 243.481 316.841 245.559 318.863 241.683C321.488 236.653 313.41 233.539 310 232.666C297.647 229.502 283.739 225.548 271 225L271 224C277.288 222.833 297.191 226.239 301.149 221.4C303.966 217.956 298.575 214.826 295.996 213.814C288.142 210.731 278.397 207.732 270 207L270 206C274.688 206 289.095 208.381 292.208 204.397C294.307 201.709 291.055 198.263 288.945 196.843C283.599 193.244 275.234 191.442 269 190C272.235 189.044 279.07 190.021 280.914 186.682C284.582 180.041 260.335 168.15 255 168.85C243.07 170.417 217.658 189 243 189z"/>
<path style="fill:#a5ca5f; stroke:none;" d="M257 168L258 169L257 168z"/>
<path style="fill:#c7dd9f; stroke:none;" d="M252 169L253 170L252 169M259 169L260 170L259 169M250 170L251 171L250 170M261 170L262 171L261 170M248 171L249 172L248 171M263 171L264 172L263 171M246 172L247 173L246 172M265 172L266 173L265 172M244 173L245 174L244 173M267 173L268 174L267 173M242 174L243 175L242 174z"/>
<path style="fill:#a5ca5f; stroke:none;" d="M243 174L244 175L243 174M268 174L269 175L268 174z"/>
<path style="fill:#c7dd9f; stroke:none;" d="M269 174L270 175L269 174M240 175L241 176L240 175z"/>
<path style="fill:#a5ca5f; stroke:none;" d="M241 175L242 176L241 175M270 175L271 176L270 175z"/>
<path style="fill:#c7dd9f; stroke:none;" d="M271 175L272 176L271 175M238 176L239 177L238 176z"/>
<path style="fill:#a5ca5f; stroke:none;" d="M239 176L240 177L239 176M272 176L273 177L272 176z"/>
<path style="fill:#c7dd9f; stroke:none;" d="M273 176L274 177L273 176M236 177L237 178L236 177z"/>
<path style="fill:#a5ca5f; stroke:none;" d="M237 177L238 178L237 177M274 177L275 178L274 177z"/>
<path style="fill:#c7dd9f; stroke:none;" d="M275 177L276 178L275 177z"/>
<path style="fill:#a5ca5f; stroke:none;" d="M235 178L236 179L235 178M276 178L277 179L276 178z"/>
<path style="fill:#c7dd9f; stroke:none;" d="M233 179L234 180L233 179M278 179L279 180L278 179z"/>
<path style="fill:#a5ca5f; stroke:none;" d="M232 180L233 181L232 180M279 180L280 181L279 180M231 181L232 182L231 181M280 181L281 182L280 181z"/>
<path style="fill:#c7dd9f; stroke:none;" d="M230 182L231 183L230 182M281 182L282 183L281 182M229 184L229 187L230 187L229 184M282 184L282 187L283 187L282 184z"/>
<path style="fill:#a5ca5f; stroke:none;" d="M230 187L231 188L230 187M281 187L282 188L281 187M231 188L232 189L231 188M280 188L281 189L280 188z"/>
<path style="fill:#c7dd9f; stroke:none;" d="M233 189L233 190L242 190L233 189z"/>
<path style="fill:#a5ca5f; stroke:none;" d="M242 189L243 190L242 189M269 189L270 190L269 189z"/>
<path style="fill:#c7dd9f; stroke:none;" d="M270 189L270 190L279 190L270 189z"/>
<path style="fill:#a5ca5f; stroke:none;" d="M240 190L241 191L240 190M271 190L272 191L271 190z"/>
<path style="fill:#c7dd9f; stroke:none;" d="M236 191L237 192L236 191z"/>
<path style="fill:#a5ca5f; stroke:none;" d="M237 191L238 192L237 191M274 191L275 192L274 191z"/>
<path style="fill:#c7dd9f; stroke:none;" d="M275 191L276 192L275 191M233 192L234 193L233 192z"/>
<path style="fill:#a5ca5f; stroke:none;" d="M234 192L235 193L234 192M277 192L278 193L277 192z"/>
<path style="fill:#c7dd9f; stroke:none;" d="M278 192L279 193L278 192M230 193L231 194L230 193z"/>
<path style="fill:#a5ca5f; stroke:none;" d="M231 193L232 194L231 193M280 193L281 194L280 193z"/>
<path style="fill:#c7dd9f; stroke:none;" d="M281 193L282 194L281 193M227 194L228 195L227 194z"/>
<path style="fill:#a5ca5f; stroke:none;" d="M228 194L229 195L228 194M283 194L284 195L283 194z"/>
<path style="fill:#c7dd9f; stroke:none;" d="M284 194L285 195L284 194M224 195L225 196L224 195z"/>
<path style="fill:#a5ca5f; stroke:none;" d="M225 195L226 196L225 195M286 195L287 196L286 195z"/>
<path style="fill:#c7dd9f; stroke:none;" d="M287 195L288 196L287 195M222 196L223 197L222 196M289 196L290 197L289 196z"/>
<path style="fill:#a5ca5f; stroke:none;" d="M221 197L222 198L221 197M290 197L291 198L290 197M220 198L221 199L220 198M291 198L292 199L291 198z"/>
<path style="fill:#c7dd9f; stroke:none;" d="M219 199L220 200L219 199M292 199L293 200L292 199z"/>
<path style="fill:#a5ca5f; stroke:none;" d="M218 201L219 202L218 201M293.333 201.667L293.667 202.333L293.333 201.667M218 204L219 205L218 204M293 204L294 205L293 204M219 205L220 206L219 205M292 205L293 206L292 205z"/>
<path style="fill:#c7dd9f; stroke:none;" d="M239 206L240 207L239 206z"/>
<path style="fill:#a5ca5f; stroke:none;" d="M240.667 206.333L241.333 206.667L240.667 206.333M270.667 206.333L271.333 206.667L270.667 206.333z"/>
<path style="fill:#c7dd9f; stroke:none;" d="M272 206L273 207L272 206M236 207L237 208L236 207z"/>
<path style="fill:#a5ca5f; stroke:none;" d="M237 207L238 208L237 207M274 207L275 208L274 207z"/>
<path style="fill:#c7dd9f; stroke:none;" d="M275 207L276 208L275 207M232.667 208.333L233.333 208.667L232.667 208.333z"/>
<path style="fill:#a5ca5f; stroke:none;" d="M234 208L235 209L234 208M277 208L278 209L277 208z"/>
<path style="fill:#c7dd9f; stroke:none;" d="M278.667 208.333L279.333 208.667L278.667 208.333M229 209L230 210L229 209z"/>
<path style="fill:#a5ca5f; stroke:none;" d="M230 209L231 210L230 209M281 209L282 210L281 209z"/>
<path style="fill:#c7dd9f; stroke:none;" d="M282 209L283 210L282 209M225.667 210.333L226.333 210.667L225.667 210.333z"/>
<path style="fill:#a5ca5f; stroke:none;" d="M227 210L228 211L227 210M284 210L285 211L284 210z"/>
<path style="fill:#c7dd9f; stroke:none;" d="M285.667 210.333L286.333 210.667L285.667 210.333M222 211L223 212L222 211z"/>
<path style="fill:#a5ca5f; stroke:none;" d="M223 211L224 212L223 211M288 211L289 212L288 211z"/>
<path style="fill:#c7dd9f; stroke:none;" d="M289 211L290 212L289 211M218.667 212.333L219.333 212.667L218.667 212.333z"/>
<path style="fill:#a5ca5f; stroke:none;" d="M220 212L221 213L220 212M291 212L292 213L291 212z"/>
<path style="fill:#c7dd9f; stroke:none;" d="M292.667 212.333L293.333 212.667L292.667 212.333M215 213L216 214L215 213z"/>
<path style="fill:#a5ca5f; stroke:none;" d="M216 213L217 214L216 213M295 213L296 214L295 213z"/>
<path style="fill:#c7dd9f; stroke:none;" d="M296 213L297 214L296 213M213 214L214 215L213 214M298 214L299 215L298 214z"/>
<path style="fill:#a5ca5f; stroke:none;" d="M212 215L213 216L212 215M299 215L300 216L299 215M209 218L210 219L209 218M302 218L303 219L302 218M209 220L210 221L209 220M302 220L303 221L302 220z"/>
<path style="fill:#c7dd9f; stroke:none;" d="M209 221L210 222L209 221M302 221L303 222L302 221M210 222L211 223L210 222M301 222L302 223L301 222M217 223L217 224L228 224L217 223z"/>
<path style="fill:#a5ca5f; stroke:none;" d="M228 223L228 224L241 225L228 223M271 224L271 225L284 224L271 224z"/>
<path style="fill:#c7dd9f; stroke:none;" d="M284 223L284 224L295 224L284 223M238 224L239 225L238 224M273 224L274 225L273 224M233.667 225.333L234.333 225.667L233.667 225.333z"/>
<path style="fill:#a5ca5f; stroke:none;" d="M235 225L236 226L235 225M276 225L277 226L276 225z"/>
<path style="fill:#c7dd9f; stroke:none;" d="M277.667 225.333L278.333 225.667L277.667 225.333M228.667 226.333L229.333 226.667L228.667 226.333z"/>
<path style="fill:#a5ca5f; stroke:none;" d="M230 226L231 227L230 226M281 226L282 227L281 226z"/>
<path style="fill:#c7dd9f; stroke:none;" d="M282.667 226.333L283.333 226.667L282.667 226.333M224 227L225 228L224 227z"/>
<path style="fill:#a5ca5f; stroke:none;" d="M225.667 227.333L226.333 227.667L225.667 227.333M285.667 227.333L286.333 227.667L285.667 227.333z"/>
<path style="fill:#c7dd9f; stroke:none;" d="M287 227L288 228L287 227M219 228L220 229L219 228z"/>
<path style="fill:#a5ca5f; stroke:none;" d="M220.667 228.333L221.333 228.667L220.667 228.333M290.667 228.333L291.333 228.667L290.667 228.333z"/>
<path style="fill:#c7dd9f; stroke:none;" d="M292 228L293 229L292 228M214.667 229.333L215.333 229.667L214.667 229.333z"/>
<path style="fill:#a5ca5f; stroke:none;" d="M216 229L217 230L216 229M295 229L296 230L295 229z"/>
<path style="fill:#c7dd9f; stroke:none;" d="M296.667 229.333L297.333 229.667L296.667 229.333M209.667 230.333L210.333 230.667L209.667 230.333z"/>
<path style="fill:#a5ca5f; stroke:none;" d="M211 230L212 231L211 230M300 230L301 231L300 230z"/>
<path style="fill:#c7dd9f; stroke:none;" d="M301.667 230.333L302.333 230.667L301.667 230.333M204.667 231.333L205.333 231.667L204.667 231.333z"/>
<path style="fill:#a5ca5f; stroke:none;" d="M206.667 231.333L207.333 231.667L206.667 231.333M304.667 231.333L305.333 231.667L304.667 231.333z"/>
<path style="fill:#c7dd9f; stroke:none;" d="M306.667 231.333L307.333 231.667L306.667 231.333M200 232L201 233L200 232z"/>
<path style="fill:#a5ca5f; stroke:none;" d="M201.667 232.333L202.333 232.667L201.667 232.333M309.667 232.333L310.333 232.667L309.667 232.333z"/>
<path style="fill:#c7dd9f; stroke:none;" d="M311 232L312 233L311 232M197 233L198 234L197 233z"/>
<path style="fill:#a5ca5f; stroke:none;" d="M198 233L199 234L198 233M313 233L314 234L313 233z"/>
<path style="fill:#c7dd9f; stroke:none;" d="M314 233L315 234L314 233z"/>
<path style="fill:#a5ca5f; stroke:none;" d="M196 234L197 235L196 234M315 234L316 235L315 234M192 238L193 239L192 238M319 238L320 239L319 238z"/>
<path style="fill:#c7dd9f; stroke:none;" d="M191.333 240.667L191.667 241.333L191.333 240.667M320.333 240.667L320.667 241.333L320.333 240.667z"/>
<path style="fill:#a5ca5f; stroke:none;" d="M230 241L230 242L237 242L230 241M275 241L275 242L282 242L275 241M192 242L193 243L192 242M216 242L216 243L220 243L216 242z"/>
<path style="fill:#c7dd9f; stroke:none;" d="M220 242L220 243L225 243L220 242M230.667 242.333L231.333 242.667L230.667 242.333M280.667 242.333L281.333 242.667L280.667 242.333M287 242L287 243L292 243L287 242z"/>
<path style="fill:#a5ca5f; stroke:none;" d="M292 242L292 243L296 243L292 242M319 242L320 243L319 242M193 243L194 244L193 243M202 243L202 244L207 244L202 243z"/>
<path style="fill:#c7dd9f; stroke:none;" d="M207 243L207 244L211 244L207 243M225 243L226 244L225 243z"/>
<path style="fill:#a5ca5f; stroke:none;" d="M226.667 243.333L227.333 243.667L226.667 243.333M284.667 243.333L285.333 243.667L284.667 243.333z"/>
<path style="fill:#c7dd9f; stroke:none;" d="M286 243L287 244L286 243M301 243L301 244L305 244L301 243z"/>
<path style="fill:#a5ca5f; stroke:none;" d="M305 243L305 244L310 244L305 243M318 243L319 244L318 243z"/>
<path style="fill:#c7dd9f; stroke:none;" d="M195.667 244.333L196.333 244.667L195.667 244.333M220 244L221 245L220 244z"/>
<path style="fill:#a5ca5f; stroke:none;" d="M221.667 244.333L222.333 244.667L221.667 244.333M289.667 244.333L290.333 244.667L289.667 244.333z"/>
<path style="fill:#c7dd9f; stroke:none;" d="M291 244L292 245L291 244M315.667 244.333L316.333 244.667L315.667 244.333M214.667 245.333L215.333 245.667L214.667 245.333z"/>
<path style="fill:#a5ca5f; stroke:none;" d="M216.667 245.333L217.333 245.667L216.667 245.333M294.667 245.333L295.333 245.667L294.667 245.333z"/>
<path style="fill:#c7dd9f; stroke:none;" d="M296.667 245.333L297.333 245.667L296.667 245.333M209.667 246.333L210.333 246.667L209.667 246.333z"/>
<path style="fill:#a5ca5f; stroke:none;" d="M211.667 246.333L212.333 246.667L211.667 246.333M299.667 246.333L300.333 246.667L299.667 246.333z"/>
<path style="fill:#c7dd9f; stroke:none;" d="M301.667 246.333L302.333 246.667L301.667 246.333M204.667 247.333L205.333 247.667L204.667 247.333z"/>
<path style="fill:#a5ca5f; stroke:none;" d="M206 247L207 248L206 247M305 247L306 248L305 247z"/>
<path style="fill:#c7dd9f; stroke:none;" d="M306.667 247.333L307.333 247.667L306.667 247.333M199.667 248.333L200.333 248.667L199.667 248.333z"/>
<path style="fill:#a5ca5f; stroke:none;" d="M201 248L202 249L201 248M310 248L311 249L310 248z"/>
<path style="fill:#c7dd9f; stroke:none;" d="M311.667 248.333L312.333 248.667L311.667 248.333M194 249L195 250L194 249z"/>
<path style="fill:#a5ca5f; stroke:none;" d="M195.667 249.333L196.333 249.667L195.667 249.333M315.667 249.333L316.333 249.667L315.667 249.333z"/>
<path style="fill:#c7dd9f; stroke:none;" d="M317 249L318 250L317 249M189 250L190 251L189 250z"/>
<path style="fill:#a5ca5f; stroke:none;" d="M190.667 250.333L191.333 250.667L190.667 250.333M320.667 250.333L321.333 250.667L320.667 250.333z"/>
<path style="fill:#c7dd9f; stroke:none;" d="M322 250L323 251L322 250M186 251L187 252L186 251M325 251L326 252L325 251z"/>
<path style="fill:#a5ca5f; stroke:none;" d="M184 252L185 253L184 252M327 252L328 253L327 252z"/>
<path style="fill:#c7dd9f; stroke:none;" d="M182 253L183 254L182 253M329 253L330 254L329 253M181 254L182 255L181 254M330 254L331 255L330 254M180 255L181 256L180 255M331 255L332 256L331 255M179 256L180 257L179 256M332 256L333 257L332 256M178 257L179 258L178 257M333 257L334 258L333 257M177 258L178 259L177 258M334 258L335 259L334 258M176 259L177 260L176 259M335 259L336 260L335 259z"/>
<path style="fill:#a5ca5f; stroke:none;" d="M241 260L242 261L241 260M269.667 260.333L270.333 260.667L269.667 260.333M175 261L176 262L175 261M233 261L233 262L236 262L233 261z"/>
<path style="fill:#c7dd9f; stroke:none;" d="M236.667 261.333L237.333 261.667L236.667 261.333z"/>
<path style="fill:#a5ca5f; stroke:none;" d="M244 261L245 262L244 261M267 261L268 262L267 261z"/>
<path style="fill:#c7dd9f; stroke:none;" d="M274 261L274 262L277 262L274 261z"/>
<path style="fill:#a5ca5f; stroke:none;" d="M277.667 261.333L278.333 261.667L277.667 261.333M336 261L337 262L336 261M226.667 262.333L227.333 262.667L226.667 262.333z"/>
<path style="fill:#c7dd9f; stroke:none;" d="M228.667 262.333L229.333 262.667L228.667 262.333M245 262L246 263L245 262M266 262L267 263L266 262M282.667 262.333L283.333 262.667L282.667 262.333z"/>
<path style="fill:#a5ca5f; stroke:none;" d="M284 262L284 263L287 263L284 262M218.667 263.333L219.333 263.667L218.667 263.333z"/>
<path style="fill:#c7dd9f; stroke:none;" d="M220 263L220 264L223 264L220 263M289 263L289 264L292 264L289 263z"/>
<path style="fill:#a5ca5f; stroke:none;" d="M292.667 263.333L293.333 263.667L292.667 263.333M175 264L176 265L175 264M210 264L210 265L213 265L210 264z"/>
<path style="fill:#c7dd9f; stroke:none;" d="M213.667 264.333L214.333 264.667L213.667 264.333z"/>
<path style="fill:#a5ca5f; stroke:none;" d="M246 264L246 267L247 267L246 264M265 264L265 267L266 267L265 264z"/>
<path style="fill:#c7dd9f; stroke:none;" d="M297.667 264.333L298.333 264.667L297.667 264.333z"/>
<path style="fill:#a5ca5f; stroke:none;" d="M299 264L299 265L302 265L299 264M336 264L337 265L336 264z"/>
<path style="fill:#c7dd9f; stroke:none;" d="M175 265L176 266L175 265z"/>
<path style="fill:#a5ca5f; stroke:none;" d="M203.667 265.333L204.333 265.667L203.667 265.333z"/>
<path style="fill:#c7dd9f; stroke:none;" d="M205 265L205 266L208 266L205 265M304 265L304 266L307 266L304 265z"/>
<path style="fill:#a5ca5f; stroke:none;" d="M307.667 265.333L308.333 265.667L307.667 265.333z"/>
<path style="fill:#c7dd9f; stroke:none;" d="M336 265L337 266L336 265z"/>
<path style="fill:#a5ca5f; stroke:none;" d="M176 266L177 267L176 266M195 266L195 267L198 267L195 266z"/>
<path style="fill:#c7dd9f; stroke:none;" d="M198.667 266.333L199.333 266.667L198.667 266.333M312 266L312 267L315 267L312 266z"/>
<path style="fill:#a5ca5f; stroke:none;" d="M315.667 266.333L316.333 266.667L315.667 266.333M335 266L336 267L335 266M177 267L178 268L177 267M187 267L187 268L190 268L187 267z"/>
<path style="fill:#c7dd9f; stroke:none;" d="M190.667 267.333L191.333 267.667L190.667 267.333M245 267L246 268L245 267M266 267L267 268L266 267M320.667 267.333L321.333 267.667L320.667 267.333z"/>
<path style="fill:#a5ca5f; stroke:none;" d="M322 267L322 268L325 268L322 267M334 267L335 268L334 267z"/>
<path style="fill:#c7dd9f; stroke:none;" d="M178 268L179 269L178 268z"/>
<path style="fill:#a5ca5f; stroke:none;" d="M179 268L179 269L182 269L179 268z"/>
<path style="fill:#c7dd9f; stroke:none;" d="M182 268L182 269L185 269L182 268M244 268L245 269L244 268M267 268L268 269L267 268M327 268L327 269L330 269L327 268z"/>
<path style="fill:#a5ca5f; stroke:none;" d="M330 268L330 269L333 269L330 268z"/>
<path style="fill:#c7dd9f; stroke:none;" d="M333 268L334 269L333 268M241.667 269.333L242.333 269.667L241.667 269.333z"/>
<path style="fill:#a5ca5f; stroke:none;" d="M243 269L244 270L243 269M268 269L269 270L268 269z"/>
<path style="fill:#c7dd9f; stroke:none;" d="M269.667 269.333L270.333 269.667L269.667 269.333M234.667 270.333L235.333 270.667L234.667 270.333z"/>
<path style="fill:#a5ca5f; stroke:none;" d="M236.667 270.333L237.333 270.667L236.667 270.333M274.667 270.333L275.333 270.667L274.667 270.333z"/>
<path style="fill:#c7dd9f; stroke:none;" d="M276.667 270.333L277.333 270.667L276.667 270.333M228.667 271.333L229.333 271.667L228.667 271.333z"/>
<path style="fill:#a5ca5f; stroke:none;" d="M230.667 271.333L231.333 271.667L230.667 271.333M280.667 271.333L281.333 271.667L280.667 271.333z"/>
<path style="fill:#c7dd9f; stroke:none;" d="M282.667 271.333L283.333 271.667L282.667 271.333M221.667 272.333L222.333 272.667L221.667 272.333z"/>
<path style="fill:#a5ca5f; stroke:none;" d="M223 272L223 273L226 273L223 272M286 272L286 273L289 273L286 272z"/>
<path style="fill:#c7dd9f; stroke:none;" d="M289.667 272.333L290.333 272.667L289.667 272.333M215.667 273.333L216.333 273.667L215.667 273.333z"/>
<path style="fill:#a5ca5f; stroke:none;" d="M217.667 273.333L218.333 273.667L217.667 273.333M293.667 273.333L294.333 273.667L293.667 273.333z"/>
<path style="fill:#c7dd9f; stroke:none;" d="M295.667 273.333L296.333 273.667L295.667 273.333M209.667 274.333L210.333 274.667L209.667 274.333z"/>
<path style="fill:#a5ca5f; stroke:none;" d="M211.667 274.333L212.333 274.667L211.667 274.333M299.667 274.333L300.333 274.667L299.667 274.333z"/>
<path style="fill:#c7dd9f; stroke:none;" d="M301.667 274.333L302.333 274.667L301.667 274.333M202.667 275.333L203.333 275.667L202.667 275.333z"/>
<path style="fill:#a5ca5f; stroke:none;" d="M204.667 275.333L205.333 275.667L204.667 275.333M306.667 275.333L307.333 275.667L306.667 275.333z"/>
<path style="fill:#c7dd9f; stroke:none;" d="M308.667 275.333L309.333 275.667L308.667 275.333M196.667 276.333L197.333 276.667L196.667 276.333z"/>
<path style="fill:#a5ca5f; stroke:none;" d="M198.667 276.333L199.333 276.667L198.667 276.333M312.667 276.333L313.333 276.667L312.667 276.333z"/>
<path style="fill:#c7dd9f; stroke:none;" d="M314.667 276.333L315.333 276.667L314.667 276.333M189.667 277.333L190.333 277.667L189.667 277.333z"/>
<path style="fill:#a5ca5f; stroke:none;" d="M191.667 277.333L192.333 277.667L191.667 277.333M319.667 277.333L320.333 277.667L319.667 277.333z"/>
<path style="fill:#c7dd9f; stroke:none;" d="M321.667 277.333L322.333 277.667L321.667 277.333M183.667 278.333L184.333 278.667L183.667 278.333z"/>
<path style="fill:#a5ca5f; stroke:none;" d="M185.667 278.333L186.333 278.667L185.667 278.333M325.667 278.333L326.333 278.667L325.667 278.333z"/>
<path style="fill:#c7dd9f; stroke:none;" d="M327.667 278.333L328.333 278.667L327.667 278.333M176 279L176 280L179 280L176 279z"/>
<path style="fill:#a5ca5f; stroke:none;" d="M179.667 279.333L180.333 279.667L179.667 279.333M331.667 279.333L332.333 279.667L331.667 279.333z"/>
<path style="fill:#c7dd9f; stroke:none;" d="M333 279L333 280L336 280L333 279M170.667 280.333L171.333 280.667L170.667 280.333z"/>
<path style="fill:#a5ca5f; stroke:none;" d="M172.667 280.333L173.333 280.667L172.667 280.333M338.667 280.333L339.333 280.667L338.667 280.333z"/>
<path style="fill:#c7dd9f; stroke:none;" d="M340.667 280.333L341.333 280.667L340.667 280.333M164.667 281.333L165.333 281.667L164.667 281.333z"/>
<path style="fill:#a5ca5f; stroke:none;" d="M166.667 281.333L167.333 281.667L166.667 281.333M344.667 281.333L345.333 281.667L344.667 281.333z"/>
<path style="fill:#c7dd9f; stroke:none;" d="M346.667 281.333L347.333 281.667L346.667 281.333M157.667 282.333L158.333 282.667L157.667 282.333z"/>
<path style="fill:#a5ca5f; stroke:none;" d="M159.667 282.333L160.333 282.667L159.667 282.333M351.667 282.333L352.333 282.667L351.667 282.333z"/>
<path style="fill:#c7dd9f; stroke:none;" d="M353.667 282.333L354.333 282.667L353.667 282.333M154 283L155 284L154 283M357 283L358 284L357 283M152 284L153 285L152 284M359 284L360 285L359 284z"/>
<path style="fill:#a5ca5f; stroke:none;" d="M151 285L152 286L151 285M360 285L361 286L360 285M150 286L151 287L150 286M361 286L362 287L361 286M149.333 288.667L149.667 289.333L149.333 288.667M362.333 288.667L362.667 289.333L362.333 288.667M149 291L149 294L150 294L149 291M362 291L362 294L363 294L362 291z"/>
<path style="fill:#c7dd9f; stroke:none;" d="M150 295L151 296L150 295M361 295L362 296L361 295z"/>
<path style="fill:#a5ca5f; stroke:none;" d="M151 296L152 297L151 296M360 296L361 297L360 296M152 297L153 298L152 297M359 297L360 298L359 297z"/>
<path style="fill:#c7dd9f; stroke:none;" d="M153 298L154 299L153 298z"/>
<path style="fill:#a5ca5f; stroke:none;" d="M154 298L155 299L154 298M357 298L358 299L357 298z"/>
<path style="fill:#c7dd9f; stroke:none;" d="M358 298L359 299L358 298M156.667 299.333L157.333 299.667L156.667 299.333z"/>
<path style="fill:#a5ca5f; stroke:none;" d="M158 299L159 300L158 299M353 299L354 300L353 299z"/>
<path style="fill:#c7dd9f; stroke:none;" d="M354.667 299.333L355.333 299.667L354.667 299.333M161.667 300.333L162.333 300.667L161.667 300.333z"/>
<path style="fill:#a5ca5f; stroke:none;" d="M163 300L164 301L163 300M348 300L349 301L348 300z"/>
<path style="fill:#c7dd9f; stroke:none;" d="M349.667 300.333L350.333 300.667L349.667 300.333M166.667 301.333L167.333 301.667L166.667 301.333z"/>
<path style="fill:#a5ca5f; stroke:none;" d="M168 301L169 302L168 301M343 301L344 302L343 301z"/>
<path style="fill:#c7dd9f; stroke:none;" d="M344.667 301.333L345.333 301.667L344.667 301.333M171.667 302.333L172.333 302.667L171.667 302.333z"/>
<path style="fill:#a5ca5f; stroke:none;" d="M173 302L174 303L173 302M338 302L339 303L338 302z"/>
<path style="fill:#c7dd9f; stroke:none;" d="M339.667 302.333L340.333 302.667L339.667 302.333M176.667 303.333L177.333 303.667L176.667 303.333z"/>
<path style="fill:#a5ca5f; stroke:none;" d="M178 303L179 304L178 303M333 303L334 304L333 303z"/>
<path style="fill:#c7dd9f; stroke:none;" d="M334.667 303.333L335.333 303.667L334.667 303.333M181.667 304.333L182.333 304.667L181.667 304.333z"/>
<path style="fill:#a5ca5f; stroke:none;" d="M183 304L184 305L183 304M328 304L329 305L328 304z"/>
<path style="fill:#c7dd9f; stroke:none;" d="M329.667 304.333L330.333 304.667L329.667 304.333M186.667 305.333L187.333 305.667L186.667 305.333z"/>
<path style="fill:#a5ca5f; stroke:none;" d="M188 305L189 306L188 305M323 305L324 306L323 305z"/>
<path style="fill:#c7dd9f; stroke:none;" d="M324.667 305.333L325.333 305.667L324.667 305.333M191.667 306.333L192.333 306.667L191.667 306.333z"/>
<path style="fill:#a5ca5f; stroke:none;" d="M193 306L194 307L193 306M318 306L319 307L318 306z"/>
<path style="fill:#c7dd9f; stroke:none;" d="M319.667 306.333L320.333 306.667L319.667 306.333M196.667 307.333L197.333 307.667L196.667 307.333z"/>
<path style="fill:#a5ca5f; stroke:none;" d="M198 307L199 308L198 307M313 307L314 308L313 307z"/>
<path style="fill:#c7dd9f; stroke:none;" d="M314.667 307.333L315.333 307.667L314.667 307.333M201.667 308.333L202.333 308.667L201.667 308.333z"/>
<path style="fill:#a5ca5f; stroke:none;" d="M203 308L204 309L203 308M308 308L309 309L308 308z"/>
<path style="fill:#c7dd9f; stroke:none;" d="M309.667 308.333L310.333 308.667L309.667 308.333M206.667 309.333L207.333 309.667L206.667 309.333z"/>
<path style="fill:#a5ca5f; stroke:none;" d="M208 309L209 310L208 309M303 309L304 310L303 309z"/>
<path style="fill:#c7dd9f; stroke:none;" d="M304.667 309.333L305.333 309.667L304.667 309.333M211.667 310.333L212.333 310.667L211.667 310.333z"/>
<path style="fill:#a5ca5f; stroke:none;" d="M213 310L214 311L213 310M298 310L299 311L298 310z"/>
<path style="fill:#c7dd9f; stroke:none;" d="M299.667 310.333L300.333 310.667L299.667 310.333M216.667 311.333L217.333 311.667L216.667 311.333z"/>
<path style="fill:#a5ca5f; stroke:none;" d="M218 311L219 312L218 311M293 311L294 312L293 311z"/>
<path style="fill:#c7dd9f; stroke:none;" d="M294.667 311.333L295.333 311.667L294.667 311.333M221.667 312.333L222.333 312.667L221.667 312.333z"/>
<path style="fill:#a5ca5f; stroke:none;" d="M223 312L224 313L223 312M288 312L289 313L288 312z"/>
<path style="fill:#c7dd9f; stroke:none;" d="M289.667 312.333L290.333 312.667L289.667 312.333M226.667 313.333L227.333 313.667L226.667 313.333z"/>
<path style="fill:#a5ca5f; stroke:none;" d="M228 313L229 314L228 313M283 313L284 314L283 313z"/>
<path style="fill:#c7dd9f; stroke:none;" d="M284.667 313.333L285.333 313.667L284.667 313.333M231.667 314.333L232.333 314.667L231.667 314.333z"/>
<path style="fill:#a5ca5f; stroke:none;" d="M233 314L234 315L233 314M278 314L279 315L278 314z"/>
<path style="fill:#c7dd9f; stroke:none;" d="M279.667 314.333L280.333 314.667L279.667 314.333M236 315L237 316L236 315M275 315L276 316L275 315M236.333 328.667L236.667 329.333L236.333 328.667M275.333 328.667L275.667 329.333L275.333 328.667z"/>
<path style="fill:#a5ca5f; stroke:none;" d="M236 330L237 331L236 330M275 330L276 331L275 330z"/>
<path style="fill:#c7dd9f; stroke:none;" d="M235 333L236 334L235 333M276 333L277 334L276 333M234 335L235 336L234 335M277 335L278 336L277 335z"/>
<path style="fill:#a5ca5f; stroke:none;" d="M233 337L234 338L233 337M278 337L279 338L278 337z"/>
<path style="fill:#c7dd9f; stroke:none;" d="M232 338L233 339L232 338M279 338L280 339L279 338M231 339L232 340L231 339M280 339L281 340L280 339M230 340L231 341L230 340M281 340L282 341L281 340M229 341L230 342L229 341M282 341L283 342L282 341M228 342L229 343L228 342M283 342L284 343L283 342M227 343L228 344L227 343M284 343L285 344L284 343M226 344L227 345L226 344M285 344L286 345L285 344M225 345L226 346L225 345M286 345L287 346L286 345M224 346L225 347L224 346M287 346L288 347L287 346M223 347L224 348L223 347M288 347L289 348L288 347M222 348L223 349L222 348M289 348L290 349L289 348M221 349L222 350L221 349M290 349L291 350L290 349M220 350L221 351L220 350M291 350L292 351L291 350M219 351L220 352L219 351M292 351L293 352L292 351M218 352L219 353L218 352M293 352L294 353L293 352z"/>
<path style="fill:#ff4b55; stroke:none;" d="M0 353C0 377.6 -5.29812 408.338 22 420.687C34.1214 426.17 49.0178 424 62 424L139 424L383 424L452 424C464.03 424 477.675 425.908 489 421.124C517.262 409.185 512 378.009 512 353L0 353z"/>
<path style="fill:#fafafa; stroke:none;" d="M0 394L0 512L512 512L512 394L511 394C508.056 408.038 496.77 419.116 483 422.841C473.292 425.467 461.988 424 452 424L395 424L110 424L53 424C40.2743 424 28.0785 424.883 17.0008 417.402C7.80876 411.194 5.3817 402.795 0 394z"/>
</svg>
