<?xml version="1.0" standalone="yes"?>
<svg xmlns="http://www.w3.org/2000/svg" width="512" height="512">
<path style="fill:#fcfcfc; stroke:none;" d="M0 0L0 118L1 118C3.94396 103.962 15.2304 92.8838 29 89.1589C37.8345 86.7691 47.9178 88 57 88L109 88L414 88C444.728 88 502.335 76.6818 511 118L512 118L512 0L0 0z"/>
<path style="fill:#474755; stroke:none;" d="M13 99C44.5067 119.82 73.5015 146.4 103 170C114.036 178.829 127.75 194.357 141 199.262C150.362 202.727 165.056 200 175 200L252 200L512 200L512 139C512 124.216 512.626 110.739 501.56 99.2894C482.352 79.4146 439.229 88 414 88L177 88L55 88C42.2547 88 19.8731 85.026 13 99M11 98L10 100L11 98z"/>
<path style="fill:#ff4b55; stroke:none;" d="M12.0154 99.4606C7.00612 100.654 3.76736 108.698 2.27623 112.999C-2.58075 127.008 0 144.317 0 159L0 348C0 364.319 -2.71137 383.323 2.30864 399C3.68779 403.307 8.09364 413.852 14.0008 412.518C18.5931 411.48 23.3919 405.864 27 403.003C36.9991 395.074 46.9732 387.105 57 379.211C92.8242 351.004 128.275 322.331 164 294.003L197 267.801C200.613 264.922 207.543 261.327 207.543 256C207.543 251.282 202.231 248.338 199 245.789C189.622 238.392 180.417 230.773 171 223.424C132.379 193.286 94.8158 161.774 56 131.881C45.2007 123.564 34.7455 114.81 24 106.424C21.1432 104.195 16.02 98.5064 12.0154 99.4606z"/>
<path style="fill:#474755; stroke:none;" d="M6 104L7 105L6 104M5 106L6 107L5 106M2.33333 111.667L2.66667 112.333L2.33333 111.667M1 115L2 116L1 115M0 119L1 120L0 119z"/>
<path style="fill:#fcfcfc; stroke:none;" d="M142 200L142 201C159.499 212.573 175.608 227.286 192 240.4C196.222 243.777 207.364 249.865 207.364 256C207.364 262.135 196.222 268.223 192 271.6C175.608 284.714 159.499 299.427 142 311L142 312L512 312L512 200L142 200z"/>
<path style="fill:#fb999e; stroke:none;" d="M143 201L144 202L143 201M144 202L145 203L144 202M145 203L146 204L145 203M148 205L149 206L148 205M149 206L150 207L149 206M150 207L151 208L150 207M153 209L154 210L153 209M154 210L155 211L154 210M155 211L156 212L155 211M158 213L159 214L158 213M159 214L160 215L159 214M160 215L161 216L160 215M163 217L164 218L163 217M164 218L165 219L164 218M165 219L166 220L165 219M168 221L169 222L168 221M169 222L170 223L169 222M173 225L174 226L173 225M174 226L175 227L174 226M177 228L178 229L177 228M178 229L179 230L178 229M179 230L180 231L179 230M182 232L183 233L182 232M183 233L184 234L183 233M184 234L185 235L184 234M187 236L188 237L187 236M188 237L189 238L188 237M189 238L190 239L189 238M192 240L193 241L192 240M193 241L194 242L193 241M194 242L195 243L194 242M197 244L198 245L197 244M198 245L199 246L198 245M199 246L200 247L199 246M202 248L203 249L202 248M203 249L204 250L203 249M207 253L208 254L207 253M207 258L208 259L207 258M203 262L204 263L203 262M202 263L203 264L202 263M199 265L200 266L199 265M198 266L199 267L198 266M197 267L198 268L197 267M194 269L195 270L194 269M193 270L194 271L193 270M192 271L193 272L192 271M189 273L190 274L189 273M188 274L189 275L188 274M187 275L188 276L187 275M184 277L185 278L184 277M183 278L184 279L183 278M182 279L183 280L182 279M179 281L180 282L179 281M178 282L179 283L178 282M177 283L178 284L177 283M174 285L175 286L174 285M173 286L174 287L173 286M169 289L170 290L169 289M168 290L169 291L168 290M165 292L166 293L165 292M164 293L165 294L164 293M163 294L164 295L163 294M160 296L161 297L160 296M159 297L160 298L159 297M158 298L159 299L158 298M155 300L156 301L155 300M154 301L155 302L154 301M153 302L154 303L153 302M150 304L151 305L150 304M149 305L150 306L149 305M148 306L149 307L148 306M145 308L146 309L145 308M144 309L145 310L144 309M143 310L144 311L143 310z"/>
<path style="fill:#73af01; stroke:none;" d="M13 413C19.8731 426.974 42.2546 424 55 424L177 424L414 424C439.229 424 482.352 432.585 501.56 412.711C512.626 401.261 512 387.784 512 373L512 312L252 312L175 312C165.056 312 150.362 309.273 141 312.738C128.114 317.508 114.739 332.609 104 341.2C74.4032 364.876 45.1205 392.93 13 413z"/>
<path style="fill:#fb999e; stroke:none;" d="M125 324L126 325L125 324M120 328L121 329L120 328M115 332L116 333L115 332M91 351L92 352L91 351M86 355L87 356L86 355M57 378L58 379L57 378M52 382L53 383L52 382M0.333333 392.667L0.666667 393.333L0.333333 392.667z"/>
<path style="fill:#fcfcfc; stroke:none;" d="M0 394L0 512L512 512L512 394L511 394C508.056 408.038 496.77 419.116 483 422.841C473.292 425.467 461.988 424 452 424L395 424L110 424L53 424C40.2743 424 28.0785 424.883 17.0008 417.402C7.80876 411.194 5.3817 402.795 0 394z"/>
<path style="fill:#fb999e; stroke:none;" d="M1 396L2 397L1 396z"/>
<path style="fill:#73af01; stroke:none;" d="M2.33333 399.667L2.66667 400.333L2.33333 399.667z"/>
<path style="fill:#fb999e; stroke:none;" d="M28 401L29 402L28 401z"/>
<path style="fill:#73af01; stroke:none;" d="M5 405L6 406L5 405z"/>
<path style="fill:#fb999e; stroke:none;" d="M23 405L24 406L23 405z"/>
<path style="fill:#73af01; stroke:none;" d="M6 407L7 408L6 407z"/>
<path style="fill:#fb999e; stroke:none;" d="M18 409L19 410L18 409z"/>
<path style="fill:#73af01; stroke:none;" d="M10 412L11 413L10 412M11 413L12 414L11 413z"/>
</svg>
