<svg width="56" height="56" viewBox="0 0 56 56" fill="none" xmlns="http://www.w3.org/2000/svg">
<path d="M21.0001 11.667H16.3334C15.0957 11.667 13.9088 12.1587 13.0336 13.0338C12.1584 13.909 11.6667 15.096 11.6667 16.3337V44.3337C11.6667 45.5713 12.1584 46.7583 13.0336 47.6335C13.9088 48.5087 15.0957 49.0003 16.3334 49.0003H39.6667C40.9044 49.0003 42.0914 48.5087 42.9666 47.6335C43.8418 46.7583 44.3334 45.5713 44.3334 44.3337V16.3337C44.3334 15.096 43.8418 13.909 42.9666 13.0338C42.0914 12.1587 40.9044 11.667 39.6667 11.667H35.0001" stroke="#04252E" stroke-width="3.5" stroke-linecap="round" stroke-linejoin="round"/>
<path d="M32 7H24C21.4227 7 21 9.08934 21 11.6667C21 14.244 21.4227 16.3333 24 16.3333H32C34.5773 16.3333 35 14.244 35 11.6667C35 9.08934 34.5773 7 32 7Z" stroke="#04252E" stroke-width="3.5" stroke-linecap="round" stroke-linejoin="round"/>
<path d="M21 39.6667V28" stroke="#04252E" stroke-width="3.5" stroke-linecap="round" stroke-linejoin="round"/>
<path d="M28 39.6663V37.333" stroke="#04252E" stroke-width="3.5" stroke-linecap="round" stroke-linejoin="round"/>
<path d="M35 39.667V32.667" stroke="#04252E" stroke-width="3.5" stroke-linecap="round" stroke-linejoin="round"/>
</svg>
