<svg width="320" height="354" viewBox="0 0 320 354" fill="none" xmlns="http://www.w3.org/2000/svg">
<circle cx="163" cy="172" r="125" fill="url(#paint0_linear_61_2701)"/>
<path d="M163 247C204.421 247 238 213.421 238 172C238 130.579 204.421 97 163 97C121.579 97 88 130.579 88 172C88 213.421 121.579 247 163 247Z" stroke="white" stroke-width="8" stroke-linecap="round" stroke-linejoin="round"/>
<path d="M140 172L156.667 188.667L190 155.333" stroke="white" stroke-width="8" stroke-linecap="round" stroke-linejoin="round"/>
<path d="M21.2466 81.1525C23.7012 77.8117 28.34 76.9376 31.8342 79.0575L46.3871 67.5352C45.4032 64.9967 45.7666 62.1324 47.3925 59.9195C50.0009 56.3694 55.0211 55.6044 58.5802 58.2194C59.0556 58.5687 59.4891 58.9662 59.8763 59.4085L109.165 37.5101C108.914 35.4906 109.445 33.4399 110.65 31.7994C113.259 28.2493 118.279 27.4843 121.842 30.1025C125.401 32.7175 126.175 37.7327 123.563 41.287C120.952 44.8414 115.935 45.6021 112.376 42.9871C111.9 42.6378 111.471 42.2435 111.092 41.8074L61.7931 63.7113C62.0352 65.7245 61.5077 67.7709 60.3056 69.4071C57.7412 72.8974 52.8508 73.692 49.3009 71.2351L34.9711 82.5793C36.1726 85.1987 35.8786 88.2915 34.1554 90.6369C33.0882 92.0894 31.5736 93.1277 29.8424 93.5989L30.2191 113.058C31.1247 113.315 31.9715 113.734 32.7424 114.3C36.3016 116.915 37.075 121.93 34.4667 125.48C31.8583 129.03 26.8412 129.791 23.2821 127.176C19.7229 124.561 18.9495 119.546 21.5579 115.996C22.5466 114.65 23.9342 113.65 25.5141 113.134L25.1338 93.4549C24.361 93.1962 23.6335 92.813 22.9697 92.3253C19.4117 89.7177 18.6383 84.7025 21.2466 81.1525ZM48.3561 68.0149L31.9039 81.0361L31.4168 80.6848C28.5821 78.6547 24.5969 79.2855 22.5315 82.0965C20.4442 84.9374 21.06 88.9553 23.9125 91.0511C24.5763 91.5388 25.3184 91.8932 26.116 92.0912L26.705 92.2411L27.1314 114.361L26.5085 114.509C25.0362 114.861 23.7373 115.722 22.8427 116.94C20.7554 119.781 21.3755 123.802 24.2237 125.895C27.0719 127.987 31.0913 127.382 33.1818 124.536C35.2722 121.691 34.6532 117.678 31.8008 115.582C31.0427 115.025 30.1911 114.649 29.2778 114.465L28.6466 114.337L28.2148 92.3045L28.8793 92.1809C30.485 91.8805 31.8984 90.9981 32.862 89.6866C34.3498 87.6616 34.5065 84.935 33.2652 82.7468L32.9305 82.1522L49.2731 69.2083L49.766 69.5967C49.8785 69.686 49.9567 69.75 50.0424 69.813C52.8948 71.9087 56.9174 71.2988 59.0078 68.4536C60.0719 67.0054 60.4773 65.1521 60.1199 63.3766L59.993 62.7505L111.574 39.8325L111.953 40.3482C112.329 40.8607 112.782 41.3121 113.304 41.696C116.157 43.7918 120.175 43.1787 122.266 40.3335C124.356 37.4883 123.736 33.4673 120.888 31.3747C118.04 29.282 114.013 29.8888 111.922 32.734C110.852 34.1908 110.451 36.0472 110.816 37.8216L110.947 38.4509L59.3691 61.3645L58.9895 60.8489C58.61 60.3332 58.1483 59.8755 57.6257 59.4916C54.7776 57.399 50.755 58.0089 48.6645 60.8541C47.2615 62.7637 47.0313 65.2851 48.0639 67.4252L48.3561 68.0149Z" fill="url(#paint1_linear_61_2701)"/>
<path d="M113.156 33.6475C114.751 31.4772 117.816 31.0125 119.992 32.6111C122.168 34.2096 122.64 37.2737 121.046 39.4439C119.451 41.6141 116.386 42.0788 114.21 40.4802C114.022 40.3418 113.873 40.2125 113.739 40.081C112.805 39.1976 112.263 37.9967 112.214 36.6982C112.18 35.5873 112.507 34.5318 113.156 33.6475ZM119.765 38.503C120.842 37.0377 120.519 34.972 119.055 33.8958C117.586 32.8165 115.519 33.1336 114.446 34.5946C114.006 35.1927 113.786 35.9057 113.81 36.6536C113.842 37.5257 114.207 38.3397 114.842 38.9381L114.865 38.9612C114.941 39.037 115.033 39.1179 115.157 39.2092C116.621 40.278 118.692 39.964 119.765 38.503Z" fill="url(#paint2_linear_61_2701)"/>
<path d="M49.9071 61.7668C51.5016 59.5966 54.5668 59.1319 56.7383 60.7273C56.901 60.8469 57.0544 60.9793 57.2185 61.1328C58.1566 62.0193 58.6925 63.2288 58.7334 64.5285C58.7677 65.6128 58.4323 66.6886 57.792 67.5601C56.3199 69.5637 53.5873 70.1413 51.4325 68.9001C51.2915 68.8228 51.1236 68.7192 50.9523 68.5933C50.0657 67.942 49.4397 67.0347 49.1433 65.9749C48.7332 64.5224 49.0094 62.9886 49.9071 61.7668ZM56.5114 66.6192C56.9508 66.0211 57.1724 65.3156 57.1494 64.575C57.1237 63.6944 56.7589 62.8804 56.1278 62.2852C56.0216 62.1874 55.9197 62.0928 55.804 62.0078C54.3393 60.9316 52.2729 61.2487 51.1994 62.7097C50.5968 63.53 50.4106 64.5642 50.6881 65.5509C50.8862 66.2687 51.3103 66.8763 51.9056 67.3137C52.0041 67.3861 52.1058 67.4542 52.2094 67.5106C53.677 68.3586 55.5195 67.9692 56.5114 66.6192Z" fill="url(#paint3_linear_61_2701)"/>
<path d="M23.7566 82.9963C25.0906 81.1806 27.4792 80.5148 29.5608 81.3798C29.9128 81.52 30.258 81.7145 30.5878 81.9568C31.3073 82.4854 31.8696 83.2012 32.2133 84.026C32.8626 85.6016 32.6428 87.4268 31.6415 88.7896C31.0326 89.6183 30.1918 90.2241 29.215 90.5393C27.9927 90.9372 26.6353 90.8279 25.4936 90.2456C25.2714 90.135 25.0416 89.999 24.806 89.826C22.6346 88.2305 22.1621 85.1665 23.7566 82.9963ZM30.3609 87.8487C31.0357 86.9302 31.1835 85.6968 30.7459 84.6319C30.5125 84.0788 30.1375 83.5929 29.6535 83.2373C29.4351 83.0768 29.2021 82.9451 28.9674 82.8516C27.5516 82.2652 25.9423 82.7143 25.0446 83.9361C23.9711 85.3971 24.2892 87.4596 25.754 88.5358C25.9081 88.6491 26.0589 88.7401 26.2031 88.8131C26.9859 89.2107 27.9012 89.2846 28.7224 89.0196C29.386 88.8165 29.9497 88.4083 30.3609 87.8487Z" fill="url(#paint4_linear_61_2701)"/>
<path d="M24.0721 117.843C24.5869 117.143 25.2807 116.593 26.0713 116.253C27.2467 115.749 28.6027 115.725 29.7909 116.191C30.1952 116.349 30.565 116.555 30.9076 116.807C33.0833 118.406 33.5516 121.466 31.9571 123.637C30.3626 125.807 27.2974 126.272 25.1259 124.676C22.9533 123.073 22.4808 120.009 24.0721 117.843ZM30.6722 122.693C31.7457 121.232 31.4307 119.165 29.9659 118.089C29.7347 117.919 29.4814 117.779 29.2105 117.672C28.4105 117.36 27.4973 117.373 26.7035 117.718C26.1686 117.943 25.7023 118.318 25.357 118.787C24.2836 120.249 24.6028 122.318 26.0675 123.395C27.5355 124.467 29.5987 124.154 30.6722 122.693Z" fill="url(#paint5_linear_61_2701)"/>
<path d="M296.752 274.722C294.171 277.966 289.502 278.661 286.092 276.408L271.106 287.362C271.992 289.937 271.519 292.785 269.809 294.934C267.066 298.381 262.02 298.952 258.564 296.202C258.102 295.835 257.684 295.421 257.315 294.964L207.22 314.95C207.393 316.978 206.784 319.007 205.516 320.6C202.773 324.047 197.727 324.618 194.267 321.865C190.811 319.115 190.231 314.074 192.978 310.622C195.724 307.171 200.767 306.604 204.222 309.354C204.684 309.721 205.098 310.132 205.459 310.582L255.565 290.591C255.4 288.57 256.006 286.545 257.27 284.956C259.967 281.567 264.884 280.961 268.337 283.553L283.093 272.769C281.993 270.105 282.405 267.026 284.218 264.748C285.34 263.338 286.893 262.359 288.641 261.954L289.013 242.495C288.118 242.203 287.288 241.753 286.54 241.157C283.084 238.407 282.504 233.366 285.247 229.919C287.99 226.471 293.033 225.904 296.488 228.654C299.944 231.404 300.524 236.445 297.781 239.893C296.742 241.199 295.316 242.145 293.718 242.601L293.341 262.279C294.103 262.568 294.815 262.978 295.46 263.491C298.915 266.234 299.495 271.275 296.752 274.722ZM269.157 286.807L286.098 274.428L286.571 274.798C289.326 276.936 293.332 276.459 295.504 273.729C297.699 270.971 297.239 266.932 294.469 264.728C293.824 264.215 293.096 263.833 292.307 263.604L291.724 263.432L292.149 241.312L292.777 241.188C294.262 240.893 295.593 240.082 296.534 238.9C298.729 236.141 298.264 232.099 295.498 229.899C292.733 227.698 288.693 228.149 286.494 230.911C284.296 233.674 284.76 237.708 287.53 239.912C288.266 240.498 289.103 240.906 290.008 241.126L290.634 241.278L290.218 263.31L289.549 263.408C287.933 263.647 286.487 264.474 285.474 265.748C283.909 267.714 283.647 270.432 284.804 272.667L285.115 273.274L268.287 285.579L267.809 285.172C267.7 285.079 267.625 285.012 267.541 284.946C264.772 282.742 260.729 283.196 258.53 285.959C257.411 287.365 256.935 289.202 257.224 290.99L257.327 291.62L204.902 312.537L204.543 312.007C204.188 311.481 203.752 311.012 203.245 310.608C200.475 308.404 196.436 308.862 194.238 311.625C192.039 314.388 192.504 318.43 195.27 320.63C198.035 322.831 202.083 322.38 204.281 319.617C205.407 318.202 205.879 316.363 205.583 314.576L205.476 313.942L257.897 293.029L258.256 293.559C258.615 294.089 259.059 294.564 259.567 294.968C262.332 297.168 266.375 296.714 268.574 293.951C270.049 292.097 270.376 289.586 269.427 287.408L269.157 286.807Z" fill="url(#paint6_linear_61_2701)"/>
<path d="M203.083 318.656C201.406 320.764 198.325 321.11 196.213 319.429C194.1 317.748 193.746 314.668 195.423 312.561C197.099 310.454 200.18 310.107 202.293 311.788C202.476 311.934 202.62 312.069 202.749 312.205C203.648 313.124 204.143 314.345 204.142 315.644C204.134 316.756 203.766 317.798 203.083 318.656ZM196.666 313.55C195.534 314.973 195.776 317.05 197.199 318.181C198.625 319.316 200.702 319.079 201.831 317.66C202.293 317.08 202.541 316.376 202.546 315.627C202.547 314.755 202.214 313.927 201.602 313.305L201.58 313.281C201.507 313.202 201.418 313.118 201.297 313.022C199.876 311.898 197.795 312.132 196.666 313.55Z" fill="url(#paint7_linear_61_2701)"/>
<path d="M267.367 292.991C265.69 295.098 262.609 295.445 260.501 293.767C260.343 293.641 260.195 293.503 260.037 293.343C259.133 292.421 258.644 291.192 258.654 289.892C258.661 288.807 259.037 287.745 259.711 286.899C261.259 284.953 264.012 284.481 266.117 285.804C266.255 285.887 266.419 285.997 266.585 286.129C267.446 286.814 268.037 287.745 268.292 288.815C268.646 290.283 268.311 291.805 267.367 292.991ZM260.954 287.888C260.492 288.469 260.244 289.165 260.238 289.906C260.23 290.787 260.563 291.615 261.171 292.234C261.273 292.336 261.371 292.434 261.484 292.523C262.906 293.655 264.983 293.418 266.112 291.999C266.746 291.203 266.971 290.176 266.732 289.18C266.562 288.455 266.161 287.831 265.583 287.371C265.488 287.295 265.389 287.223 265.287 287.163C263.854 286.259 261.997 286.577 260.954 287.888Z" fill="url(#paint8_linear_61_2701)"/>
<path d="M294.315 272.783C292.912 274.546 290.5 275.12 288.453 274.175C288.107 274.021 287.769 273.814 287.449 273.559C286.75 273.003 286.216 272.266 285.904 271.429C285.316 269.829 285.606 268.014 286.659 266.691C287.299 265.886 288.163 265.313 289.151 265.036C290.387 264.685 291.74 264.846 292.858 265.472C293.076 265.591 293.3 265.736 293.529 265.918C295.637 267.596 295.992 270.676 294.315 272.783ZM287.902 267.68C287.192 268.572 286.997 269.799 287.394 270.88C287.606 271.441 287.962 271.941 288.432 272.315C288.644 272.484 288.871 272.625 289.102 272.727C290.495 273.368 292.12 272.981 293.064 271.794C294.193 270.376 293.954 268.303 292.532 267.171C292.382 267.052 292.235 266.955 292.094 266.876C291.327 266.449 290.415 266.34 289.585 266.573C288.914 266.751 288.335 267.137 287.902 267.68Z" fill="url(#paint9_linear_61_2701)"/>
<path d="M295.34 237.95C294.799 238.63 294.084 239.153 293.281 239.462C292.087 239.921 290.731 239.892 289.562 239.382C289.164 239.207 288.802 238.987 288.47 238.723C286.357 237.042 286.007 233.965 287.684 231.858C289.36 229.751 292.441 229.404 294.55 231.082C296.659 232.767 297.013 235.847 295.34 237.95ZM288.931 232.851C287.802 234.269 288.038 236.347 289.46 237.478C289.684 237.657 289.932 237.807 290.199 237.924C290.986 238.266 291.899 238.288 292.706 237.974C293.249 237.77 293.729 237.414 294.092 236.957C295.221 235.539 294.982 233.458 293.559 232.326C292.134 231.199 290.06 231.432 288.931 232.851Z" fill="url(#paint10_linear_61_2701)"/>
<defs>
<linearGradient id="paint0_linear_61_2701" x1="57.375" y1="279.5" x2="223" y2="83.25" gradientUnits="userSpaceOnUse">
<stop stop-color="#04252E"/>
<stop offset="1" stop-color="#5BE89E"/>
</linearGradient>
<linearGradient id="paint1_linear_61_2701" x1="119.5" y1="17.1176" x2="-0.963764" y2="130.634" gradientUnits="userSpaceOnUse">
<stop stop-color="#5CE5BD"/>
<stop offset="0.3591" stop-color="#9AB191"/>
<stop offset="0.7933" stop-color="#EA6D59"/>
<stop offset="1" stop-color="#ED5858"/>
</linearGradient>
<linearGradient id="paint2_linear_61_2701" x1="128.079" y1="26.2223" x2="7.61565" y2="139.739" gradientUnits="userSpaceOnUse">
<stop stop-color="#5CE5BD"/>
<stop offset="0.3591" stop-color="#9AB191"/>
<stop offset="0.7933" stop-color="#EA6D59"/>
<stop offset="1" stop-color="#ED5858"/>
</linearGradient>
<linearGradient id="paint3_linear_61_2701" x1="112.405" y1="9.58716" x2="-8.0598" y2="123.104" gradientUnits="userSpaceOnUse">
<stop stop-color="#5CE5BD"/>
<stop offset="0.3591" stop-color="#9AB191"/>
<stop offset="0.7933" stop-color="#EA6D59"/>
<stop offset="1" stop-color="#ED5858"/>
</linearGradient>
<linearGradient id="paint4_linear_61_2701" x1="110.723" y1="7.80311" x2="-9.74071" y2="121.32" gradientUnits="userSpaceOnUse">
<stop stop-color="#5CE5BD"/>
<stop offset="0.3591" stop-color="#9AB191"/>
<stop offset="0.7933" stop-color="#EA6D59"/>
<stop offset="1" stop-color="#ED5858"/>
</linearGradient>
<linearGradient id="paint5_linear_61_2701" x1="128.276" y1="26.4316" x2="7.81284" y2="139.948" gradientUnits="userSpaceOnUse">
<stop stop-color="#5CE5BD"/>
<stop offset="0.3591" stop-color="#9AB191"/>
<stop offset="0.7933" stop-color="#EA6D59"/>
<stop offset="1" stop-color="#ED5858"/>
</linearGradient>
<linearGradient id="paint6_linear_61_2701" x1="196.109" y1="334.93" x2="320.849" y2="226.131" gradientUnits="userSpaceOnUse">
<stop stop-color="#5CE5BD"/>
<stop offset="0.3591" stop-color="#9AB191"/>
<stop offset="0.7933" stop-color="#EA6D59"/>
<stop offset="1" stop-color="#ED5858"/>
</linearGradient>
<linearGradient id="paint7_linear_61_2701" x1="187.886" y1="325.502" x2="312.626" y2="216.703" gradientUnits="userSpaceOnUse">
<stop stop-color="#5CE5BD"/>
<stop offset="0.3591" stop-color="#9AB191"/>
<stop offset="0.7933" stop-color="#EA6D59"/>
<stop offset="1" stop-color="#ED5858"/>
</linearGradient>
<linearGradient id="paint8_linear_61_2701" x1="202.909" y1="342.728" x2="327.65" y2="233.929" gradientUnits="userSpaceOnUse">
<stop stop-color="#5CE5BD"/>
<stop offset="0.3591" stop-color="#9AB191"/>
<stop offset="0.7933" stop-color="#EA6D59"/>
<stop offset="1" stop-color="#ED5858"/>
</linearGradient>
<linearGradient id="paint9_linear_61_2701" x1="204.52" y1="344.575" x2="329.262" y2="235.776" gradientUnits="userSpaceOnUse">
<stop stop-color="#5CE5BD"/>
<stop offset="0.3591" stop-color="#9AB191"/>
<stop offset="0.7933" stop-color="#EA6D59"/>
<stop offset="1" stop-color="#ED5858"/>
</linearGradient>
<linearGradient id="paint10_linear_61_2701" x1="187.697" y1="325.286" x2="312.437" y2="216.487" gradientUnits="userSpaceOnUse">
<stop stop-color="#5CE5BD"/>
<stop offset="0.3591" stop-color="#9AB191"/>
<stop offset="0.7933" stop-color="#EA6D59"/>
<stop offset="1" stop-color="#ED5858"/>
</linearGradient>
</defs>
</svg>
