<?xml version="1.0" standalone="yes"?>
<svg xmlns="http://www.w3.org/2000/svg" width="512" height="512">
<path style="fill:#fbfbfb; stroke:none;" d="M0 0L0 118L1 118C3.94396 103.962 15.2304 92.8838 29 89.1589C37.8345 86.7691 47.9178 88 57 88L109 88L414 88C444.728 88 502.335 76.6818 511 118L512 118L512 0L0 0z"/>
<path style="fill:#ff4b55; stroke:none;" d="M0 200L512 200L512 139C512 122.973 512.346 108.145 498.91 96.8194C487.227 86.9705 473.285 88 459 88L389 88L119 88L53 88C39.5946 88 26.4562 86.9109 15.0147 95.3009C-0.068121 106.361 0 122.141 0 139L0 200z"/>
<path style="fill:#fbfbfb; stroke:none;" d="M0 200L0 312L512 312L512 200L0 200z"/>
<path style="fill:#aecf6e; stroke:none;" d="M144 222L144 223L150 223L144 222M362 222L362 223L368 223L362 222z"/>
<path style="fill:#74b003; stroke:none;" d="M145.492 223.086C139.309 226.876 141.524 239.448 136.298 244.397C132.881 247.632 124.349 245.991 120 246C117.619 246.005 111.636 245.294 111.636 249.058C111.636 256.684 127.263 258.792 129.212 266.09C130.57 271.176 119.859 286.44 125.604 289.839C131.349 293.237 140.907 278.708 147 278.708C153.553 278.708 162.232 293.229 168.642 289.839C173.696 287.166 164.653 271.496 164.836 267.04C165.043 261.977 173.433 258.102 176.995 255.373C178.943 253.882 184.026 250.691 181.914 247.589C178.144 242.053 163.837 248.572 158.419 244.972C154.629 242.454 151.46 219.428 145.492 223.086M363.492 223.086C357.309 226.876 359.524 239.448 354.298 244.397C350.881 247.632 342.349 245.991 338 246C335.619 246.005 329.636 245.294 329.636 249.058C329.636 256.9 345.444 258.689 347.071 266.093C348.136 270.94 337.967 286.987 343.358 289.839C349.768 293.229 358.447 278.708 365 278.708C371.093 278.708 380.651 293.237 386.396 289.839C391.805 286.639 382.232 271.71 382.643 267.039C383.101 261.846 391.251 258.029 394.995 255.29C396.973 253.844 402.028 250.694 399.914 247.589C396.144 242.053 381.837 248.572 376.419 244.972C372.629 242.454 369.46 219.428 363.492 223.086z"/>
<path style="fill:#aecf6e; stroke:none;" d="M143.333 224.667L143.667 225.333L143.333 224.667M150.333 224.667L150.667 225.333L150.333 224.667M361.333 224.667L361.667 225.333L361.333 224.667M368.333 224.667L368.667 225.333L368.333 224.667M142.333 227.667L142.667 228.333L142.333 227.667M151.333 227.667L151.667 228.333L151.333 227.667M360.333 227.667L360.667 228.333L360.333 227.667M369.333 227.667L369.667 228.333L369.333 227.667M141.333 230.667L141.667 231.333L141.333 230.667M152.333 230.667L152.667 231.333L152.333 230.667M359.333 230.667L359.667 231.333L359.333 230.667M370.333 230.667L370.667 231.333L370.333 230.667M140.333 233.667L140.667 234.333L140.333 233.667M153.333 233.667L153.667 234.333L153.333 233.667M358.333 233.667L358.667 234.333L358.333 233.667M371.333 233.667L371.667 234.333L371.333 233.667M139.333 236.667L139.667 237.333L139.333 236.667M154.333 236.667L154.667 237.333L154.333 236.667M357.333 236.667L357.667 237.333L357.333 236.667M372.333 236.667L372.667 237.333L372.333 236.667M138.333 239.667L138.667 240.333L138.333 239.667M155.333 239.667L155.667 240.333L155.333 239.667M356.333 239.667L356.667 240.333L356.333 239.667M373.333 239.667L373.667 240.333L373.333 239.667M137.333 242.667L137.667 243.333L137.333 242.667M156.333 242.667L156.667 243.333L156.333 242.667M355.333 242.667L355.667 243.333L355.333 242.667M374.333 242.667L374.667 243.333L374.333 242.667M113 245L113 246L137 246L113 245M157 245L157 246L181 246L157 245M331 245L331 246L355 246L331 245M375 245L375 246L399 246L375 245M111 246L112 247L111 246M182 246L183 247L182 246M329 246L330 247L329 246M400 246L401 247L400 246M110 247L110 250L111 250L110 247M183 247L183 250L184 250L183 247M328 247L328 250L329 250L328 247M401 247L401 250L402 250L401 247M113 252L114 253L113 252M180 252L181 253L180 252M331 252L332 253L331 252M398 252L399 253L398 252M114 253L115 254L114 253M179 253L180 254L179 253M332 253L333 254L332 253M397 253L398 254L397 253M117 255L118 256L117 255M176 255L177 256L176 255M335 255L336 256L335 255M394 255L395 256L394 255M118 256L119 257L118 256M175 256L176 257L175 256M336 256L337 257L336 256M393 256L394 257L393 256M120 257L121 258L120 257M391 257L392 258L391 257M121 258L122 259L121 258M172 258L173 259L172 258M339 258L340 259L339 258M390 258L391 259L390 258M122 259L123 260L122 259M171 259L172 260L171 259M340 259L341 260L340 259M389 259L390 260L389 259M124 260L125 261L124 260M387 260L388 261L387 260M125 261L126 262L125 261M168 261L169 262L168 261M343 261L344 262L343 261M386 261L387 262L386 261M167 262L168 263L167 262M344 262L345 263L344 262M128 263L129 264L128 263M165 263L166 264L165 263M346 263L347 264L346 263M383 263L384 264L383 263M129 264L130 265L129 264M164 264L165 265L164 264M347 264L348 265L347 264M382 264L383 265L382 264M129.333 267.667L129.667 268.333L129.333 267.667M164 267L165 268L164 267M347 267L348 268L347 267M382.333 267.667L382.667 268.333L382.333 267.667M128.333 270.667L128.667 271.333L128.333 270.667M165 270L166 271L165 270M346 270L347 271L346 270M383.333 270.667L383.667 271.333L383.333 270.667M127.333 273.667L127.667 274.333L127.333 273.667M166 273L167 274L166 273M345 273L346 274L345 273M384.333 273.667L384.667 274.333L384.333 273.667M126.333 276.667L126.667 277.333L126.333 276.667M167.333 276.667L167.667 277.333L167.333 276.667M344.333 276.667L344.667 277.333L344.333 276.667M385.333 276.667L385.667 277.333L385.333 276.667M146.667 277.333L147.333 277.667L146.667 277.333M364.667 277.333L365.333 277.667L364.667 277.333M145 278L146 279L145 278M366 278L367 279L366 278M143 279L144 280L143 279M150 279L151 280L150 279M168.333 279.667L168.667 280.333L168.333 279.667M343.333 279.667L343.667 280.333L343.333 279.667M361 279L362 280L361 279M368 279L369 280L368 279M125 280L126 281L125 280M142 280L143 281L142 280M151 280L152 281L151 280M360 280L361 281L360 280M369 280L370 281L369 280M386 280L387 281L386 280M139 282L140 283L139 282M154 282L155 283L154 282M169.333 282.667L169.667 283.333L169.333 282.667M342.333 282.667L342.667 283.333L342.333 282.667M357 282L358 283L357 282M372 282L373 283L372 282M124 283L125 284L124 283M138 283L139 284L138 283M373 283L374 284L373 283M387 283L388 284L387 283M136 284L137 285L136 284M157 284L158 285L157 284M354 284L355 285L354 284M375 284L376 285L375 284M135 285L136 286L135 285M158 285L159 286L158 285M353 285L354 286L353 285M376 285L377 286L376 285M123 286L123 290L124 290L123 286M170 286L171 287L170 286M341 286L342 287L341 286M388 286L388 290L389 290L388 286M132 287L133 288L132 287M161 287L162 288L161 287M350 287L351 288L350 287M379 287L380 288L379 287M131 288L132 289L131 288M380 288L381 289L380 288M129 289L130 290L129 289M164 289L165 290L164 289M170 289L171 290L170 289M341 289L342 290L341 289M347 289L348 290L347 289M382 289L383 290L382 289M124 290L125 291L124 290M128 290L129 291L128 290M165 290L166 291L165 290M169 290L170 291L169 290M342 290L343 291L342 290M346 290L347 291L346 290M383 290L384 291L383 290M387 290L388 291L387 290z"/>
<path style="fill:#474755; stroke:none;" d="M0 312L0 373C0 389.027 -0.345953 403.855 13.0895 415.181C24.7733 425.03 38.7154 424 53 424L123 424L393 424L459 424C472.405 424 485.544 425.089 496.985 416.699C512.068 405.639 512 389.859 512 373L512 312L0 312z"/>
<path style="fill:#fbfbfb; stroke:none;" d="M0 394L0 512L512 512L512 394L511 394C508.056 408.038 496.77 419.116 483 422.841C473.292 425.467 461.988 424 452 424L395 424L110 424L53 424C40.2743 424 28.0785 424.883 17.0008 417.402C7.80876 411.194 5.3817 402.795 0 394z"/>
</svg>
