<?xml version="1.0" standalone="yes"?>
<svg xmlns="http://www.w3.org/2000/svg" width="512" height="512">
<path style="fill:#ffffff; stroke:none;" d="M0 0L0 118L1 118C3.94396 103.962 15.2304 92.8838 29 89.1589C37.8345 86.7691 47.9178 88 57 88L109 88L414 88C444.728 88 502.335 76.6818 511 118L512 118L512 0L0 0z"/>
<path style="fill:#ff4b55; stroke:none;" d="M159 424L159 88L59 88C42.6502 88 25.3219 85.7581 12.1705 97.6188C-5.97975 113.988 0 144.036 0 166L0 344C0 366.354 -6.29388 397.729 12.1705 414.381C25.3219 426.242 42.6502 424 59 424L159 424z"/>
<path style="fill:#73af01; stroke:none;" d="M159 88L159 200L512 200L512 139C512 124.216 512.626 110.739 501.56 99.2894C490.297 87.6353 475.956 88 461 88L409 88L159 88z"/>
<path style="fill:#f5f5f5; stroke:none;" d="M159 200L159 312L512 312L512 200L159 200z"/>
<path style="fill:#474755; stroke:none;" d="M159 312L159 424L409 424L462 424C476.651 424 490.557 424.096 501.56 412.711C512.626 401.261 512 387.784 512 373L512 312L159 312z"/>
<path style="fill:#ffffff; stroke:none;" d="M0 394L0 512L512 512L512 394L511 394C508.056 408.038 496.77 419.116 483 422.841C473.292 425.467 461.988 424 452 424L395 424L110 424L53 424C40.2743 424 28.0785 424.883 17.0008 417.402C7.80876 411.194 5.3817 402.795 0 394z"/>
</svg>
