<?xml version="1.0" standalone="yes"?>
<svg xmlns="http://www.w3.org/2000/svg" width="512" height="512">
<path style="fill:#ffffff; stroke:none;" d="M0 0L0 118L1 118C3.94396 103.962 15.2304 92.8838 29 89.1589C37.8345 86.7691 47.9178 88 57 88L109 88L414 88C444.728 88 502.335 76.6818 511 118L512 118L512 0L0 0z"/>
<path style="fill:#ff4b55; stroke:none;" d="M0 200L512 200L512 139C512 122.973 512.346 108.145 498.91 96.8194C487.227 86.9705 473.285 88 459 88L389 88L119 88L53 88C39.5946 88 26.4562 86.9109 15.0147 95.3009C-0.068121 106.361 0 122.141 0 139L0 200z"/>
<path style="fill:#f4f3f5; stroke:none;" d="M0 200L0 201L512 201C500.306 196.093 479.73 200 467 200L363 200L0 200z"/>
<path style="fill:#f5f5f5; stroke:none;" d="M0 201L0 311L512 311L512 201L0 201z"/>
<path style="fill:#f4f3f5; stroke:none;" d="M0 311L0 312L512 312C500.306 307.093 479.73 311 467 311L363 311L0 311z"/>
<path style="fill:#474755; stroke:none;" d="M0 312L0 373C0 389.027 -0.345953 403.855 13.0895 415.181C24.7733 425.03 38.7154 424 53 424L123 424L393 424L459 424C472.405 424 485.544 425.089 496.985 416.699C512.068 405.639 512 389.859 512 373L512 312L0 312z"/>
<path style="fill:#ffffff; stroke:none;" d="M0 394L0 512L512 512L512 394L511 394C508.056 408.038 496.77 419.116 483 422.841C473.292 425.467 461.988 424 452 424L395 424L110 424L53 424C40.2743 424 28.0785 424.883 17.0008 417.402C7.80876 411.194 5.3817 402.795 0 394z"/>
</svg>
