<svg width="600" height="568" viewBox="0 0 600 568" fill="none" xmlns="http://www.w3.org/2000/svg">
<g clip-path="url(#clip0_586_3539)">
<path d="M500.743 175.551C492.47 185.96 477.495 188.197 466.554 180.977L418.508 216.137C421.353 224.393 419.839 233.529 414.359 240.424C405.567 251.485 389.383 253.326 378.294 244.511C376.813 243.334 375.472 242.007 374.285 240.542L213.644 304.732C214.201 311.235 212.251 317.743 208.188 322.855C199.396 333.916 183.213 335.757 172.11 326.932C161.021 318.117 159.152 301.949 167.955 290.874C176.758 279.8 192.931 277.972 204.02 286.787C205.501 287.964 206.829 289.28 207.989 290.724L368.665 226.518C368.134 220.036 370.073 213.542 374.125 208.444C382.769 197.569 398.54 195.617 409.619 203.924L456.928 169.308C453.396 160.766 454.715 150.889 460.523 143.582C464.12 139.056 469.101 135.913 474.707 134.613L475.868 72.1984C472.997 71.2629 470.333 69.8193 467.931 67.91C456.842 59.0955 454.973 42.9273 463.766 31.8662C472.558 20.8051 488.731 18.9776 499.82 27.792C510.909 36.6065 512.778 52.7748 503.986 63.8359C500.653 68.0287 496.084 71.0649 490.957 72.5286L489.781 135.647C492.227 136.57 494.512 137.887 496.58 139.531C507.667 148.322 509.535 164.49 500.743 175.551ZM412.255 214.36L466.571 174.627L468.09 175.813C476.928 182.664 489.778 181.127 496.74 172.369C503.776 163.518 502.291 150.565 493.404 143.501C491.335 141.856 489 140.63 486.467 139.899L484.598 139.347L485.923 68.3969L487.937 67.9997C492.699 67.0497 496.967 64.4473 499.982 60.6538C507.018 51.8023 505.52 38.8389 496.646 31.7852C487.772 24.7315 474.815 26.1835 467.769 35.0483C460.723 43.9132 462.218 56.8525 471.105 63.9168C473.467 65.7943 476.151 67.1023 479.056 67.8038L481.063 68.2918L479.766 138.96L477.622 139.275C472.439 140.042 467.801 142.699 464.553 146.785C459.538 153.094 458.704 161.814 462.416 168.979L463.417 170.925L409.462 210.423L407.929 209.118C407.579 208.819 407.337 208.604 407.07 208.392C398.182 201.327 385.215 202.793 378.169 211.658C374.582 216.17 373.057 222.06 373.987 227.795L374.317 229.817L206.205 296.995L205.052 295.296C203.911 293.608 202.514 292.106 200.886 290.812C191.998 283.748 179.045 285.224 171.998 294.088C164.952 302.953 166.45 315.917 175.324 322.97C184.198 330.024 197.179 328.569 204.225 319.704C207.833 315.166 209.344 309.264 208.391 303.533L208.047 301.5L376.148 234.335L377.302 236.034C378.456 237.733 379.88 239.256 381.508 240.55C390.382 247.604 403.349 246.138 410.396 237.274C415.125 231.324 416.169 223.27 413.12 216.285L412.255 214.36Z" fill="url(#paint0_linear_586_3539)"/>
<path d="M200.379 316.626C195.004 323.387 185.123 324.504 178.344 319.116C171.566 313.727 170.424 303.849 175.799 297.088C181.173 290.326 191.054 289.209 197.833 294.598C198.42 295.064 198.882 295.497 199.296 295.935C202.182 298.88 203.773 302.795 203.77 306.962C203.746 310.527 202.569 313.87 200.379 316.626ZM179.789 300.259C176.16 304.825 176.941 311.484 181.505 315.112C186.082 318.75 192.744 317.985 196.362 313.433C197.844 311.57 198.637 309.311 198.65 306.911C198.654 304.112 197.584 301.459 195.62 299.463L195.551 299.387C195.316 299.134 195.03 298.864 194.643 298.556C190.082 294.953 183.407 295.707 179.789 300.259Z" fill="url(#paint1_linear_586_3539)"/>
<path d="M406.526 234.198C401.151 240.959 391.27 242.076 384.504 236.698C383.997 236.295 383.522 235.852 383.014 235.34C380.116 232.384 378.545 228.443 378.572 224.272C378.594 220.793 379.8 217.385 381.958 214.67C386.921 208.427 395.749 206.909 402.504 211.149C402.947 211.414 403.473 211.766 404.006 212.191C406.769 214.386 408.665 217.37 409.486 220.803C410.623 225.508 409.552 230.391 406.526 234.198ZM385.948 217.842C384.467 219.705 383.671 221.939 383.655 224.316C383.63 227.141 384.7 229.795 386.65 231.779C386.979 232.106 387.294 232.421 387.655 232.708C392.218 236.335 398.88 235.57 402.498 231.018C404.53 228.463 405.252 225.17 404.483 221.974C403.935 219.649 402.65 217.65 400.795 216.176C400.488 215.932 400.171 215.701 399.845 215.508C395.245 212.611 389.292 213.635 385.948 217.842Z" fill="url(#paint2_linear_586_3539)"/>
<path d="M492.923 169.336C488.427 174.993 480.69 176.836 474.124 173.81C473.012 173.318 471.93 172.653 470.902 171.836C468.66 170.054 466.945 167.692 465.944 165.006C464.054 159.877 464.981 154.054 468.356 149.808C470.409 147.226 473.177 145.386 476.346 144.495C480.312 143.369 484.65 143.884 488.238 145.889C488.937 146.271 489.657 146.735 490.391 147.318C497.157 152.696 498.298 162.574 492.923 169.336ZM472.346 152.98C470.071 155.841 469.448 159.777 470.721 163.243C471.402 165.044 472.544 166.647 474.052 167.846C474.733 168.387 475.464 168.837 476.204 169.165C480.671 171.217 485.884 169.974 488.91 166.167C492.528 161.615 491.759 154.965 487.196 151.338C486.715 150.956 486.243 150.646 485.79 150.394C483.329 149.025 480.405 148.677 477.74 149.426C475.589 149.996 473.732 151.236 472.346 152.98Z" fill="url(#paint3_linear_586_3539)"/>
<path d="M496.152 57.61C494.417 59.7929 492.127 61.4691 489.551 62.4628C485.722 63.9373 481.374 63.8472 477.622 62.2116C476.345 61.6532 475.185 60.9483 474.118 60.0998C467.339 54.7114 466.21 44.844 471.585 38.0823C476.96 31.3205 486.841 30.204 493.606 35.5818C500.375 40.9835 501.516 50.8615 496.152 57.61ZM475.588 41.2644C471.97 45.8166 472.728 52.479 477.292 56.1066C478.012 56.6794 478.807 57.1591 479.662 57.5349C482.189 58.6306 485.117 58.6994 487.703 57.6924C489.445 57.0352 490.985 55.892 492.149 54.4278C495.767 49.8756 494.996 43.2026 490.432 39.5749C485.858 35.9606 479.207 36.7122 475.588 41.2644Z" fill="url(#paint4_linear_586_3539)"/>
<path d="M552.627 164.316C551.768 167.681 548.439 169.815 545.06 169.265L537.37 182.78C538.93 184.443 539.547 186.782 538.978 189.011C538.065 192.586 534.406 194.755 530.821 193.841C530.342 193.718 529.881 193.546 529.441 193.323L498.025 225.794C498.853 227.284 499.084 229.043 498.662 230.696C497.75 234.271 494.09 236.44 490.501 235.524C486.916 234.609 484.742 230.956 485.656 227.376C486.569 223.796 490.228 221.632 493.813 222.547C494.292 222.669 494.749 222.84 495.18 223.06L526.603 190.582C525.783 189.095 525.551 187.34 525.971 185.692C526.869 182.176 530.418 180.025 533.946 180.82L541.518 167.513C539.764 165.855 539.022 163.361 539.625 160.998C539.998 159.535 540.849 158.254 542.046 157.345L535.649 142.348C534.865 142.432 534.076 142.373 533.3 142.175C529.715 141.26 527.541 137.607 528.453 134.031C529.366 130.455 533.024 128.291 536.609 129.206C540.194 130.12 542.368 133.773 541.455 137.349C541.11 138.705 540.345 139.917 539.28 140.813L545.748 155.98C546.43 155.938 547.115 156.008 547.784 156.178C551.365 157.088 553.539 160.741 552.627 164.316ZM535.69 183.025L544.385 167.75L544.874 167.87C547.712 168.558 550.61 166.818 551.332 163.986C552.063 161.125 550.324 158.197 547.451 157.464C546.782 157.293 546.095 157.251 545.413 157.347L544.909 157.415L537.639 140.367L538.076 140.057C539.11 139.322 539.848 138.245 540.161 137.019C540.891 134.157 539.148 131.229 536.28 130.496C533.411 129.764 530.479 131.496 529.748 134.361C529.016 137.227 530.756 140.151 533.629 140.884C534.393 141.079 535.172 141.103 535.939 140.96L536.47 140.862L543.716 157.84L543.239 158.144C542.086 158.881 541.264 160.01 540.927 161.331C540.407 163.371 541.14 165.538 542.791 166.848L543.238 167.205L534.603 182.385L534.099 182.238C533.983 182.204 533.902 182.179 533.816 182.157C530.943 181.424 528.01 183.159 527.279 186.025C526.906 187.484 527.173 189.051 528.007 190.318L528.302 190.764L495.425 224.745L494.968 224.464C494.516 224.184 494.023 223.975 493.496 223.841C490.623 223.108 487.694 224.844 486.963 227.71C486.232 230.576 487.975 233.505 490.843 234.237C493.712 234.969 496.65 233.234 497.381 230.369C497.755 228.901 497.485 227.334 496.645 226.07L496.345 225.622L529.222 191.645L529.678 191.926C530.135 192.208 530.637 192.419 531.163 192.553C534.032 193.285 536.965 191.549 537.697 188.684C538.187 186.76 537.575 184.73 536.102 183.391L535.69 183.025Z" fill="url(#paint5_linear_586_3539)"/>
<path d="M496.135 230.046C495.578 232.232 493.342 233.555 491.151 232.995C488.959 232.436 487.631 230.204 488.189 228.018C488.747 225.832 490.982 224.51 493.174 225.069C493.363 225.118 493.52 225.171 493.665 225.231C494.668 225.625 495.465 226.387 495.91 227.381C496.286 228.233 496.363 229.155 496.135 230.046ZM489.479 228.348C489.102 229.823 490.001 231.327 491.476 231.703C492.956 232.081 494.461 231.186 494.837 229.715C494.991 229.112 494.938 228.489 494.685 227.916C494.386 227.249 493.848 226.731 493.167 226.465L493.142 226.454C493.059 226.419 492.962 226.386 492.837 226.354C491.364 225.983 489.855 226.876 489.479 228.348Z" fill="url(#paint6_linear_586_3539)"/>
<path d="M536.445 188.364C535.888 190.55 533.653 191.873 531.465 191.315C531.301 191.273 531.141 191.218 530.965 191.15C529.958 190.756 529.163 189.985 528.723 188.988C528.357 188.156 528.28 187.216 528.504 186.338C529.019 184.32 530.96 183.014 533.023 183.302C533.157 183.318 533.32 183.346 533.492 183.39C534.385 183.618 535.156 184.126 535.719 184.856C536.493 185.856 536.76 187.134 536.445 188.364ZM529.793 186.667C529.64 187.269 529.689 187.887 529.939 188.455C530.235 189.131 530.774 189.649 531.451 189.913C531.564 189.956 531.673 189.997 531.789 190.027C533.265 190.404 534.77 189.509 535.146 188.037C535.357 187.211 535.177 186.35 534.652 185.67C534.273 185.175 533.753 184.836 533.153 184.683C533.054 184.657 532.954 184.636 532.855 184.625C531.45 184.427 530.14 185.307 529.793 186.667Z" fill="url(#paint7_linear_586_3539)"/>
<path d="M550.099 163.671C549.632 165.5 547.985 166.767 546.097 166.748C545.78 166.749 545.451 166.706 545.119 166.622C544.394 166.437 543.733 166.057 543.207 165.524C542.208 164.504 541.806 163.017 542.157 161.645C542.37 160.81 542.833 160.076 543.493 159.524C544.317 158.832 545.406 158.491 546.476 158.585C546.683 158.602 546.904 158.635 547.141 158.696C549.328 159.254 550.656 161.486 550.099 163.671ZM543.447 161.974C543.211 162.899 543.483 163.903 544.157 164.593C544.511 164.95 544.955 165.21 545.443 165.334C545.663 165.39 545.885 165.419 546.096 165.418C547.38 165.43 548.489 164.576 548.803 163.345C549.179 161.874 548.285 160.372 546.81 159.995C546.654 159.955 546.509 159.932 546.374 159.92C545.641 159.857 544.907 160.087 544.352 160.55C543.9 160.916 543.59 161.41 543.447 161.974Z" fill="url(#paint8_linear_586_3539)"/>
<path d="M538.923 136.703C538.743 137.409 538.376 138.053 537.869 138.565C537.114 139.326 536.068 139.769 534.999 139.781C534.636 139.784 534.284 139.74 533.939 139.652C531.747 139.093 530.423 136.862 530.981 134.676C531.539 132.49 533.774 131.168 535.961 131.726C538.152 132.29 539.48 134.521 538.923 136.703ZM532.275 135.007C531.9 136.478 532.793 137.985 534.268 138.361C534.501 138.421 534.742 138.45 534.986 138.448C535.705 138.439 536.41 138.142 536.919 137.626C537.263 137.283 537.508 136.846 537.629 136.373C538.004 134.901 537.107 133.394 535.632 133.017C534.155 132.645 532.651 133.535 532.275 135.007Z" fill="url(#paint9_linear_586_3539)"/>
<path d="M370.479 505.175C367.796 507.379 363.849 507.129 361.451 504.685L347.254 511.027C347.527 513.292 346.64 515.542 344.862 517.001C342.01 519.344 337.777 518.926 335.429 516.067C335.115 515.685 334.845 515.272 334.623 514.833L290.082 522.411C289.867 524.102 289.012 525.657 287.694 526.739C284.842 529.081 280.609 528.664 278.258 525.801C275.91 522.942 276.32 518.711 279.175 516.366C282.031 514.021 286.261 514.442 288.609 517.301C288.922 517.683 289.189 518.091 289.406 518.524L333.957 510.944C334.177 509.26 335.029 507.708 336.343 506.628C339.147 504.325 343.281 504.692 345.654 507.421L359.634 501.178C359.2 498.803 360.079 496.353 361.963 494.806C363.13 493.847 364.574 493.318 366.077 493.294L369.797 477.42C369.116 477.023 368.515 476.509 368.006 475.889C365.658 473.03 366.068 468.799 368.92 466.457C371.772 464.115 376.002 464.536 378.35 467.395C380.698 470.254 380.288 474.485 377.436 476.827C376.355 477.715 375.022 478.239 373.632 478.332L369.869 494.385C370.443 494.755 370.954 495.216 371.392 495.749C373.741 498.602 373.331 502.833 370.479 505.175ZM345.755 510.231L361.804 503.065L362.127 503.451C364.008 505.685 367.373 505.998 369.632 504.143C371.914 502.269 372.245 498.88 370.363 496.589C369.925 496.055 369.396 495.614 368.79 495.288L368.343 495.045L372.574 477.001L373.11 477.01C374.378 477.028 375.61 476.598 376.588 475.795C378.871 473.921 379.199 470.528 377.32 468.24C375.441 465.952 372.053 465.612 369.767 467.489C367.482 469.366 367.154 472.752 369.036 475.044C369.536 475.653 370.149 476.134 370.853 476.473L371.338 476.707L367.13 494.681L366.565 494.644C365.2 494.555 363.87 494.979 362.816 495.845C361.19 497.18 360.498 499.361 361.053 501.395L361.202 501.946L345.257 509.072L344.938 508.655C344.865 508.559 344.815 508.491 344.758 508.422C342.876 506.131 339.485 505.794 337.199 507.671C336.036 508.626 335.323 510.047 335.246 511.562L335.219 512.096L288.607 520.027L288.405 519.53C288.207 519.036 287.932 518.576 287.588 518.157C285.706 515.865 282.317 515.531 280.031 517.408C277.746 519.285 277.417 522.678 279.296 524.966C281.175 527.254 284.57 527.594 286.855 525.717C288.025 524.756 288.735 523.332 288.806 521.817L288.83 521.279L335.439 513.35L335.64 513.848C335.842 514.345 336.122 514.812 336.467 515.231C338.346 517.519 341.737 517.857 344.023 515.98C345.557 514.72 346.265 512.721 345.87 510.77L345.755 510.231Z" fill="url(#paint10_linear_586_3539)"/>
<path d="M286.042 524.72C284.299 526.152 281.714 525.895 280.279 524.147C278.843 522.399 279.094 519.814 280.837 518.383C282.581 516.951 285.165 517.208 286.6 518.956C286.725 519.107 286.819 519.243 286.901 519.377C287.476 520.288 287.667 521.375 287.438 522.439C287.236 523.348 286.752 524.137 286.042 524.72ZM281.682 519.411C280.505 520.378 280.339 522.122 281.306 523.298C282.275 524.478 284.018 524.648 285.191 523.685C285.672 523.29 285.998 522.757 286.133 522.145C286.288 521.43 286.16 520.694 285.768 520.077L285.755 520.053C285.709 519.976 285.65 519.891 285.569 519.792C284.602 518.621 282.856 518.447 281.682 519.411Z" fill="url(#paint11_linear_586_3539)"/>
<path d="M343.203 514.982C341.46 516.414 338.876 516.157 337.443 514.412C337.336 514.281 337.239 514.142 337.137 513.984C336.559 513.07 336.374 511.977 336.61 510.914C336.807 510.027 337.301 509.223 338.002 508.648C339.611 507.326 341.949 507.422 343.441 508.876C343.54 508.968 343.654 509.086 343.767 509.224C344.352 509.936 344.673 510.802 344.694 511.724C344.726 512.988 344.185 514.176 343.203 514.982ZM338.846 509.676C338.366 510.071 338.04 510.598 337.906 511.204C337.744 511.924 337.872 512.66 338.261 513.274C338.327 513.375 338.39 513.473 338.466 513.566C339.433 514.743 341.176 514.913 342.349 513.949C343.008 513.408 343.373 512.607 343.352 511.748C343.34 511.125 343.122 510.544 342.729 510.066C342.664 509.986 342.595 509.91 342.523 509.843C341.507 508.851 339.931 508.786 338.846 509.676Z" fill="url(#paint12_linear_586_3539)"/>
<path d="M368.823 503.159C367.365 504.357 365.288 504.403 363.777 503.271C363.521 503.084 363.281 502.855 363.063 502.59C362.588 502.012 362.28 501.314 362.172 500.574C361.971 499.16 362.527 497.724 363.622 496.825C364.287 496.278 365.095 495.961 365.953 495.907C367.028 495.837 368.107 496.206 368.913 496.915C369.071 497.051 369.229 497.209 369.385 497.398C370.817 499.143 370.567 501.728 368.823 503.159ZM364.466 497.854C363.729 498.46 363.353 499.43 363.488 500.385C363.563 500.883 363.767 501.355 364.086 501.744C364.231 501.919 364.392 502.074 364.564 502.199C365.592 502.967 366.991 502.936 367.972 502.13C369.146 501.166 369.315 499.426 368.348 498.249C368.246 498.125 368.143 498.02 368.041 497.931C367.488 497.447 366.76 497.197 366.039 497.242C365.458 497.27 364.916 497.485 364.466 497.854Z" fill="url(#paint13_linear_586_3539)"/>
<path d="M375.777 474.807C375.214 475.27 374.538 475.572 373.825 475.684C372.767 475.851 371.661 475.589 370.793 474.966C370.498 474.753 370.24 474.51 370.014 474.234C368.579 472.486 368.832 469.905 370.575 468.473C372.319 467.042 374.903 467.298 376.336 469.043C377.768 470.794 377.517 473.378 375.777 474.807ZM371.423 469.505C370.249 470.469 370.077 472.212 371.044 473.389C371.196 473.575 371.373 473.741 371.571 473.884C372.156 474.302 372.9 474.48 373.615 474.365C374.096 474.293 374.552 474.085 374.93 473.775C376.103 472.811 376.272 471.065 375.306 469.888C374.336 468.715 372.597 468.542 371.423 469.505Z" fill="url(#paint14_linear_586_3539)"/>
<path d="M186.749 386.032C193.052 384.965 199.129 388.974 200.725 395.072L229.209 397.924C230.843 394.057 234.319 391.274 238.494 390.567C245.193 389.433 251.575 393.973 252.711 400.688C252.863 401.586 252.917 402.491 252.871 403.396L330.966 432.027C332.855 429.521 335.644 427.819 338.739 427.295C345.438 426.161 351.819 430.701 352.957 437.424C354.094 444.14 349.569 450.525 342.863 451.66C336.156 452.795 329.782 448.254 328.646 441.539C328.494 440.642 328.441 439.745 328.49 438.855L250.377 410.219C248.485 412.709 245.705 414.41 242.618 414.933C236.032 416.047 229.762 411.68 228.466 405.149L200.421 402.339C198.941 406.53 195.296 409.64 190.871 410.389C188.13 410.853 185.338 410.378 182.915 409.042L162.453 431.002C163.179 432.259 163.669 433.631 163.915 435.085C165.051 441.801 160.527 448.186 153.828 449.32C147.13 450.454 140.756 445.913 139.619 439.197C138.483 432.481 143.007 426.096 149.706 424.962C152.245 424.533 154.855 424.914 157.16 426.037L177.854 403.831C177.275 402.715 176.881 401.51 176.669 400.257C175.526 393.551 180.05 387.166 186.749 386.032ZM230.875 400.568L198.679 397.339L198.516 396.427C197.555 391.136 192.463 387.559 187.159 388.456C181.799 389.364 178.17 394.475 179.08 399.857C179.292 401.11 179.734 402.299 180.405 403.374L180.897 404.172L157.634 429.132L156.785 428.627C154.777 427.438 152.414 426.998 150.116 427.387C144.756 428.294 141.128 433.414 142.037 438.788C142.947 444.162 148.049 447.804 153.418 446.895C158.786 445.987 162.407 440.877 161.497 435.495C161.254 434.064 160.714 432.734 159.9 431.55L159.339 430.731L182.501 405.862L183.37 406.438C185.471 407.829 187.983 408.368 190.458 407.949C194.279 407.302 197.378 404.45 198.351 400.694L198.618 399.676L230.61 402.874L230.74 403.833C230.768 404.053 230.786 404.208 230.814 404.369C231.725 409.752 236.835 413.392 242.203 412.484C244.936 412.021 247.374 410.403 248.883 408.053L249.414 407.223L331.142 437.184L331.01 438.163C330.875 439.133 330.893 440.119 331.06 441.105C331.971 446.488 337.08 450.12 342.448 449.212C347.817 448.303 351.444 443.183 350.535 437.809C349.625 432.435 344.514 428.786 339.145 429.695C336.396 430.16 333.96 431.786 332.46 434.143L331.93 434.981L250.21 405.019L250.343 404.04C250.476 403.062 250.456 402.059 250.289 401.074C249.379 395.699 244.269 392.059 238.9 392.967C235.297 393.577 232.337 396.123 231.184 399.602L230.875 400.568Z" fill="url(#paint15_linear_586_3539)"/>
<path d="M339.532 432.032C343.627 431.339 347.521 434.113 348.216 438.219C348.911 442.324 346.147 446.225 342.052 446.918C337.957 447.611 334.063 444.837 333.368 440.731C333.308 440.376 333.281 440.073 333.274 439.783C333.187 437.803 333.875 435.891 335.215 434.4C336.369 433.133 337.864 432.314 339.532 432.032ZM341.643 444.502C344.408 444.034 346.267 441.4 345.799 438.636C345.33 435.864 342.701 433.998 339.944 434.464C338.816 434.655 337.806 435.209 337.031 436.063C336.13 437.063 335.661 438.357 335.723 439.701L335.723 439.751C335.726 439.917 335.741 440.105 335.781 440.34C336.255 443.094 338.886 444.968 341.643 444.502Z" fill="url(#paint16_linear_586_3539)"/>
<path d="M239.297 395.311C243.392 394.618 247.286 397.392 247.98 401.489C248.032 401.796 248.059 402.108 248.076 402.454C248.164 404.442 247.46 406.357 246.111 407.841C244.985 409.079 243.46 409.91 241.815 410.189C238.034 410.829 234.388 408.536 233.333 404.849C233.259 404.612 233.185 404.317 233.13 403.994C232.847 402.321 233.127 400.645 233.936 399.153C235.04 397.104 236.992 395.701 239.297 395.311ZM241.406 407.772C242.535 407.581 243.537 407.038 244.306 406.193C245.223 405.19 245.692 403.896 245.632 402.56C245.619 402.338 245.608 402.123 245.571 401.905C245.103 399.141 242.474 397.275 239.717 397.742C238.169 398.004 236.853 398.95 236.102 400.341C235.551 401.348 235.369 402.476 235.559 403.6C235.59 403.786 235.63 403.97 235.684 404.144C236.4 406.658 238.859 408.204 241.406 407.772Z" fill="url(#paint17_linear_586_3539)"/>
<path d="M187.55 390.768C190.976 390.188 194.337 392.013 195.714 395.205C195.954 395.738 196.127 396.324 196.233 396.946C196.463 398.304 196.317 399.7 195.813 400.983C194.842 403.425 192.64 405.211 190.068 405.646C188.505 405.91 186.923 405.679 185.503 404.98C183.722 404.11 182.336 402.532 181.696 400.662C181.568 400.301 181.46 399.904 181.385 399.459C180.691 395.362 183.455 391.461 187.55 390.768ZM189.659 403.229C191.392 402.936 192.88 401.728 193.538 400.079C193.872 399.216 193.978 398.276 193.824 397.362C193.754 396.95 193.637 396.554 193.478 396.199C192.539 394.03 190.274 392.801 187.969 393.191C185.212 393.657 183.351 396.283 183.819 399.047C183.868 399.338 183.937 399.601 184.019 399.836C184.459 401.117 185.394 402.181 186.588 402.768C187.541 403.255 188.603 403.408 189.659 403.229Z" fill="url(#paint18_linear_586_3539)"/>
<path d="M150.509 429.706C151.831 429.483 153.189 429.619 154.43 430.09C156.273 430.792 157.8 432.221 158.617 434.012C158.895 434.622 159.083 435.246 159.193 435.893C159.888 439.998 157.122 443.891 153.027 444.584C148.932 445.277 145.038 442.503 144.345 438.406C143.658 434.299 146.422 430.398 150.509 429.706ZM152.617 442.16C155.374 441.693 157.242 439.066 156.774 436.302C156.701 435.866 156.57 435.439 156.385 435.03C155.833 433.826 154.807 432.861 153.559 432.391C152.724 432.066 151.806 431.981 150.919 432.131C148.163 432.597 146.295 435.233 146.763 437.997C147.239 440.759 149.86 442.626 152.617 442.16Z" fill="url(#paint19_linear_586_3539)"/>
<path d="M388.968 377.449C394.046 380.62 395.809 387.204 393.137 392.467L411.312 412.169C414.86 410.476 419.024 410.688 422.388 412.788C427.783 416.158 429.431 423.304 426.053 428.713C425.602 429.436 425.076 430.103 424.482 430.709L461.377 499.301C464.258 498.72 467.269 499.261 469.762 500.818C475.158 504.188 476.806 511.334 473.423 516.75C470.045 522.16 462.907 523.819 457.505 520.445C452.103 517.071 450.462 509.93 453.84 504.52C454.291 503.797 454.812 503.137 455.399 502.544L418.494 433.937C415.622 434.505 412.617 433.968 410.131 432.415C404.826 429.102 403.149 422.146 406.301 416.767L388.407 397.367C384.766 399.382 380.28 399.295 376.715 397.069C374.507 395.69 372.848 393.622 371.981 391.18L344.001 393.84C343.729 395.172 343.219 396.437 342.487 397.609C339.109 403.018 331.971 404.678 326.575 401.308C321.179 397.938 319.538 390.796 322.916 385.387C326.295 379.977 333.432 378.318 338.828 381.688C340.874 382.965 342.464 384.854 343.38 387.073L371.676 384.385C371.964 383.244 372.437 382.154 373.067 381.145C376.435 375.738 383.572 374.079 388.968 377.449ZM410.835 415.056L390.295 392.782L390.748 392.042C393.363 387.74 392.021 382.07 387.749 379.402C383.431 376.705 377.712 378.029 375.004 382.364C374.374 383.373 373.945 384.48 373.746 385.65L373.595 386.515L341.788 389.535L341.508 388.655C340.841 386.573 339.459 384.796 337.609 383.64C333.291 380.944 327.568 382.274 324.864 386.603C322.161 390.932 323.47 396.654 327.795 399.355C332.119 402.056 337.831 400.728 340.539 396.392C341.259 395.24 341.707 393.973 341.873 392.638L341.989 391.715L373.668 388.696L373.918 389.639C374.525 391.919 375.949 393.858 377.943 395.103C381.021 397.025 384.964 396.954 387.98 394.929L388.8 394.382L409.217 416.507L408.711 417.259C408.595 417.43 408.511 417.55 408.43 417.68C405.722 422.016 407.038 427.742 411.362 430.442C413.564 431.817 416.276 432.199 418.794 431.491L419.682 431.24L458.295 503.022L457.594 503.625C456.897 504.221 456.296 504.923 455.8 505.717C453.092 510.052 454.412 515.772 458.737 518.473C463.061 521.173 468.784 519.843 471.488 515.514C474.191 511.185 472.879 505.452 468.555 502.752C466.341 501.369 463.624 500.993 461.108 501.712L460.216 501.969L421.61 430.191L422.311 429.589C423.012 428.986 423.621 428.271 424.117 427.477C426.821 423.148 425.505 417.422 421.18 414.721C418.278 412.909 414.622 412.852 411.653 414.571L410.835 415.056Z" fill="url(#paint20_linear_586_3539)"/>
<path d="M467.373 504.629C470.672 506.689 471.675 511.052 469.609 514.359C467.544 517.666 463.183 518.68 459.885 516.62C456.586 514.56 455.584 510.197 457.649 506.89C457.828 506.603 457.998 506.375 458.172 506.167C459.343 504.727 461.013 503.815 462.878 503.604C464.474 503.434 466.029 503.79 467.373 504.629ZM461.1 514.674C463.328 516.065 466.267 515.376 467.657 513.149C469.052 510.916 468.37 507.975 466.15 506.589C465.241 506.021 464.19 505.781 463.116 505.897C461.863 506.038 460.731 506.652 459.938 507.632L459.907 507.667C459.807 507.785 459.7 507.927 459.582 508.115C458.202 510.339 458.88 513.287 461.1 514.674Z" fill="url(#paint21_linear_586_3539)"/>
<path d="M420.001 416.609C423.3 418.669 424.303 423.033 422.241 426.333C422.087 426.58 421.913 426.816 421.71 427.069C420.535 428.516 418.852 429.419 416.985 429.619C415.427 429.787 413.842 429.421 412.517 428.594C409.472 426.692 408.343 422.82 409.895 419.582C409.991 419.37 410.122 419.117 410.285 418.857C411.127 417.509 412.365 416.509 413.859 415.967C415.906 415.219 418.144 415.45 420.001 416.609ZM413.733 426.647C414.642 427.215 415.682 427.457 416.746 427.344C418.011 427.211 419.143 426.597 419.932 425.623C420.061 425.46 420.186 425.303 420.296 425.127C421.686 422.901 421.005 419.96 418.784 418.573C417.537 417.794 416.028 417.639 414.637 418.146C413.625 418.509 412.796 419.186 412.231 420.091C412.138 420.24 412.051 420.394 411.981 420.549C410.919 422.755 411.681 425.366 413.733 426.647Z" fill="url(#paint22_linear_586_3539)"/>
<path d="M386.586 381.263C389.345 382.987 390.564 386.354 389.545 389.445C389.381 389.968 389.139 390.486 388.826 390.987C388.143 392.081 387.174 392.968 386.023 393.553C383.825 394.659 381.173 394.541 379.102 393.248C377.842 392.461 376.878 391.316 376.318 389.944C375.612 388.227 375.622 386.261 376.336 384.553C376.471 384.221 376.642 383.876 376.865 383.518C378.927 380.217 383.287 379.203 386.586 381.263ZM380.317 391.301C381.713 392.173 383.505 392.252 384.991 391.506C385.762 391.11 386.421 390.517 386.88 389.781C387.088 389.449 387.252 389.099 387.361 388.751C388.051 386.649 387.23 384.38 385.373 383.22C383.152 381.834 380.217 382.516 378.826 384.742C378.68 384.977 378.565 385.204 378.476 385.419C377.989 386.59 377.982 387.916 378.453 389.069C378.817 390.003 379.466 390.77 380.317 391.301Z" fill="url(#paint23_linear_586_3539)"/>
<path d="M336.442 385.509C337.507 386.174 338.373 387.113 338.949 388.215C339.804 389.852 339.985 391.802 339.444 393.564C339.259 394.163 339.003 394.718 338.678 395.239C336.613 398.546 332.256 399.553 328.958 397.493C325.659 395.433 324.656 391.07 326.718 387.77C328.789 384.467 333.15 383.453 336.442 385.509ZM330.177 395.54C332.398 396.927 335.34 396.249 336.73 394.023C336.95 393.671 337.124 393.291 337.248 392.889C337.61 391.704 337.491 390.39 336.909 389.284C336.526 388.539 335.937 387.908 335.222 387.462C333.002 386.075 330.056 386.76 328.666 388.986C327.282 391.217 327.957 394.154 330.177 395.54Z" fill="url(#paint24_linear_586_3539)"/>
<path d="M121.575 542.171C114.265 536.227 112.798 525.599 118 517.903L93.4652 483.583C87.593 485.533 81.1314 484.389 76.2891 480.452C68.5209 474.135 67.344 462.653 73.6768 454.865C74.5227 453.825 75.4732 452.886 76.5206 452.056L32.3031 337.727C27.6907 338.071 23.0947 336.638 19.505 333.719C11.7368 327.402 10.5598 315.921 16.9003 308.123C23.2332 300.335 34.7041 299.139 42.4817 305.463C50.2592 311.787 51.4268 323.261 45.094 331.049C44.2481 332.09 43.3053 333.02 42.2731 333.831L86.5017 448.184C91.0988 447.859 95.6855 449.284 99.2658 452.196C106.903 458.406 108.162 469.596 102.189 477.381L126.344 511.175C132.424 508.739 139.412 509.751 144.544 513.924C147.723 516.509 149.911 520.063 150.787 524.045L195.003 525.359C195.688 523.332 196.732 521.456 198.104 519.769C204.436 511.981 215.907 510.784 223.676 517.101C231.444 523.418 232.611 534.892 226.279 542.68C219.946 550.468 208.475 551.665 200.707 545.348C197.762 542.953 195.647 539.692 194.65 536.048L149.936 534.718C149.262 536.443 148.311 538.052 147.13 539.505C140.814 547.291 129.343 548.488 121.575 542.171ZM94.7736 479.167L122.499 517.965L121.647 519.032C116.723 525.241 117.71 534.358 123.861 539.359C130.078 544.414 139.267 543.464 144.343 537.223C145.524 535.77 146.411 534.125 146.95 532.336L147.355 531.016L197.617 532.513L197.883 533.944C198.518 537.325 200.329 540.37 202.993 542.536C209.209 547.591 218.406 546.632 223.474 540.399C228.542 534.167 227.615 524.975 221.389 519.913C215.164 514.85 205.983 515.808 200.908 522.05C199.559 523.708 198.611 525.6 198.091 527.652L197.73 529.071L147.668 527.596L147.461 526.073C146.958 522.395 145.113 519.088 142.243 516.755C137.812 513.151 131.64 512.492 126.534 515.066L125.147 515.759L97.5849 477.218L98.5215 476.142C98.7367 475.897 98.8908 475.727 99.0432 475.539C104.119 469.297 103.182 460.098 96.9567 455.035C93.7877 452.459 89.6259 451.332 85.5554 451.945L84.12 452.163L37.8436 332.518L39.0566 331.713C40.2619 330.919 41.337 329.94 42.2667 328.797C47.3421 322.555 46.3984 313.365 40.1726 308.303C33.9468 303.24 24.7497 304.2 19.6819 310.432C14.614 316.664 15.5426 325.873 21.7684 330.936C24.9561 333.528 29.1255 334.645 33.1943 334.015L34.6374 333.787L80.9043 453.425L79.6914 454.229C78.4785 455.034 77.3881 456.031 76.4584 457.174C71.3906 463.406 72.3267 472.606 78.5525 477.668C82.7311 481.066 88.4291 481.87 93.4024 479.764L94.7736 479.167Z" fill="url(#paint25_linear_586_3539)"/>
<path d="M23.9802 328.235C19.2314 324.373 18.518 317.363 22.3893 312.602C26.2607 307.841 33.2688 307.11 38.0176 310.972C42.7664 314.833 43.4798 321.843 39.6084 326.604C39.2731 327.016 38.9631 327.34 38.6496 327.63C36.5402 329.651 33.7536 330.748 30.8004 330.713C28.2749 330.668 25.9152 329.808 23.9802 328.235ZM35.739 313.774C32.5326 311.167 27.8077 311.668 25.2014 314.873C22.5874 318.088 23.077 322.814 26.274 325.414C27.5827 326.478 29.1766 327.058 30.8772 327.086C32.8604 327.111 34.7489 326.373 36.1781 324.998L36.2331 324.949C36.4136 324.785 36.6076 324.584 36.8286 324.312C39.4179 321.109 38.936 316.373 35.739 313.774Z" fill="url(#paint26_linear_586_3539)"/>
<path d="M80.7625 474.95C76.0137 471.089 75.3003 464.079 79.164 459.327C79.4536 458.971 79.7713 458.638 80.1381 458.282C82.2551 456.252 85.0604 455.17 88.0153 455.222C90.4805 455.265 92.8853 456.146 94.7923 457.697C99.1766 461.262 100.183 467.529 97.1256 472.283C96.9343 472.594 96.6804 472.964 96.3756 473.339C94.7981 475.279 92.6687 476.599 90.23 477.153C86.887 477.922 83.436 477.124 80.7625 474.95ZM92.5137 460.499C91.205 459.435 89.6281 458.853 87.9444 458.823C85.9425 458.783 84.054 459.521 82.6325 460.887C82.3987 461.117 82.1725 461.338 81.9667 461.591C79.3604 464.796 79.85 469.522 83.047 472.122C84.8418 473.581 87.1688 474.119 89.4396 473.599C91.0911 473.23 92.5177 472.335 93.577 471.032C93.7523 470.816 93.9182 470.593 94.0578 470.364C96.1464 467.127 95.4677 462.901 92.5137 460.499Z" fill="url(#paint27_linear_586_3539)"/>
<path d="M126.041 536.679C122.068 533.448 120.823 527.952 123.018 523.323C123.376 522.539 123.856 521.777 124.443 521.056C125.723 519.481 127.41 518.285 129.321 517.596C132.97 516.298 137.089 517 140.071 519.425C141.884 520.9 143.166 522.876 143.772 525.129C144.539 527.947 144.14 531.017 142.691 533.544C142.415 534.036 142.081 534.542 141.662 535.058C137.798 539.809 130.79 540.54 126.041 536.679ZM137.792 522.227C135.782 520.593 132.999 520.12 130.533 520.995C129.251 521.463 128.106 522.26 127.245 523.319C126.857 523.797 126.532 524.311 126.293 524.834C124.804 527.982 125.644 531.686 128.318 533.86C131.515 536.459 136.232 535.967 138.839 532.762C139.113 532.425 139.336 532.093 139.518 531.773C140.508 530.041 140.778 527.971 140.268 526.077C139.881 524.548 139.017 523.223 137.792 522.227Z" fill="url(#paint28_linear_586_3539)"/>
<path d="M205.18 539.846C203.647 538.599 202.477 536.963 201.793 535.131C200.778 532.406 200.877 529.325 202.065 526.68C202.471 525.78 202.979 524.964 203.589 524.214C207.46 519.453 214.461 518.731 219.21 522.593C223.958 526.454 224.672 533.464 220.808 538.216C216.927 542.969 209.919 543.7 205.18 539.846ZM216.923 525.404C213.726 522.804 209 523.289 206.393 526.494C205.982 527 205.636 527.56 205.363 528.163C204.566 529.944 204.495 532.018 205.188 533.859C205.64 535.098 206.438 536.198 207.466 537.035C210.663 539.634 215.397 539.14 218.004 535.935C220.601 532.722 220.12 528.004 216.923 525.404Z" fill="url(#paint29_linear_586_3539)"/>
<path d="M147.864 240.999C143.259 245.505 142.918 252.825 146.933 257.73L132.367 282.624C128.251 281.669 123.927 282.856 120.876 285.841C115.983 290.629 115.892 298.512 120.682 303.408C121.322 304.062 122.027 304.64 122.791 305.138L99.7853 385.693C96.6263 385.751 93.5885 387.016 91.3272 389.229C86.4336 394.016 86.3434 401.9 91.1391 406.801C95.929 411.697 103.806 411.785 108.706 406.992C113.605 402.198 113.69 394.321 108.9 389.425C108.26 388.771 107.561 388.198 106.809 387.712L129.82 307.14C132.967 307.07 135.999 305.81 138.255 303.604C143.066 298.897 143.23 291.207 138.685 286.29L153.026 261.778C157.312 263.05 162.004 261.919 165.237 258.756C167.239 256.797 168.507 254.242 168.857 251.478L198.854 247.786C199.446 249.121 200.272 250.331 201.31 251.391C206.1 256.287 213.977 256.375 218.871 251.587C223.764 246.799 223.848 238.922 219.059 234.026C214.269 229.13 206.391 229.042 201.498 233.83C199.643 235.645 198.405 237.997 197.953 240.538L167.618 244.273C167.053 243.142 166.306 242.108 165.413 241.195C160.635 236.299 152.757 236.211 147.864 240.999ZM133.53 285.545L149.99 257.403L149.344 256.732C145.61 252.821 145.718 246.558 149.593 242.767C153.509 238.935 159.819 239 163.658 242.924C164.551 243.837 165.257 244.899 165.734 246.082L166.091 246.954L200.19 242.754L200.282 241.765C200.505 239.425 201.549 237.24 203.227 235.598C207.143 231.766 213.459 231.837 217.292 235.755C221.125 239.673 221.063 245.983 217.141 249.82C213.219 253.657 206.915 253.586 203.076 249.663C202.056 248.62 201.294 247.394 200.814 246.03L200.48 245.089L166.515 249.26L166.469 250.309C166.355 252.842 165.304 255.208 163.496 256.977C160.705 259.708 156.547 260.547 152.914 259.12L151.928 258.736L135.563 286.692L136.267 287.365C136.428 287.518 136.544 287.624 136.659 287.742C140.498 291.666 140.43 297.982 136.508 301.819C134.512 303.772 131.751 304.802 128.944 304.642L127.954 304.584L103.877 388.885L104.752 389.355C105.621 389.819 106.413 390.417 107.116 391.136C110.955 395.059 110.881 401.369 106.959 405.207C103.037 409.044 96.7216 408.973 92.8884 405.055C89.0553 401.137 89.1172 394.816 93.0391 390.979C95.0472 389.014 97.8144 387.99 100.621 388.161L101.617 388.225L125.688 303.93L124.813 303.46C123.938 302.989 123.135 302.38 122.432 301.662C118.598 297.744 118.666 291.428 122.588 287.591C125.22 285.015 129.047 284.108 132.56 285.225L133.53 285.545Z" fill="url(#paint30_linear_586_3539)"/>
<path d="M94.7108 392.675C91.7193 395.602 91.6678 400.415 94.5959 403.408C97.5241 406.401 102.337 406.454 105.328 403.528C108.32 400.601 108.371 395.788 105.443 392.795C105.19 392.536 104.959 392.335 104.727 392.158C103.167 390.917 101.204 390.347 99.1971 390.558C97.4818 390.748 95.9298 391.483 94.7108 392.675ZM103.605 401.766C101.585 403.742 98.3396 403.7 96.3683 401.685C94.3913 399.664 94.4318 396.419 96.4458 394.449C97.2702 393.642 98.3186 393.147 99.4737 393.02C100.821 392.878 102.152 393.26 103.209 394.105L103.249 394.134C103.382 394.235 103.527 394.359 103.694 394.53C105.654 396.544 105.619 399.796 103.605 401.766Z" fill="url(#paint31_linear_586_3539)"/>
<path d="M124.26 289.299C121.268 292.226 121.216 297.039 124.139 300.026C124.358 300.25 124.595 300.456 124.866 300.675C126.432 301.922 128.407 302.48 130.414 302.258C132.089 302.072 133.67 301.321 134.871 300.146C137.633 297.443 137.93 293.117 135.556 290.078C135.407 289.878 135.211 289.643 134.98 289.407C133.787 288.188 132.257 287.425 130.564 287.202C128.242 286.89 125.944 287.651 124.26 289.299ZM133.148 298.384C132.323 299.191 131.287 299.686 130.143 299.813C128.784 299.967 127.453 299.585 126.402 298.746C126.229 298.604 126.061 298.468 125.905 298.309C123.934 296.294 123.975 293.049 125.989 291.078C127.119 289.972 128.669 289.459 130.246 289.669C131.392 289.816 132.418 290.334 133.219 291.153C133.352 291.289 133.479 291.43 133.588 291.577C135.209 293.646 135.009 296.563 133.148 298.384Z" fill="url(#paint32_linear_586_3539)"/>
<path d="M151.241 244.452C148.739 246.9 148.232 250.717 150.012 253.726C150.303 254.237 150.677 254.724 151.121 255.178C152.089 256.168 153.311 256.875 154.653 257.222C157.216 257.874 159.975 257.136 161.853 255.298C162.995 254.18 163.745 252.755 164.018 251.185C164.366 249.219 163.904 247.157 162.762 245.53C162.544 245.213 162.285 244.889 161.968 244.565C159.046 241.578 154.233 241.525 151.241 244.452ZM160.13 253.536C158.864 254.775 156.999 255.273 155.268 254.834C154.367 254.597 153.539 254.127 152.887 253.461C152.593 253.161 152.34 252.832 152.146 252.491C150.938 250.444 151.281 247.873 152.965 246.225C154.979 244.254 158.218 244.291 160.19 246.305C160.397 246.518 160.57 246.729 160.713 246.935C161.494 248.051 161.805 249.441 161.575 250.761C161.407 251.826 160.901 252.782 160.13 253.536Z" fill="url(#paint33_linear_586_3539)"/>
<path d="M204.881 237.289C203.915 238.234 203.221 239.42 202.869 240.71C202.347 242.627 202.605 244.716 203.577 246.44C203.909 247.027 204.305 247.55 204.766 248.021C207.694 251.014 212.501 251.062 215.493 248.135C218.484 245.208 218.536 240.396 215.613 237.409C212.679 234.422 207.867 234.368 204.881 237.289ZM213.764 246.368C211.75 248.338 208.504 248.308 206.533 246.293C206.222 245.975 205.952 245.616 205.729 245.223C205.077 244.062 204.899 242.656 205.257 241.36C205.488 240.489 205.963 239.69 206.61 239.056C208.624 237.086 211.875 237.122 213.847 239.137C215.812 241.158 215.778 244.397 213.764 246.368Z" fill="url(#paint34_linear_586_3539)"/>
<path d="M535.14 532.382C537.947 527.664 536.625 521.56 532.245 518.399L538.793 494.708C542.392 494.593 545.694 492.669 547.553 489.544C550.535 484.529 548.884 478.017 543.868 475.033C543.198 474.635 542.491 474.312 541.752 474.069L543.069 402.689C545.658 401.95 547.883 400.242 549.262 397.925C552.244 392.911 550.593 386.399 545.571 383.411C540.554 380.427 534.047 382.079 531.061 387.099C528.075 392.12 529.729 398.626 534.746 401.61C535.416 402.008 536.117 402.327 536.843 402.563L535.525 473.959C532.948 474.705 530.727 476.407 529.352 478.718C526.42 483.647 527.968 490.017 532.787 493.071L526.341 516.398C522.532 516.289 518.915 518.247 516.945 521.56C515.725 523.611 515.239 525.994 515.556 528.347L491.658 537.953C490.879 536.982 489.934 536.167 488.847 535.521C483.83 532.537 477.323 534.188 474.341 539.203C471.358 544.217 473.013 550.723 478.029 553.707C483.046 556.691 489.553 555.039 492.536 550.025C493.666 548.124 494.17 545.917 493.987 543.724L518.154 534.009C518.867 534.817 519.708 535.505 520.643 536.062C525.65 539.048 532.157 537.397 535.14 532.382ZM537.196 492.557L529.799 519.337L530.477 519.749C534.409 522.153 535.69 527.335 533.329 531.305C530.942 535.318 525.731 536.646 521.71 534.254C520.775 533.698 519.961 532.977 519.31 532.107L518.824 531.467L491.659 542.389L491.8 543.224C492.128 545.2 491.747 547.228 490.725 548.948C488.338 552.961 483.121 554.285 479.106 551.897C475.092 549.509 473.761 544.299 476.152 540.28C478.542 536.261 483.75 534.939 487.77 537.331C488.839 537.966 489.735 538.81 490.429 539.827L490.91 540.53L517.97 529.66L517.779 528.787C517.319 526.675 517.666 524.497 518.768 522.644C520.469 519.784 523.71 518.183 527.014 518.563L527.911 518.664L535.27 492.057L534.544 491.657C534.377 491.566 534.259 491.504 534.138 491.432C530.117 489.041 528.791 483.824 531.181 479.806C532.398 477.76 534.447 476.308 536.794 475.825L537.622 475.655L539.001 400.955L538.178 400.759C537.36 400.567 536.577 400.248 535.841 399.81C531.82 397.419 530.5 392.206 532.89 388.187C535.28 384.169 540.497 382.844 544.512 385.232C548.526 387.62 549.859 392.84 547.469 396.859C546.245 398.917 544.19 400.365 541.841 400.839L541.007 401.004L539.631 475.699L540.454 475.894C541.278 476.09 542.073 476.416 542.809 476.854C546.824 479.242 548.15 484.459 545.76 488.477C544.156 491.174 541.203 492.759 538.064 492.608L537.196 492.557Z" fill="url(#paint35_linear_586_3539)"/>
<path d="M545.721 395.827C547.544 392.762 546.533 388.787 543.466 386.963C540.4 385.139 536.424 386.148 534.601 389.213C532.778 392.278 533.788 396.253 536.855 398.077C537.121 398.235 537.355 398.35 537.584 398.446C539.141 399.126 540.882 399.166 542.489 398.553C543.86 398.021 544.978 397.076 545.721 395.827ZM536.406 390.287C537.637 388.217 540.319 387.541 542.383 388.769C544.454 390.001 545.131 392.683 543.903 394.746C543.401 395.591 542.646 396.228 541.722 396.586C540.644 396.998 539.464 396.975 538.409 396.51L538.369 396.494C538.237 396.441 538.091 396.37 537.916 396.266C535.861 395.036 535.178 392.35 536.406 390.287Z" fill="url(#paint36_linear_586_3539)"/>
<path d="M544.009 487.436C545.833 484.371 544.822 480.395 541.761 478.575C541.532 478.439 541.291 478.32 541.02 478.2C539.457 477.515 537.708 477.488 536.104 478.11C534.766 478.629 533.628 479.594 532.896 480.825C531.212 483.655 531.915 487.283 534.535 489.267C534.702 489.399 534.914 489.55 535.156 489.693C536.406 490.437 537.833 490.73 539.276 490.543C541.257 490.291 542.983 489.162 544.009 487.436ZM534.701 481.899C535.203 481.054 535.948 480.419 536.862 480.064C537.948 479.64 539.128 479.663 540.177 480.125C540.351 480.203 540.519 480.279 540.682 480.376C542.746 481.604 543.423 484.285 542.196 486.349C541.507 487.507 540.343 488.269 538.998 488.441C538.022 488.571 537.063 488.369 536.224 487.87C536.085 487.787 535.95 487.699 535.828 487.601C534.04 486.252 533.566 483.806 534.701 481.899Z" fill="url(#paint37_linear_586_3539)"/>
<path d="M531.602 530.278C533.128 527.714 532.71 524.459 530.585 522.37C530.233 522.014 529.819 521.694 529.354 521.417C528.34 520.814 527.179 520.499 525.997 520.507C523.744 520.531 521.634 521.743 520.489 523.667C519.792 524.838 519.487 526.176 519.606 527.529C519.75 529.224 520.581 530.821 521.878 531.911C522.127 532.125 522.411 532.334 522.743 532.532C525.804 534.352 529.779 533.343 531.602 530.278ZM522.294 524.741C523.065 523.444 524.492 522.626 526.014 522.608C526.808 522.607 527.593 522.812 528.275 523.218C528.583 523.401 528.863 523.617 529.098 523.854C530.54 525.276 530.821 527.469 529.795 529.195C528.567 531.258 525.891 531.938 523.827 530.71C523.61 530.58 523.421 530.444 523.258 530.306C522.371 529.558 521.81 528.481 521.71 527.343C521.616 526.43 521.823 525.532 522.294 524.741Z" fill="url(#paint38_linear_586_3539)"/>
<path d="M488.992 547.917C489.581 546.928 489.893 545.798 489.9 544.659C489.91 542.966 489.241 541.302 488.063 540.094C487.662 539.684 487.221 539.34 486.738 539.053C483.671 537.229 479.701 538.241 477.878 541.307C476.055 544.372 477.066 548.347 480.127 550.167C483.197 551.985 487.172 550.976 488.992 547.917ZM479.689 542.384C480.917 540.32 483.596 539.635 485.661 540.863C485.987 541.057 486.288 541.293 486.557 541.568C487.348 542.381 487.802 543.501 487.791 544.646C487.792 545.414 487.576 546.176 487.181 546.84C485.953 548.904 483.268 549.585 481.203 548.357C479.142 547.123 478.462 544.447 479.689 542.384Z" fill="url(#paint39_linear_586_3539)"/>
<path d="M526.397 279.783C517.892 278.105 509.509 283.301 507.124 291.491L468.411 294.284C466.337 288.991 461.727 285.096 456.093 283.984C447.054 282.2 438.239 288.102 436.454 297.145C436.216 298.353 436.11 299.575 436.139 300.802L329.242 336.614C326.772 333.153 323.055 330.746 318.878 329.922C309.84 328.138 301.024 334.04 299.237 343.094C297.452 352.137 303.353 360.944 312.402 362.73C321.451 364.516 330.256 358.612 332.041 349.569C332.279 348.361 332.383 347.149 332.35 345.944L439.271 310.126C441.745 313.565 445.451 315.97 449.617 316.792C458.503 318.546 467.16 312.872 469.155 304.086L507.272 301.333C509.125 307.058 513.952 311.402 519.923 312.581C523.621 313.311 527.423 312.772 530.756 311.056L557.693 341.528C556.663 343.202 555.95 345.039 555.563 346.998C553.778 356.041 559.678 364.848 568.717 366.632C577.756 368.416 586.56 362.512 588.345 353.469C590.13 344.426 584.229 335.619 575.191 333.835C571.765 333.158 568.213 333.577 565.049 335.01L537.806 304.195C538.631 302.707 539.21 301.091 539.543 299.405C541.336 290.375 535.436 281.568 526.397 279.783ZM466.056 297.799L509.815 294.633L510.069 293.406C511.565 286.285 518.596 281.635 525.753 283.048C532.986 284.476 537.719 291.526 536.288 298.773C535.955 300.46 535.314 302.052 534.365 303.481L533.669 304.542L564.293 339.179L565.461 338.528C568.228 336.994 571.447 336.487 574.547 337.099C581.78 338.527 586.51 345.588 585.082 352.825C583.654 360.061 576.605 364.797 569.361 363.368C562.118 361.938 557.395 354.889 558.826 347.642C559.206 345.716 559.987 343.937 561.133 342.366L561.924 341.278L531.433 306.769L530.235 307.516C527.336 309.318 523.911 309.954 520.572 309.295C515.416 308.277 511.319 304.303 510.137 299.185L509.812 297.798L466.331 300.928L466.121 302.221C466.074 302.517 466.044 302.726 466.001 302.943C464.571 310.191 457.512 314.925 450.268 313.495C446.581 312.767 443.335 310.487 441.375 307.251L440.685 306.109L328.815 343.585L328.96 344.914C329.106 346.231 329.046 347.565 328.784 348.892C327.354 356.14 320.297 360.863 313.053 359.433C305.809 358.003 301.078 350.942 302.506 343.705C303.935 336.469 310.996 331.724 318.24 333.154C321.949 333.886 325.192 336.177 327.139 339.421L327.827 340.575L439.686 303.097L439.542 301.768C439.397 300.439 439.461 299.084 439.723 297.756C441.152 290.52 448.211 285.786 455.455 287.216C460.317 288.175 464.237 291.73 465.673 296.479L466.056 297.799Z" fill="url(#paint40_linear_586_3539)"/>
<path d="M317.63 336.301C312.105 335.21 306.726 338.818 305.634 344.345C304.543 349.873 308.148 355.254 313.674 356.345C319.199 357.435 324.578 353.828 325.669 348.3C325.764 347.821 325.811 347.412 325.831 347.021C326.021 344.345 325.158 341.732 323.396 339.666C321.878 337.908 319.882 336.745 317.63 336.301ZM314.316 353.091C310.585 352.355 308.161 348.722 308.895 345C309.632 341.268 313.264 338.842 316.984 339.576C318.506 339.877 319.854 340.663 320.875 341.848C322.059 343.235 322.648 345.002 322.515 346.818L322.513 346.886C322.503 347.11 322.475 347.364 322.413 347.68C321.67 351.388 318.036 353.825 314.316 353.091Z" fill="url(#paint41_linear_586_3539)"/>
<path d="M454.832 290.371C449.307 289.281 443.927 292.888 442.838 298.405C442.757 298.819 442.708 299.239 442.672 299.706C442.481 302.393 443.365 305.01 445.14 307.067C446.621 308.784 448.659 309.966 450.878 310.404C455.979 311.411 461.005 308.447 462.569 303.498C462.677 303.18 462.789 302.784 462.875 302.349C463.32 300.096 463.001 297.818 461.959 295.769C460.537 292.956 457.943 290.985 454.832 290.371ZM451.52 307.151C449.997 306.85 448.658 306.077 447.646 304.905C446.44 303.514 445.851 301.747 445.982 299.941C446.007 299.641 446.03 299.352 446.088 299.058C446.823 295.336 450.455 292.91 454.174 293.645C456.263 294.057 458.012 295.386 458.98 297.295C459.69 298.679 459.896 300.212 459.597 301.724C459.548 301.975 459.487 302.223 459.408 302.456C458.346 305.83 454.957 307.829 451.52 307.151Z" fill="url(#paint42_linear_586_3539)"/>
<path d="M525.138 286.16C520.516 285.248 515.895 287.591 513.911 291.858C513.567 292.57 513.31 293.356 513.145 294.194C512.784 296.022 512.93 297.916 513.567 299.67C514.795 303.01 517.714 305.508 521.184 306.193C523.294 306.61 525.446 306.356 527.396 305.464C529.842 304.352 531.779 302.27 532.714 299.764C532.9 299.28 533.062 298.747 533.18 298.149C534.269 292.632 530.664 287.251 525.138 286.16ZM521.826 302.94C519.488 302.478 517.516 300.789 516.684 298.533C516.262 297.353 516.152 296.076 516.395 294.847C516.504 294.292 516.677 293.76 516.906 293.286C518.258 290.387 521.372 288.808 524.483 289.422C528.203 290.157 530.63 293.779 529.895 297.5C529.818 297.892 529.714 298.245 529.595 298.56C528.952 300.276 527.646 301.68 526.006 302.431C524.697 303.054 523.251 303.221 521.826 302.94Z" fill="url(#paint43_linear_586_3539)"/>
<path d="M573.93 340.222C572.146 339.87 570.3 340.003 568.602 340.595C566.077 341.476 563.955 343.352 562.783 345.744C562.385 346.558 562.106 347.397 561.934 348.267C560.843 353.795 564.45 359.165 569.975 360.256C575.501 361.346 580.88 357.739 581.969 352.222C583.049 346.692 579.444 341.311 573.93 340.222ZM570.62 356.991C566.9 356.257 564.463 352.633 565.197 348.911C565.313 348.324 565.505 347.751 565.771 347.204C566.563 345.597 567.989 344.329 569.699 343.74C570.841 343.332 572.089 343.251 573.285 343.487C577.005 344.221 579.441 347.856 578.706 351.578C577.961 355.297 574.34 357.725 570.62 356.991Z" fill="url(#paint44_linear_586_3539)"/>
</g>
<defs>
<linearGradient id="paint0_linear_586_3539" x1="178.038" y1="368.835" x2="577.952" y2="19.659" gradientUnits="userSpaceOnUse">
<stop stop-color="#5CE5BD"/>
<stop offset="0.3591" stop-color="#9AB191"/>
<stop offset="0.7933" stop-color="#EA6D59"/>
<stop offset="1" stop-color="#ED5858"/>
</linearGradient>
<linearGradient id="paint1_linear_586_3539" x1="151.646" y1="338.608" x2="551.56" y2="-10.5671" gradientUnits="userSpaceOnUse">
<stop stop-color="#5CE5BD"/>
<stop offset="0.3591" stop-color="#9AB191"/>
<stop offset="0.7933" stop-color="#EA6D59"/>
<stop offset="1" stop-color="#ED5858"/>
</linearGradient>
<linearGradient id="paint2_linear_586_3539" x1="199.864" y1="393.835" x2="599.78" y2="44.6577" gradientUnits="userSpaceOnUse">
<stop stop-color="#5CE5BD"/>
<stop offset="0.3591" stop-color="#9AB191"/>
<stop offset="0.7933" stop-color="#EA6D59"/>
<stop offset="1" stop-color="#ED5858"/>
</linearGradient>
<linearGradient id="paint3_linear_586_3539" x1="205.035" y1="399.756" x2="604.95" y2="50.5797" gradientUnits="userSpaceOnUse">
<stop stop-color="#5CE5BD"/>
<stop offset="0.3591" stop-color="#9AB191"/>
<stop offset="0.7933" stop-color="#EA6D59"/>
<stop offset="1" stop-color="#ED5858"/>
</linearGradient>
<linearGradient id="paint4_linear_586_3539" x1="151.043" y1="337.916" x2="550.955" y2="-11.259" gradientUnits="userSpaceOnUse">
<stop stop-color="#5CE5BD"/>
<stop offset="0.3591" stop-color="#9AB191"/>
<stop offset="0.7933" stop-color="#EA6D59"/>
<stop offset="1" stop-color="#ED5858"/>
</linearGradient>
<linearGradient id="paint5_linear_586_3539" x1="496.394" y1="244.876" x2="554.358" y2="118.914" gradientUnits="userSpaceOnUse">
<stop stop-color="#5CE5BD"/>
<stop offset="0.3591" stop-color="#9AB191"/>
<stop offset="0.7933" stop-color="#EA6D59"/>
<stop offset="1" stop-color="#ED5858"/>
</linearGradient>
<linearGradient id="paint6_linear_586_3539" x1="486.873" y1="240.495" x2="544.837" y2="114.533" gradientUnits="userSpaceOnUse">
<stop stop-color="#5CE5BD"/>
<stop offset="0.3591" stop-color="#9AB191"/>
<stop offset="0.7933" stop-color="#EA6D59"/>
<stop offset="1" stop-color="#ED5858"/>
</linearGradient>
<linearGradient id="paint7_linear_586_3539" x1="504.267" y1="248.499" x2="562.232" y2="122.537" gradientUnits="userSpaceOnUse">
<stop stop-color="#5CE5BD"/>
<stop offset="0.3591" stop-color="#9AB191"/>
<stop offset="0.7933" stop-color="#EA6D59"/>
<stop offset="1" stop-color="#ED5858"/>
</linearGradient>
<linearGradient id="paint8_linear_586_3539" x1="506.133" y1="249.358" x2="564.097" y2="123.396" gradientUnits="userSpaceOnUse">
<stop stop-color="#5CE5BD"/>
<stop offset="0.3591" stop-color="#9AB191"/>
<stop offset="0.7933" stop-color="#EA6D59"/>
<stop offset="1" stop-color="#ED5858"/>
</linearGradient>
<linearGradient id="paint9_linear_586_3539" x1="486.655" y1="240.394" x2="544.619" y2="114.433" gradientUnits="userSpaceOnUse">
<stop stop-color="#5CE5BD"/>
<stop offset="0.3591" stop-color="#9AB191"/>
<stop offset="0.7933" stop-color="#EA6D59"/>
<stop offset="1" stop-color="#ED5858"/>
</linearGradient>
<linearGradient id="paint10_linear_586_3539" x1="277.473" y1="536.826" x2="398.747" y2="469.604" gradientUnits="userSpaceOnUse">
<stop stop-color="#5CE5BD"/>
<stop offset="0.3591" stop-color="#9AB191"/>
<stop offset="0.7933" stop-color="#EA6D59"/>
<stop offset="1" stop-color="#ED5858"/>
</linearGradient>
<linearGradient id="paint11_linear_586_3539" x1="272.392" y1="527.66" x2="393.666" y2="460.438" gradientUnits="userSpaceOnUse">
<stop stop-color="#5CE5BD"/>
<stop offset="0.3591" stop-color="#9AB191"/>
<stop offset="0.7933" stop-color="#EA6D59"/>
<stop offset="1" stop-color="#ED5858"/>
</linearGradient>
<linearGradient id="paint12_linear_586_3539" x1="281.675" y1="544.407" x2="402.949" y2="477.185" gradientUnits="userSpaceOnUse">
<stop stop-color="#5CE5BD"/>
<stop offset="0.3591" stop-color="#9AB191"/>
<stop offset="0.7933" stop-color="#EA6D59"/>
<stop offset="1" stop-color="#ED5858"/>
</linearGradient>
<linearGradient id="paint13_linear_586_3539" x1="282.67" y1="546.203" x2="403.944" y2="478.981" gradientUnits="userSpaceOnUse">
<stop stop-color="#5CE5BD"/>
<stop offset="0.3591" stop-color="#9AB191"/>
<stop offset="0.7933" stop-color="#EA6D59"/>
<stop offset="1" stop-color="#ED5858"/>
</linearGradient>
<linearGradient id="paint14_linear_586_3539" x1="272.276" y1="527.45" x2="393.549" y2="460.228" gradientUnits="userSpaceOnUse">
<stop stop-color="#5CE5BD"/>
<stop offset="0.3591" stop-color="#9AB191"/>
<stop offset="0.7933" stop-color="#EA6D59"/>
<stop offset="1" stop-color="#ED5858"/>
</linearGradient>
<linearGradient id="paint15_linear_586_3539" x1="364.295" y1="420.527" x2="109.051" y2="417.011" gradientUnits="userSpaceOnUse">
<stop stop-color="#5CE5BD"/>
<stop offset="0.3591" stop-color="#9AB191"/>
<stop offset="0.7933" stop-color="#EA6D59"/>
<stop offset="1" stop-color="#ED5858"/>
</linearGradient>
<linearGradient id="paint16_linear_586_3539" x1="364.03" y1="439.819" x2="108.786" y2="436.303" gradientUnits="userSpaceOnUse">
<stop stop-color="#5CE5BD"/>
<stop offset="0.3591" stop-color="#9AB191"/>
<stop offset="0.7933" stop-color="#EA6D59"/>
<stop offset="1" stop-color="#ED5858"/>
</linearGradient>
<linearGradient id="paint17_linear_586_3539" x1="364.516" y1="404.572" x2="109.27" y2="401.055" gradientUnits="userSpaceOnUse">
<stop stop-color="#5CE5BD"/>
<stop offset="0.3591" stop-color="#9AB191"/>
<stop offset="0.7933" stop-color="#EA6D59"/>
<stop offset="1" stop-color="#ED5858"/>
</linearGradient>
<linearGradient id="paint18_linear_586_3539" x1="364.568" y1="400.792" x2="109.323" y2="397.276" gradientUnits="userSpaceOnUse">
<stop stop-color="#5CE5BD"/>
<stop offset="0.3591" stop-color="#9AB191"/>
<stop offset="0.7933" stop-color="#EA6D59"/>
<stop offset="1" stop-color="#ED5858"/>
</linearGradient>
<linearGradient id="paint19_linear_586_3539" x1="364.023" y1="440.261" x2="108.78" y2="436.745" gradientUnits="userSpaceOnUse">
<stop stop-color="#5CE5BD"/>
<stop offset="0.3591" stop-color="#9AB191"/>
<stop offset="0.7933" stop-color="#EA6D59"/>
<stop offset="1" stop-color="#ED5858"/>
</linearGradient>
<linearGradient id="paint20_linear_586_3539" x1="491.866" y1="511.964" x2="315.299" y2="350.849" gradientUnits="userSpaceOnUse">
<stop stop-color="#5CE5BD"/>
<stop offset="0.3591" stop-color="#9AB191"/>
<stop offset="0.7933" stop-color="#EA6D59"/>
<stop offset="1" stop-color="#ED5858"/>
</linearGradient>
<linearGradient id="paint21_linear_586_3539" x1="479.689" y1="525.31" x2="303.122" y2="364.195" gradientUnits="userSpaceOnUse">
<stop stop-color="#5CE5BD"/>
<stop offset="0.3591" stop-color="#9AB191"/>
<stop offset="0.7933" stop-color="#EA6D59"/>
<stop offset="1" stop-color="#ED5858"/>
</linearGradient>
<linearGradient id="paint22_linear_586_3539" x1="501.938" y1="500.927" x2="325.37" y2="339.811" gradientUnits="userSpaceOnUse">
<stop stop-color="#5CE5BD"/>
<stop offset="0.3591" stop-color="#9AB191"/>
<stop offset="0.7933" stop-color="#EA6D59"/>
<stop offset="1" stop-color="#ED5858"/>
</linearGradient>
<linearGradient id="paint23_linear_586_3539" x1="504.324" y1="498.313" x2="327.756" y2="337.198" gradientUnits="userSpaceOnUse">
<stop stop-color="#5CE5BD"/>
<stop offset="0.3591" stop-color="#9AB191"/>
<stop offset="0.7933" stop-color="#EA6D59"/>
<stop offset="1" stop-color="#ED5858"/>
</linearGradient>
<linearGradient id="paint24_linear_586_3539" x1="479.41" y1="525.615" x2="302.843" y2="364.501" gradientUnits="userSpaceOnUse">
<stop stop-color="#5CE5BD"/>
<stop offset="0.3591" stop-color="#9AB191"/>
<stop offset="0.7933" stop-color="#EA6D59"/>
<stop offset="1" stop-color="#ED5858"/>
</linearGradient>
<linearGradient id="paint25_linear_586_3539" x1="-12.8371" y1="311.994" x2="231.426" y2="598.105" gradientUnits="userSpaceOnUse">
<stop stop-color="#5CE5BD"/>
<stop offset="0.3591" stop-color="#9AB191"/>
<stop offset="0.7933" stop-color="#EA6D59"/>
<stop offset="1" stop-color="#ED5858"/>
</linearGradient>
<linearGradient id="paint26_linear_586_3539" x1="8.78769" y1="293.532" x2="253.051" y2="579.643" gradientUnits="userSpaceOnUse">
<stop stop-color="#5CE5BD"/>
<stop offset="0.3591" stop-color="#9AB191"/>
<stop offset="0.7933" stop-color="#EA6D59"/>
<stop offset="1" stop-color="#ED5858"/>
</linearGradient>
<linearGradient id="paint27_linear_586_3539" x1="-30.723" y1="327.262" x2="213.541" y2="613.375" gradientUnits="userSpaceOnUse">
<stop stop-color="#5CE5BD"/>
<stop offset="0.3591" stop-color="#9AB191"/>
<stop offset="0.7933" stop-color="#EA6D59"/>
<stop offset="1" stop-color="#ED5858"/>
</linearGradient>
<linearGradient id="paint28_linear_586_3539" x1="-34.9594" y1="330.879" x2="209.305" y2="616.991" gradientUnits="userSpaceOnUse">
<stop stop-color="#5CE5BD"/>
<stop offset="0.3591" stop-color="#9AB191"/>
<stop offset="0.7933" stop-color="#EA6D59"/>
<stop offset="1" stop-color="#ED5858"/>
</linearGradient>
<linearGradient id="paint29_linear_586_3539" x1="9.28312" y1="293.11" x2="253.546" y2="579.219" gradientUnits="userSpaceOnUse">
<stop stop-color="#5CE5BD"/>
<stop offset="0.3591" stop-color="#9AB191"/>
<stop offset="0.7933" stop-color="#EA6D59"/>
<stop offset="1" stop-color="#ED5858"/>
</linearGradient>
<linearGradient id="paint30_linear_586_3539" x1="70.6702" y1="406.051" x2="218.975" y2="195.896" gradientUnits="userSpaceOnUse">
<stop stop-color="#5CE5BD"/>
<stop offset="0.3591" stop-color="#9AB191"/>
<stop offset="0.7933" stop-color="#EA6D59"/>
<stop offset="1" stop-color="#ED5858"/>
</linearGradient>
<linearGradient id="paint31_linear_586_3539" x1="86.5232" y1="417.239" x2="234.828" y2="207.083" gradientUnits="userSpaceOnUse">
<stop stop-color="#5CE5BD"/>
<stop offset="0.3591" stop-color="#9AB191"/>
<stop offset="0.7933" stop-color="#EA6D59"/>
<stop offset="1" stop-color="#ED5858"/>
</linearGradient>
<linearGradient id="paint32_linear_586_3539" x1="57.5582" y1="396.799" x2="205.864" y2="186.643" gradientUnits="userSpaceOnUse">
<stop stop-color="#5CE5BD"/>
<stop offset="0.3591" stop-color="#9AB191"/>
<stop offset="0.7933" stop-color="#EA6D59"/>
<stop offset="1" stop-color="#ED5858"/>
</linearGradient>
<linearGradient id="paint33_linear_586_3539" x1="54.4524" y1="394.607" x2="202.758" y2="184.451" gradientUnits="userSpaceOnUse">
<stop stop-color="#5CE5BD"/>
<stop offset="0.3591" stop-color="#9AB191"/>
<stop offset="0.7933" stop-color="#EA6D59"/>
<stop offset="1" stop-color="#ED5858"/>
</linearGradient>
<linearGradient id="paint34_linear_586_3539" x1="86.8865" y1="417.494" x2="235.191" y2="207.34" gradientUnits="userSpaceOnUse">
<stop stop-color="#5CE5BD"/>
<stop offset="0.3591" stop-color="#9AB191"/>
<stop offset="0.7933" stop-color="#EA6D59"/>
<stop offset="1" stop-color="#ED5858"/>
</linearGradient>
<linearGradient id="paint35_linear_586_3539" x1="562.593" y1="379.549" x2="486.443" y2="585.093" gradientUnits="userSpaceOnUse">
<stop stop-color="#5CE5BD"/>
<stop offset="0.3591" stop-color="#9AB191"/>
<stop offset="0.7933" stop-color="#EA6D59"/>
<stop offset="1" stop-color="#ED5858"/>
</linearGradient>
<linearGradient id="paint36_linear_586_3539" x1="547.088" y1="373.805" x2="470.938" y2="579.349" gradientUnits="userSpaceOnUse">
<stop stop-color="#5CE5BD"/>
<stop offset="0.3591" stop-color="#9AB191"/>
<stop offset="0.7933" stop-color="#EA6D59"/>
<stop offset="1" stop-color="#ED5858"/>
</linearGradient>
<linearGradient id="paint37_linear_586_3539" x1="575.417" y1="384.299" x2="499.267" y2="589.845" gradientUnits="userSpaceOnUse">
<stop stop-color="#5CE5BD"/>
<stop offset="0.3591" stop-color="#9AB191"/>
<stop offset="0.7933" stop-color="#EA6D59"/>
<stop offset="1" stop-color="#ED5858"/>
</linearGradient>
<linearGradient id="paint38_linear_586_3539" x1="578.455" y1="385.425" x2="502.305" y2="590.97" gradientUnits="userSpaceOnUse">
<stop stop-color="#5CE5BD"/>
<stop offset="0.3591" stop-color="#9AB191"/>
<stop offset="0.7933" stop-color="#EA6D59"/>
<stop offset="1" stop-color="#ED5858"/>
</linearGradient>
<linearGradient id="paint39_linear_586_3539" x1="546.733" y1="373.674" x2="470.583" y2="579.217" gradientUnits="userSpaceOnUse">
<stop stop-color="#5CE5BD"/>
<stop offset="0.3591" stop-color="#9AB191"/>
<stop offset="0.7933" stop-color="#EA6D59"/>
<stop offset="1" stop-color="#ED5858"/>
</linearGradient>
<linearGradient id="paint40_linear_586_3539" x1="284.483" y1="319.811" x2="630.59" y2="324.343" gradientUnits="userSpaceOnUse">
<stop stop-color="#5CE5BD"/>
<stop offset="0.3591" stop-color="#9AB191"/>
<stop offset="0.7933" stop-color="#EA6D59"/>
<stop offset="1" stop-color="#ED5858"/>
</linearGradient>
<linearGradient id="paint41_linear_586_3539" x1="284.141" y1="345.92" x2="630.248" y2="350.451" gradientUnits="userSpaceOnUse">
<stop stop-color="#5CE5BD"/>
<stop offset="0.3591" stop-color="#9AB191"/>
<stop offset="0.7933" stop-color="#EA6D59"/>
<stop offset="1" stop-color="#ED5858"/>
</linearGradient>
<linearGradient id="paint42_linear_586_3539" x1="284.765" y1="298.218" x2="630.873" y2="302.749" gradientUnits="userSpaceOnUse">
<stop stop-color="#5CE5BD"/>
<stop offset="0.3591" stop-color="#9AB191"/>
<stop offset="0.7933" stop-color="#EA6D59"/>
<stop offset="1" stop-color="#ED5858"/>
</linearGradient>
<linearGradient id="paint43_linear_586_3539" x1="284.832" y1="293.103" x2="630.94" y2="297.634" gradientUnits="userSpaceOnUse">
<stop stop-color="#5CE5BD"/>
<stop offset="0.3591" stop-color="#9AB191"/>
<stop offset="0.7933" stop-color="#EA6D59"/>
<stop offset="1" stop-color="#ED5858"/>
</linearGradient>
<linearGradient id="paint44_linear_586_3539" x1="284.134" y1="346.518" x2="630.239" y2="351.049" gradientUnits="userSpaceOnUse">
<stop stop-color="#5CE5BD"/>
<stop offset="0.3591" stop-color="#9AB191"/>
<stop offset="0.7933" stop-color="#EA6D59"/>
<stop offset="1" stop-color="#ED5858"/>
</linearGradient>
<clipPath id="clip0_586_3539">
<rect width="568" height="600" fill="white" transform="translate(0 568) rotate(-90)"/>
</clipPath>
</defs>
</svg>
