<svg width="99" height="44" viewBox="0 0 99 44" fill="none" xmlns="http://www.w3.org/2000/svg">
<path d="M65.2466 19.2693C63.8998 19.2693 62.7787 18.223 62.6616 16.9004L56.8456 15.3068C56.3703 16.0527 55.5505 16.5085 54.6584 16.5085C53.2272 16.5085 52.0613 15.3413 52.0613 13.9065C52.0613 13.7149 52.0819 13.5249 52.1233 13.3385L36.9091 4.64671C36.4286 5.10081 35.7897 5.35635 35.1284 5.35635C33.6972 5.35635 32.5312 4.18917 32.5312 2.75263C32.5312 1.31782 33.6955 0.150635 35.1284 0.150635C36.5613 0.150635 37.7255 1.31782 37.7255 2.75263C37.7255 2.94429 37.7048 3.13248 37.6635 3.3155L52.881 12.009C53.3615 11.5583 53.9988 11.3028 54.6584 11.3028C56.0654 11.3028 57.2142 12.4303 57.2538 13.8323L62.9802 15.4017C63.4348 14.5833 64.3011 14.0654 65.2466 14.0654C65.8322 14.0654 66.3953 14.2622 66.8517 14.6248L71.8737 10.7831C71.767 10.4965 71.7136 10.1943 71.7136 9.88351C71.7136 8.4487 72.8778 7.28152 74.309 7.28152C75.7401 7.28152 76.9043 8.4487 76.9043 9.88351C76.9043 11.3183 75.7401 12.4855 74.309 12.4855C73.7665 12.4855 73.2377 12.3146 72.7986 12.0003L67.7197 15.8852C67.8007 16.1373 67.8403 16.4015 67.8403 16.6691C67.842 18.1022 66.6778 19.2693 65.2466 19.2693ZM56.5924 14.699L63.1662 16.5016L63.1679 16.6967C63.1817 17.8294 64.1134 18.7514 65.2466 18.7514C66.3919 18.7514 67.3253 17.8173 67.3253 16.6674C67.3253 16.3997 67.2754 16.1373 67.1738 15.8904L67.0997 15.7074L72.8089 11.3408L72.9673 11.4754C73.3428 11.7931 73.8181 11.9675 74.309 11.9675C75.4542 11.9675 76.3877 11.0317 76.3877 9.88351C76.3877 8.73532 75.456 7.7995 74.309 7.7995C73.1619 7.7995 72.2302 8.73359 72.2302 9.88351C72.2302 10.1891 72.2957 10.4844 72.4231 10.7589L72.5109 10.9488L66.8259 15.2999L66.6657 15.1497C66.2782 14.7871 65.7753 14.5868 65.2466 14.5868C64.4303 14.5868 63.6863 15.0702 63.3522 15.8161L63.2609 16.0181L56.7285 14.2294L56.7354 14.0256C56.7371 13.979 56.7388 13.9462 56.7388 13.9117C56.7388 12.7618 55.8054 11.8259 54.6584 11.8259C54.0745 11.8259 53.5114 12.0763 53.1153 12.5114L52.9758 12.6651L37.0538 3.56931L37.1158 3.37075C37.1778 3.17392 37.2088 2.96846 37.2088 2.75781C37.2088 1.60789 36.2754 0.673796 35.1284 0.673796C33.9814 0.673796 33.0479 1.60962 33.0479 2.75781C33.0479 3.906 33.9814 4.84355 35.1284 4.84355C35.7156 4.84355 36.2788 4.59147 36.6732 4.15464L36.8127 3.99924L52.7329 13.095L52.6709 13.2936C52.6089 13.4921 52.5779 13.701 52.5779 13.9117C52.5779 15.0599 53.5114 15.9957 54.6584 15.9957C55.4282 15.9957 56.1326 15.571 56.4943 14.8889L56.5924 14.699Z" fill="url(#paint0_linear_278_1425)"/>
<path d="M35.1301 4.34456C34.2552 4.34456 33.5439 3.63147 33.5439 2.75436C33.5439 1.87724 34.2552 1.16415 35.1301 1.16415C36.005 1.16415 36.7163 1.87724 36.7163 2.75436C36.7163 2.83033 36.7111 2.89421 36.7025 2.95464C36.6508 3.36903 36.4407 3.74198 36.1101 4.00442C35.8259 4.22716 35.4866 4.34456 35.1301 4.34456ZM35.1301 1.68041C34.5394 1.68041 34.0606 2.16213 34.0606 2.75263C34.0606 3.34486 34.5411 3.82485 35.1301 3.82485C35.3712 3.82485 35.6003 3.74543 35.7914 3.59521C36.0136 3.4191 36.1566 3.16702 36.191 2.88558L36.1927 2.87522C36.1979 2.84069 36.2013 2.80098 36.2013 2.75091C36.1996 2.16213 35.7191 1.68041 35.1301 1.68041Z" fill="url(#paint1_linear_278_1425)"/>
<path d="M54.6584 15.495C53.7836 15.495 53.0723 14.7819 53.0723 13.9065C53.0723 13.8409 53.0774 13.7753 53.086 13.7028C53.1377 13.2867 53.3513 12.9137 53.6837 12.653C53.9609 12.4354 54.3071 12.3163 54.6584 12.3163C55.4662 12.3163 56.143 12.9206 56.2326 13.7235C56.2395 13.7753 56.2446 13.8392 56.2446 13.9082C56.2446 14.2656 56.1275 14.6041 55.9071 14.8855C55.6057 15.2723 55.151 15.495 54.6584 15.495ZM54.6584 12.8326C54.4173 12.8326 54.19 12.9103 54.0006 13.0587C53.7749 13.2349 53.632 13.4869 53.5976 13.7667C53.5924 13.8133 53.5872 13.8582 53.5872 13.9048C53.5872 14.4953 54.0677 14.9753 54.6567 14.9753C54.9874 14.9753 55.2939 14.8251 55.4989 14.5626C55.6487 14.3727 55.7262 14.1448 55.7262 13.9048C55.7262 13.8651 55.7245 13.8254 55.7193 13.7874C55.6591 13.24 55.2027 12.8326 54.6584 12.8326Z" fill="url(#paint2_linear_278_1425)"/>
<path d="M65.2463 18.2576C64.5144 18.2576 63.8806 17.7603 63.7066 17.0489C63.6756 16.9298 63.6602 16.802 63.6602 16.6691C63.6602 16.379 63.7394 16.0941 63.8892 15.8455C64.1768 15.3724 64.6969 15.0789 65.2463 15.0789C65.5804 15.0789 65.9008 15.1825 66.1712 15.3776C66.5104 15.621 66.7429 15.9974 66.8101 16.4084C66.8239 16.4878 66.8325 16.5741 66.8325 16.6691C66.8325 17.5445 66.1212 18.2576 65.2463 18.2576ZM65.2463 15.5951C64.876 15.5951 64.5247 15.7937 64.3301 16.1131C64.2302 16.2806 64.1751 16.4722 64.1751 16.6674C64.1751 16.7554 64.1854 16.8417 64.2061 16.9212C64.3249 17.4046 64.7521 17.7396 65.2446 17.7396C65.8336 17.7396 66.3124 17.2596 66.3124 16.6691C66.3124 16.6069 66.3072 16.5499 66.2986 16.4981C66.2521 16.2167 66.0954 15.9629 65.8681 15.7989C65.6872 15.6642 65.4719 15.5951 65.2463 15.5951Z" fill="url(#paint3_linear_278_1425)"/>
<path d="M74.3088 11.472C74.0264 11.472 73.7491 11.396 73.508 11.2545C73.1498 11.0438 72.8828 10.6933 72.776 10.2927C72.7399 10.1563 72.7227 10.0199 72.7227 9.88179C72.7227 9.00467 73.4339 8.29331 74.3088 8.29331C75.1837 8.29331 75.895 9.0064 75.895 9.88179C75.8933 10.7589 75.182 11.472 74.3088 11.472ZM74.3088 8.8113C73.7198 8.8113 73.2393 9.29129 73.2393 9.88179C73.2393 9.97503 73.2514 10.0683 73.2755 10.1598C73.3478 10.4291 73.5269 10.6657 73.7698 10.8073C73.9317 10.9039 74.1194 10.954 74.3088 10.954C74.8978 10.954 75.3783 10.4723 75.3783 9.88179C75.3766 9.29129 74.8978 8.8113 74.3088 8.8113Z" fill="url(#paint4_linear_278_1425)"/>
<path d="M26.2937 42.9377H20.3986V25.1174L13.7284 38.1205H13.0653L6.39517 25.1174V42.9377H0.5V12.2887H6.39517L13.396 25.9064L20.3968 12.2887H26.292V42.9377H26.2937Z" fill="url(#paint5_linear_278_1425)"/>
<path d="M48.218 21.046V42.9377H42.6914V40.8796C41.4756 42.544 39.6707 43.5506 37.201 43.5506C32.3736 43.5506 28.3936 38.5158 28.3936 31.991C28.3936 25.4661 32.3736 20.4314 37.201 20.4314C39.6689 20.4314 41.4756 21.438 42.6914 23.1024V21.0443H48.218V21.046ZM42.6914 31.991C42.6914 28.707 40.8487 26.6489 38.3067 26.6489C35.7647 26.6489 33.9219 28.707 33.9219 31.991C33.9219 35.275 35.7647 37.3331 38.3067 37.3331C40.8487 37.3331 42.6914 35.275 42.6914 31.991Z" fill="url(#paint6_linear_278_1425)"/>
<path d="M65.1681 36.3697C65.1681 41.4045 61.4826 43.5506 57.5043 43.5506C53.8187 43.5506 51.0184 41.8862 49.582 38.3397L54.3715 35.0989C54.8503 36.7633 55.8819 37.6819 57.5043 37.6819C58.8304 37.6819 59.4934 37.2002 59.4934 36.3248C59.4934 33.9162 50.4294 35.1869 50.4294 27.6123C50.4294 22.84 53.8187 20.4314 57.6524 20.4314C60.637 20.4314 63.2909 22.0077 64.8375 25.1156L60.1203 28.1372C59.6036 26.9994 58.8682 26.2103 57.6506 26.2103C56.6931 26.2103 56.1024 26.6489 56.1024 27.4362C56.1041 29.9329 65.1681 28.2702 65.1681 36.3697Z" fill="url(#paint7_linear_278_1425)"/>
<path d="M85.4349 21.046V42.9377H79.9083V40.8796C78.6924 42.544 76.8875 43.5506 74.4178 43.5506C69.5904 43.5506 65.6104 38.5158 65.6104 31.991C65.6104 25.4661 69.5904 20.4314 74.4178 20.4314C76.8875 20.4314 78.6924 21.438 79.9083 23.1024V21.0443H85.4349V21.046ZM79.9065 31.991C79.9065 28.707 78.0638 26.6489 75.5218 26.6489C72.9797 26.6489 71.137 28.707 71.137 31.991C71.137 35.275 72.9797 37.3331 75.5218 37.3331C78.0638 37.3331 79.9065 35.275 79.9065 31.991Z" fill="url(#paint8_linear_278_1425)"/>
<path d="M99.3267 20.6075V28.0509C97.0413 27.6123 93.8001 28.707 93.8001 33.0425V42.9377H88.2734V21.046H93.8001V24.943C94.5354 22.0095 97.0051 20.6075 99.3267 20.6075Z" fill="url(#paint9_linear_278_1425)"/>
<defs>
<linearGradient id="paint0_linear_278_1425" x1="29.5823" y1="5.86363" x2="82.4735" y2="15.566" gradientUnits="userSpaceOnUse">
<stop stop-color="#5CE5BD"/>
<stop offset="0.3591" stop-color="#9AB191"/>
<stop offset="0.7933" stop-color="#EA6D59"/>
<stop offset="1" stop-color="#ED5858"/>
</linearGradient>
<linearGradient id="paint1_linear_278_1425" x1="30.3157" y1="1.866" x2="83.2069" y2="11.5684" gradientUnits="userSpaceOnUse">
<stop stop-color="#5CE5BD"/>
<stop offset="0.3591" stop-color="#9AB191"/>
<stop offset="0.7933" stop-color="#EA6D59"/>
<stop offset="1" stop-color="#ED5858"/>
</linearGradient>
<linearGradient id="paint2_linear_278_1425" x1="28.9757" y1="9.16988" x2="81.8672" y2="18.8724" gradientUnits="userSpaceOnUse">
<stop stop-color="#5CE5BD"/>
<stop offset="0.3591" stop-color="#9AB191"/>
<stop offset="0.7933" stop-color="#EA6D59"/>
<stop offset="1" stop-color="#ED5858"/>
</linearGradient>
<linearGradient id="paint3_linear_278_1425" x1="28.8317" y1="9.95307" x2="81.7231" y2="19.6555" gradientUnits="userSpaceOnUse">
<stop stop-color="#5CE5BD"/>
<stop offset="0.3591" stop-color="#9AB191"/>
<stop offset="0.7933" stop-color="#EA6D59"/>
<stop offset="1" stop-color="#ED5858"/>
</linearGradient>
<linearGradient id="paint4_linear_278_1425" x1="30.3325" y1="1.77452" x2="83.2235" y2="11.4769" gradientUnits="userSpaceOnUse">
<stop stop-color="#5CE5BD"/>
<stop offset="0.3591" stop-color="#9AB191"/>
<stop offset="0.7933" stop-color="#EA6D59"/>
<stop offset="1" stop-color="#ED5858"/>
</linearGradient>
<linearGradient id="paint5_linear_278_1425" x1="96.0042" y1="39.4973" x2="14.6665" y2="27.8552" gradientUnits="userSpaceOnUse">
<stop stop-color="#5CE5BD"/>
<stop offset="0.3591" stop-color="#9AB191"/>
<stop offset="0.7933" stop-color="#EA6D59"/>
<stop offset="1" stop-color="#ED5858"/>
</linearGradient>
<linearGradient id="paint6_linear_278_1425" x1="95.934" y1="39.9907" x2="14.5963" y2="28.3485" gradientUnits="userSpaceOnUse">
<stop stop-color="#5CE5BD"/>
<stop offset="0.3591" stop-color="#9AB191"/>
<stop offset="0.7933" stop-color="#EA6D59"/>
<stop offset="1" stop-color="#ED5858"/>
</linearGradient>
<linearGradient id="paint7_linear_278_1425" x1="96.2797" y1="37.5752" x2="14.942" y2="25.9331" gradientUnits="userSpaceOnUse">
<stop stop-color="#5CE5BD"/>
<stop offset="0.3591" stop-color="#9AB191"/>
<stop offset="0.7933" stop-color="#EA6D59"/>
<stop offset="1" stop-color="#ED5858"/>
</linearGradient>
<linearGradient id="paint8_linear_278_1425" x1="96.6846" y1="34.7446" x2="15.3467" y2="23.1024" gradientUnits="userSpaceOnUse">
<stop stop-color="#5CE5BD"/>
<stop offset="0.3591" stop-color="#9AB191"/>
<stop offset="0.7933" stop-color="#EA6D59"/>
<stop offset="1" stop-color="#ED5858"/>
</linearGradient>
<linearGradient id="paint9_linear_278_1425" x1="97.0435" y1="32.2394" x2="15.7057" y2="20.5973" gradientUnits="userSpaceOnUse">
<stop stop-color="#5CE5BD"/>
<stop offset="0.3591" stop-color="#9AB191"/>
<stop offset="0.7933" stop-color="#EA6D59"/>
<stop offset="1" stop-color="#ED5858"/>
</linearGradient>
</defs>
</svg>
