<svg width="330" height="168" viewBox="0 0 330 168" fill="none" xmlns="http://www.w3.org/2000/svg">
<path d="M183.243 65.8056C178.595 65.8056 174.727 62.2042 174.323 57.6519L154.253 52.1666C152.613 54.734 149.784 56.3029 146.706 56.3029C141.767 56.3029 137.744 52.2855 137.744 47.347C137.744 46.6873 137.815 46.0336 137.958 45.3917L85.4586 15.4753C83.8006 17.0383 81.5957 17.9178 79.3137 17.9178C74.3751 17.9178 70.3518 13.9004 70.3518 8.95593C70.3518 4.01739 74.3692 0 79.3137 0C84.2581 0 88.2755 4.01739 88.2755 8.95593C88.2755 9.61559 88.2042 10.2634 88.0616 10.8933L140.573 40.8098C142.231 39.2587 144.43 38.3792 146.706 38.3792C151.561 38.3792 155.525 42.2598 155.662 47.0855L175.422 52.4876C176.991 49.6706 179.98 47.8878 183.243 47.8878C185.263 47.8878 187.207 48.5652 188.782 49.8133L206.111 36.5903C205.743 35.6038 205.558 34.5638 205.558 33.4941C205.558 28.5556 209.576 24.5382 214.514 24.5382C219.453 24.5382 223.47 28.5556 223.47 33.4941C223.47 38.4326 219.453 42.45 214.514 42.45C212.642 42.45 210.818 41.8617 209.302 40.7801L191.777 54.1516C192.056 55.0192 192.193 55.9285 192.193 56.8496C192.199 61.7882 188.181 65.8056 183.243 65.8056ZM153.38 50.0747L176.064 56.2791L176.07 56.9507C176.117 60.8492 179.332 64.0227 183.243 64.0227C187.195 64.0227 190.416 60.8076 190.416 56.8496C190.416 55.9285 190.244 55.0252 189.893 54.1753L189.637 53.5454L209.338 38.5158L209.885 38.9794C211.18 40.0729 212.821 40.6731 214.514 40.6731C218.466 40.6731 221.687 37.452 221.687 33.5C221.687 29.548 218.472 26.327 214.514 26.327C210.556 26.327 207.341 29.5421 207.341 33.5C207.341 34.5519 207.567 35.5682 208.007 36.5131L208.31 37.1668L188.692 52.1429L188.14 51.6258C186.803 50.3778 185.067 49.6885 183.243 49.6885C180.426 49.6885 177.859 51.3525 176.706 53.9198L176.391 54.6151L153.849 48.4583L153.873 47.757C153.879 47.5966 153.885 47.4836 153.885 47.3648C153.885 43.4068 150.664 40.1858 146.706 40.1858C144.691 40.1858 142.748 41.0475 141.381 42.5451L140.9 43.074L85.9578 11.7669L86.1718 11.0835C86.3857 10.406 86.4927 9.69879 86.4927 8.97376C86.4927 5.0158 83.2716 1.80069 79.3137 1.80069C75.3557 1.80069 72.1347 5.02174 72.1347 8.97376C72.1347 12.9258 75.3557 16.1528 79.3137 16.1528C81.3402 16.1528 83.2835 15.2851 84.6444 13.7815L85.1258 13.2467L140.062 44.5538L139.848 45.2372C139.634 45.9207 139.527 46.6398 139.527 47.3648C139.527 51.3168 142.748 54.5379 146.706 54.5379C149.362 54.5379 151.793 53.0759 153.041 50.7285L153.38 50.0747Z" fill="url(#paint0_linear_32_182)"/>
<path d="M79.3196 14.4353C76.3006 14.4353 73.8462 11.9809 73.8462 8.96188C73.8462 5.9429 76.3006 3.48847 79.3196 3.48847C82.3386 3.48847 84.793 5.9429 84.793 8.96188C84.793 9.22337 84.7752 9.44324 84.7454 9.65124C84.5672 11.0775 83.8421 12.3612 82.7011 13.2645C81.7205 14.0312 80.5498 14.4353 79.3196 14.4353ZM79.3196 5.26541C77.2812 5.26541 75.6291 6.92347 75.6291 8.95593C75.6291 10.9943 77.2871 12.6465 79.3196 12.6465C80.1516 12.6465 80.942 12.3731 81.6016 11.8561C82.3683 11.2499 82.8615 10.3822 82.9804 9.41353L82.9863 9.37787C83.0042 9.25901 83.0161 9.12233 83.0161 8.94998C83.0101 6.92346 81.352 5.26541 79.3196 5.26541Z" fill="url(#paint1_linear_32_182)"/>
<path d="M146.706 52.8144C143.687 52.8144 141.233 50.36 141.233 47.3469C141.233 47.1211 141.25 46.8953 141.28 46.6457C141.458 45.2134 142.195 43.9298 143.342 43.0324C144.299 42.2836 145.494 41.8735 146.706 41.8735C149.493 41.8735 151.829 43.9536 152.138 46.717C152.162 46.8953 152.179 47.1152 152.179 47.3529C152.179 48.5831 151.775 49.7479 151.015 50.7165C149.975 52.0478 148.406 52.8144 146.706 52.8144ZM146.706 43.6505C145.874 43.6505 145.089 43.9179 144.436 44.429C143.657 45.0352 143.164 45.9028 143.045 46.8656C143.027 47.026 143.009 47.1805 143.009 47.341C143.009 49.3735 144.668 51.0256 146.7 51.0256C147.841 51.0256 148.899 50.5086 149.606 49.6052C150.123 48.9515 150.391 48.1671 150.391 47.341C150.391 47.2043 150.385 47.0676 150.367 46.9369C150.159 45.053 148.584 43.6505 146.706 43.6505Z" fill="url(#paint2_linear_32_182)"/>
<path d="M183.243 62.323C180.717 62.323 178.53 60.6114 177.93 58.163C177.823 57.7529 177.769 57.3132 177.769 56.8555C177.769 55.8571 178.043 54.8766 178.56 54.0208C179.552 52.3924 181.347 51.3821 183.243 51.3821C184.396 51.3821 185.501 51.7387 186.434 52.4103C187.605 53.2482 188.407 54.5438 188.639 55.9582C188.687 56.2315 188.716 56.5287 188.716 56.8555C188.716 59.8686 186.262 62.323 183.243 62.323ZM183.243 53.1591C181.965 53.1591 180.753 53.8425 180.081 54.9419C179.737 55.5184 179.546 56.1781 179.546 56.8496C179.546 57.1527 179.582 57.4498 179.653 57.7232C180.063 59.3872 181.537 60.5401 183.237 60.5401C185.269 60.5401 186.921 58.888 186.921 56.8555C186.921 56.6416 186.904 56.4455 186.874 56.2672C186.713 55.2985 186.173 54.4249 185.388 53.8603C184.764 53.3968 184.021 53.1591 183.243 53.1591Z" fill="url(#paint3_linear_32_182)"/>
<path d="M214.514 38.9675C213.54 38.9675 212.583 38.706 211.751 38.2187C210.515 37.4937 209.594 36.2873 209.225 34.9085C209.1 34.439 209.041 33.9695 209.041 33.4941C209.041 30.4751 211.495 28.0267 214.514 28.0267C217.533 28.0267 219.988 30.4811 219.988 33.4941C219.982 36.5131 217.527 38.9675 214.514 38.9675ZM214.514 29.8095C212.482 29.8095 210.824 31.4617 210.824 33.4941C210.824 33.815 210.865 34.1359 210.949 34.4509C211.198 35.378 211.816 36.1922 212.654 36.6795C213.213 37.0123 213.861 37.1846 214.514 37.1846C216.547 37.1846 218.205 35.5266 218.205 33.4941C218.199 31.4617 216.547 29.8095 214.514 29.8095Z" fill="url(#paint4_linear_32_182)"/>
<path d="M34.8669 135.474C34.8669 138.606 33.7496 141.286 31.5151 143.521C29.3341 145.755 26.6835 146.872 23.5517 146.872C20.4198 146.872 17.7395 145.755 15.505 143.521L15.2554 143.188L0 157.522L0.75474 158.277C7.0126 164.588 14.6136 167.75 23.5517 167.75C32.4363 167.75 40.0372 164.594 46.3485 158.277C52.6064 151.96 55.7383 144.365 55.7383 135.48V76.3007H34.8669V135.474Z" fill="url(#paint5_linear_32_182)"/>
<path d="M313.725 77.7211L313.677 77.6735C307.681 71.5464 300.312 68.2422 291.772 67.8499C283.161 67.4577 275.827 70.1379 269.985 75.8312C264.488 80.9362 261.701 87.6932 261.701 95.9122V118.061H248.894V117.919C247.919 117.996 246.897 118.032 245.81 118.032H223.013C224.296 113.503 224.938 108.279 224.938 102.354V62.4776H204.067V102.36C204.067 112.808 200.572 118.038 193.589 118.038H191.83C193.061 113.509 193.673 108.285 193.673 102.36V85.6608H172.801V102.36C172.801 112.808 169.337 118.038 162.407 118.038H155.115C156.399 113.509 157.041 108.285 157.041 102.36L157.136 76.3007H136.264L136.169 102.36C136.169 112.808 132.675 118.038 125.692 118.038H100.209C93.2201 118.038 89.7316 112.814 89.7316 102.36V37.9572H68.8602V102.366C68.8602 126.732 79.3078 138.915 100.209 138.915H245.804C245.857 138.915 245.911 138.915 245.964 138.915H262.366C267.133 138.915 271.293 137.536 274.716 134.826C274.763 134.785 274.817 134.749 274.864 134.707V138.915H291.873C297.513 138.915 303.188 137.934 308.733 135.997C314.474 133.994 319.359 130.815 323.245 126.536C327.346 122.025 329.42 116.219 329.42 109.266C329.426 99.371 324.149 88.763 313.725 77.7211ZM304.935 115.042C302.166 117.045 297.768 118.061 291.879 118.061H282.543V95.9122C282.543 93.6837 283.155 92.0196 284.474 90.6884C285.906 89.3572 288.099 88.6857 291.005 88.6857C293.917 88.6857 296.431 89.7733 298.695 92.0197C302.6 96.1559 305.274 99.7513 306.623 102.711C308.251 106.283 308.596 108.244 308.596 109.26C308.59 110.038 308.59 112.398 304.935 115.042Z" fill="url(#paint6_linear_32_182)"/>
<defs>
<linearGradient id="paint0_linear_32_182" x1="60.1757" y1="19.663" x2="242.657" y2="53.2229" gradientUnits="userSpaceOnUse">
<stop stop-color="#5CE5BD"/>
<stop offset="0.3591" stop-color="#9AB191"/>
<stop offset="0.7933" stop-color="#EA6D59"/>
<stop offset="1" stop-color="#ED5858"/>
</linearGradient>
<linearGradient id="paint1_linear_32_182" x1="62.7062" y1="5.90342" x2="245.188" y2="39.4632" gradientUnits="userSpaceOnUse">
<stop stop-color="#5CE5BD"/>
<stop offset="0.3591" stop-color="#9AB191"/>
<stop offset="0.7933" stop-color="#EA6D59"/>
<stop offset="1" stop-color="#ED5858"/>
</linearGradient>
<linearGradient id="paint2_linear_32_182" x1="58.0829" y1="31.043" x2="240.564" y2="64.6027" gradientUnits="userSpaceOnUse">
<stop stop-color="#5CE5BD"/>
<stop offset="0.3591" stop-color="#9AB191"/>
<stop offset="0.7933" stop-color="#EA6D59"/>
<stop offset="1" stop-color="#ED5858"/>
</linearGradient>
<linearGradient id="paint3_linear_32_182" x1="57.5868" y1="33.7387" x2="240.069" y2="67.2987" gradientUnits="userSpaceOnUse">
<stop stop-color="#5CE5BD"/>
<stop offset="0.3591" stop-color="#9AB191"/>
<stop offset="0.7933" stop-color="#EA6D59"/>
<stop offset="1" stop-color="#ED5858"/>
</linearGradient>
<linearGradient id="paint4_linear_32_182" x1="62.7643" y1="5.5887" x2="245.246" y2="39.1485" gradientUnits="userSpaceOnUse">
<stop stop-color="#5CE5BD"/>
<stop offset="0.3591" stop-color="#9AB191"/>
<stop offset="0.7933" stop-color="#EA6D59"/>
<stop offset="1" stop-color="#ED5858"/>
</linearGradient>
<linearGradient id="paint5_linear_32_182" x1="20.2982" y1="121.199" x2="336.473" y2="134.9" gradientUnits="userSpaceOnUse">
<stop stop-color="#5CE5BD"/>
<stop offset="0.3591" stop-color="#9AB191"/>
<stop offset="0.7933" stop-color="#EA6D59"/>
<stop offset="1" stop-color="#ED5858"/>
</linearGradient>
<linearGradient id="paint6_linear_32_182" x1="21.8543" y1="85.2899" x2="338.029" y2="98.9908" gradientUnits="userSpaceOnUse">
<stop stop-color="#5CE5BD"/>
<stop offset="0.3591" stop-color="#9AB191"/>
<stop offset="0.7933" stop-color="#EA6D59"/>
<stop offset="1" stop-color="#ED5858"/>
</linearGradient>
</defs>
</svg>
